<svg width="66" height="66" viewBox="0 0 66 66" fill="none" xmlns="http://www.w3.org/2000/svg">
<circle cx="33" cy="33" r="33" fill="#FFD693"/>
<path d="M33.3413 27.7709C33.7473 27.7709 34.1366 27.6096 34.4237 27.3225C34.7108 27.0354 34.8721 26.6461 34.8721 26.2401C34.8721 25.8341 34.7108 25.4448 34.4237 25.1577C34.1366 24.8706 33.7473 24.7094 33.3413 24.7094C32.9353 24.7094 32.546 24.8706 32.2589 25.1577C31.9718 25.4448 31.8105 25.8341 31.8105 26.2401C31.8105 26.6461 31.9718 27.0354 32.2589 27.3225C32.546 27.6096 32.9353 27.7709 33.3413 27.7709Z" fill="#F43B00"/>
<path d="M34.8438 20.5334C34.4192 20.1884 33.8887 20 33.3416 20C32.7945 20 32.264 20.1884 31.8394 20.5334L21.6303 28.8322C20.3893 29.8425 21.1037 31.8529 22.7038 31.8529H23.1365V40.4252C21.9242 41.0436 21.0955 42.3029 21.0955 43.7581V45.1195C21.0955 45.3901 21.203 45.6497 21.3944 45.8411C21.5858 46.0325 21.8454 46.14 22.116 46.14H44.5672C44.8379 46.14 45.0974 46.0325 45.2888 45.8411C45.4802 45.6497 45.5877 45.3901 45.5877 45.1195V43.7581C45.5877 42.3049 44.7591 41.0436 43.5467 40.4252V31.8529H43.9794C45.5795 31.8529 46.2939 29.8425 45.0509 28.8322L34.8458 20.5334H34.8438ZM33.1293 22.1173C33.19 22.0682 33.2657 22.0415 33.3437 22.0415C33.4217 22.0415 33.4973 22.0682 33.558 22.1173L43.0181 29.8119H23.6631L33.1293 22.1173ZM41.5057 40.017H39.4647V31.8529H41.5057V40.017ZM37.4236 40.017H34.3621V31.8529H37.4236V40.017ZM32.3211 40.017H29.2596V31.8529H32.3211V40.017ZM41.8465 42.058C42.7854 42.058 43.5467 42.8193 43.5467 43.7581V44.099H23.1365V43.7581C23.1365 42.8193 23.8978 42.058 24.8367 42.058H41.8465ZM27.2186 40.017H25.1776V31.8529H27.2186V40.017Z" fill="#F43B00"/>
</svg>
