<svg width="65" height="65" viewBox="0 0 65 65" fill="none" xmlns="http://www.w3.org/2000/svg">
<circle cx="32.5" cy="32.5" r="32.25" stroke="#0D4566" stroke-opacity="0.5" stroke-width="0.5"/>
<path d="M41.25 42.9999H41.2498L35.9991 42.9992C35.5352 42.9986 35.0905 42.8103 34.7624 42.4758C34.4344 42.1412 34.2499 41.6875 34.2493 41.2144V35.8598H30.7493V41.2143C30.7488 41.6874 30.5643 42.1411 30.2363 42.4756C29.9082 42.8102 29.4635 42.9985 28.9996 42.9991L23.7502 43C23.5204 43 23.2928 42.9539 23.0805 42.8642C22.8681 42.7745 22.6752 42.6431 22.5126 42.4773C22.3501 42.3116 22.2212 42.1148 22.1332 41.8982C22.0453 41.6817 22 41.4496 22 41.2152V30.9011C22.0002 30.6524 22.0512 30.4065 22.1499 30.1791C22.2485 29.9517 22.3925 29.7478 22.5728 29.5803L31.322 21.4668C31.6434 21.1666 32.0634 21 32.4992 21C32.9351 21 33.3551 21.1664 33.6765 21.4666L42.4273 29.5804C42.6075 29.7479 42.7515 29.9518 42.8501 30.1792C42.9487 30.4066 42.9998 30.6525 43 30.9011V41.2152C43 41.6885 42.8156 42.1425 42.4874 42.4772C42.1592 42.812 41.7141 43 41.25 43V42.9999ZM30.7493 34.075H34.2493C34.7133 34.0755 35.1581 34.2637 35.4862 34.5983C35.8143 34.9329 35.9988 35.3866 35.9993 35.8598V41.2154L41.25 41.2152V30.9011L32.4993 22.7874L23.75 30.901V41.2151L28.9993 41.2144V35.8598C28.9999 35.3866 29.1844 34.9329 29.5125 34.5983C29.8406 34.2637 30.2854 34.0755 30.7493 34.075V34.075Z" fill="#3AAA35"/>
</svg>
