<svg width="66" height="66" viewBox="0 0 66 66" fill="none" xmlns="http://www.w3.org/2000/svg">
<circle cx="33" cy="33" r="33" fill="#DBEAF2"/>
<path d="M45.8996 16H28.8996C27.0245 16 25.4996 17.5249 25.4996 19.4V28.8962L17.4977 36.8981C17.2601 37.1358 17.0982 37.4387 17.0326 37.7684C16.9671 38.0982 17.0007 38.4399 17.1294 38.7505C17.258 39.0611 17.4759 39.3266 17.7554 39.5134C18.0349 39.7002 18.3635 39.7999 18.6996 39.8V48.3C18.6996 48.7509 18.8787 49.1833 19.1976 49.5021C19.5164 49.8209 19.9488 50 20.3996 50H47.5996C48.0505 50 48.4829 49.8209 48.8017 49.5021C49.1205 49.1833 49.2996 48.7509 49.2996 48.3V19.4C49.2996 17.5249 47.7747 16 45.8996 16ZM32.2996 46.6H22.0996V37.1038L27.1996 32.0038L32.2996 37.1038V46.6ZM45.8996 46.6H35.6996V39.8C36.0362 39.8007 36.3654 39.7015 36.6454 39.5148C36.9254 39.3281 37.1437 39.0625 37.2724 38.7516C37.4012 38.4406 37.4347 38.0985 37.3687 37.7685C37.3026 37.4385 37.14 37.1355 36.9015 36.8981L28.8996 28.8962V19.4H45.8996V46.6Z" fill="#0D4566"/>
<path d="M32.3 22.8H35.7V26.2H32.3V22.8ZM39.1 22.8H42.5V26.2H39.1V22.8ZM39.1 29.6527H42.5V33H39.1V29.6527ZM39.1 36.4H42.5V39.8H39.1V36.4ZM25.5 38.1H28.9V41.5H25.5V38.1Z" fill="#0D4566"/>
</svg>
