<svg width="66" height="66" viewBox="0 0 66 66" fill="none" xmlns="http://www.w3.org/2000/svg">
<circle cx="33" cy="33" r="33" fill="#BDFFBA"/>
<path d="M31.1781 42.3562C33.6582 42.3557 36.0669 41.5254 38.0205 39.9976L44.1629 46.14L46.1386 44.1643L39.9962 38.0219C41.5248 36.0681 42.3556 33.6589 42.3562 31.1781C42.3562 25.0148 37.3414 20 31.1781 20C25.0148 20 20 25.0148 20 31.1781C20 37.3414 25.0148 42.3562 31.1781 42.3562ZM31.1781 22.7945C35.8016 22.7945 39.5617 26.5546 39.5617 31.1781C39.5617 35.8016 35.8016 39.5617 31.1781 39.5617C26.5546 39.5617 22.7945 35.8016 22.7945 31.1781C22.7945 26.5546 26.5546 22.7945 31.1781 22.7945Z" fill="#005128"/>
<path d="M33.1511 29.2024C33.6807 29.7334 33.9727 30.4348 33.9727 31.1782H36.7672C36.7684 30.4438 36.6241 29.7165 36.3426 29.0382C36.061 28.36 35.6478 27.7443 35.1268 27.2267C33.0114 25.114 29.3436 25.114 27.2295 27.2267L29.2024 29.2052C30.2643 28.1461 32.0948 28.1489 33.1511 29.2024Z" fill="#005128"/>
</svg>
