<svg width="66" height="66" viewBox="0 0 66 66" fill="none" xmlns="http://www.w3.org/2000/svg">
<circle cx="33" cy="33" r="33" fill="#CFD9E7"/>
<circle cx="33" cy="33" r="33" stroke="black"/>
<path d="M31.1781 42.3562C33.6582 42.3557 36.0669 41.5254 38.0205 39.9976L44.1629 46.14L46.1386 44.1643L39.9962 38.0219C41.5248 36.0681 42.3556 33.6589 42.3562 31.1781C42.3562 25.0148 37.3414 20 31.1781 20C25.0148 20 20 25.0148 20 31.1781C20 37.3414 25.0148 42.3562 31.1781 42.3562ZM31.1781 22.7945C35.8016 22.7945 39.5617 26.5546 39.5617 31.1781C39.5617 35.8016 35.8016 39.5617 31.1781 39.5617C26.5546 39.5617 22.7945 35.8016 22.7945 31.1781C22.7945 26.5546 26.5546 22.7945 31.1781 22.7945Z" fill="#0D4566"/>
</svg>
