<svg width="65" height="97" viewBox="0 0 65 97" fill="none" xmlns="http://www.w3.org/2000/svg">
<path d="M19.9602 20.112C19.2242 20.112 18.5629 19.984 17.9762 19.728C17.4002 19.4613 16.9469 19.0987 16.6162 18.64C16.2855 18.1707 16.1149 17.632 16.1042 17.024H17.6562C17.7095 17.5467 17.9229 17.9893 18.2962 18.352C18.6802 18.704 19.2349 18.88 19.9602 18.88C20.6535 18.88 21.1975 18.7093 21.5922 18.368C21.9975 18.016 22.2002 17.568 22.2002 17.024C22.2002 16.5973 22.0829 16.2507 21.8482 15.984C21.6135 15.7173 21.3202 15.5147 20.9682 15.376C20.6162 15.2373 20.1415 15.088 19.5442 14.928C18.8082 14.736 18.2162 14.544 17.7682 14.352C17.3309 14.16 16.9522 13.8613 16.6322 13.456C16.3229 13.04 16.1682 12.4853 16.1682 11.792C16.1682 11.184 16.3229 10.6453 16.6322 10.176C16.9415 9.70667 17.3735 9.344 17.9282 9.088C18.4935 8.832 19.1389 8.704 19.8642 8.704C20.9095 8.704 21.7629 8.96533 22.4242 9.488C23.0962 10.0107 23.4749 10.704 23.5602 11.568H21.9602C21.9069 11.1413 21.6829 10.768 21.2882 10.448C20.8935 10.1173 20.3709 9.952 19.7202 9.952C19.1122 9.952 18.6162 10.112 18.2322 10.432C17.8482 10.7413 17.6562 11.1787 17.6562 11.744C17.6562 12.1493 17.7682 12.48 17.9922 12.736C18.2269 12.992 18.5095 13.1893 18.8402 13.328C19.1815 13.456 19.6562 13.6053 20.2642 13.776C21.0002 13.9787 21.5922 14.1813 22.0402 14.384C22.4882 14.576 22.8722 14.88 23.1922 15.296C23.5122 15.7013 23.6722 16.256 23.6722 16.96C23.6722 17.504 23.5282 18.016 23.2402 18.496C22.9522 18.976 22.5255 19.3653 21.9602 19.664C21.3949 19.9627 20.7282 20.112 19.9602 20.112ZM32.3788 8.848V10.032H29.3388V20H27.8828V10.032H24.8268V8.848H32.3788ZM35.3271 10.032V13.76H39.3911V14.96H35.3271V18.8H39.8711V20H33.8711V8.832H39.8711V10.032H35.3271ZM49.2302 12.112C49.2302 13.04 48.9102 13.8133 48.2702 14.432C47.6409 15.04 46.6755 15.344 45.3742 15.344H43.2302V20H41.7742V8.848H45.3742C46.6329 8.848 47.5875 9.152 48.2382 9.76C48.8995 10.368 49.2302 11.152 49.2302 12.112ZM45.3742 14.144C46.1849 14.144 46.7822 13.968 47.1662 13.616C47.5502 13.264 47.7422 12.7627 47.7422 12.112C47.7422 10.736 46.9529 10.048 45.3742 10.048H43.2302V14.144H45.3742Z" fill="#0D4566"/>
<path d="M25.4761 70.62V67.032L33.6921 55.28H38.6581V66.772H40.7901V70.62H38.6581V74H34.2121V70.62H25.4761ZM34.5241 60.168L30.1561 66.772H34.5241V60.168Z" fill="#0D4566"/>
<circle cx="32.5" cy="64.5" r="32.25" stroke="#0D4566" stroke-opacity="0.5" stroke-width="0.5"/>
</svg>
