<svg width="21" height="21" viewBox="0 0 21 21" fill="none" xmlns="http://www.w3.org/2000/svg">
<path d="M19.078 11.5676H3.26994V4.15751C3.26917 3.87845 3.32377 3.60202 3.43056 3.3442C3.53735 3.08639 3.69422 2.85231 3.89209 2.65554L3.90856 2.63907C4.21865 2.32943 4.61678 2.12308 5.04856 2.0482C5.48033 1.97333 5.92469 2.03358 6.32094 2.22073C5.94672 2.84292 5.79118 3.57234 5.87903 4.29306C5.96688 5.01379 6.29308 5.68448 6.8058 6.19857L7.25662 6.64939L6.42682 7.47923L7.35826 8.41067L8.18806 7.58087L12.786 2.98306L13.6158 2.15326L12.6843 1.22177L11.8544 2.05158L11.4036 1.60076C10.8639 1.06251 10.1524 0.730719 9.39309 0.663195C8.63383 0.595671 7.87494 0.796697 7.24868 1.23124C6.58828 0.814187 5.80568 0.634141 5.02943 0.720682C4.25318 0.807223 3.52944 1.1552 2.97712 1.70746L2.96065 1.72393C2.64006 2.04276 2.38589 2.42202 2.21286 2.83975C2.03983 3.25747 1.95136 3.70537 1.95259 4.15751V11.5676H0.635254V12.8849H1.95259V14.1487C1.95257 14.2549 1.96969 14.3604 2.00331 14.4611L3.22877 18.1373C3.29417 18.3342 3.41992 18.5054 3.58816 18.6266C3.7564 18.7479 3.95858 18.8131 4.16598 18.8129H4.69703L4.21677 20.4596H5.58899L6.06929 18.8129H14.6361L15.1301 20.4596H16.5051L16.0111 18.8129H16.8645C17.0719 18.8131 17.2741 18.748 17.4424 18.6267C17.6107 18.5054 17.7364 18.3342 17.8019 18.1373L19.0272 14.4611C19.0609 14.3604 19.078 14.2549 19.078 14.1487V12.8849H20.3954V11.5676H19.078ZM7.73737 2.53224C8.10029 2.17011 8.59205 1.96673 9.10475 1.96673C9.61744 1.96673 10.1092 2.17011 10.4721 2.53224L10.9229 2.98306L8.18819 5.71774L7.73737 5.267C7.37525 4.90406 7.17189 4.41231 7.17189 3.89962C7.17189 3.38693 7.37525 2.89518 7.73737 2.53224ZM17.7607 14.0952L16.6273 17.4956H4.40334L3.26994 14.0952V12.8849H17.7607V14.0952Z" fill="#0D4566"/>
</svg>
