<svg width="21" height="17" viewBox="0 0 21 17" fill="none" xmlns="http://www.w3.org/2000/svg">
<path fill-rule="evenodd" clip-rule="evenodd" d="M5.2434 0.650146H15.8373C16.4916 0.652104 17.1186 0.91289 17.5813 1.37555C18.0439 1.83822 18.3047 2.46516 18.3067 3.11946L18.3067 3.12157L18.3067 7.71137C18.3067 8.10135 17.9905 8.41749 17.6005 8.41749H3.47809C3.08811 8.41749 2.77197 8.10135 2.77197 7.71137V3.11946C2.77393 2.46516 3.03472 1.83822 3.49738 1.37555C3.96004 0.91289 4.58699 0.652104 5.24129 0.65015L5.2434 0.650146ZM5.24459 2.06239C4.9637 2.06347 4.69462 2.17553 4.49599 2.37416C4.29736 2.57279 4.1853 2.84188 4.18422 3.12276V7.00524H16.8944V3.12288C16.8934 2.84196 16.7813 2.57282 16.5826 2.37416C16.384 2.17553 16.1149 2.06347 15.834 2.06239H5.24459Z" fill="#0D4566"/>
<path fill-rule="evenodd" clip-rule="evenodd" d="M4.18233 7.00538L4.18442 7.00537L16.8967 7.00537C17.8317 7.00814 18.7276 7.38078 19.3887 8.04191C20.0498 8.70304 20.4225 9.59893 20.4252 10.5339L20.4252 10.536L20.4252 15.4788C20.4252 15.8688 20.1091 16.185 19.7191 16.185C19.3291 16.185 19.013 15.8688 19.013 15.4788V10.5372C19.0111 9.97566 18.7872 9.43762 18.3901 9.04052C17.993 8.64344 17.455 8.41953 16.8935 8.41762H4.18554C3.62402 8.41953 3.08603 8.64344 2.68895 9.04052C2.29188 9.43759 2.06797 9.97559 2.06605 10.5371V15.4788C2.06605 15.8688 1.74991 16.185 1.35993 16.185C0.96995 16.185 0.653809 15.8688 0.653809 15.4788V10.5339C0.656572 9.59893 1.02922 8.70304 1.69034 8.04191C2.35147 7.38078 3.24736 7.00814 4.18233 7.00538Z" fill="#0D4566"/>
<path fill-rule="evenodd" clip-rule="evenodd" d="M2.41911 13.3604H18.662C19.1292 13.3617 19.5769 13.5479 19.9073 13.8783C20.2377 14.2087 20.4239 14.6564 20.4252 15.1236L20.4252 15.1257L20.4252 15.4787C20.4252 15.8687 20.1091 16.1848 19.7191 16.1848C19.3291 16.1848 19.013 15.8687 19.013 15.4787V15.127C19.0125 15.0332 18.975 14.9433 18.9087 14.8769C18.8423 14.8105 18.7524 14.7731 18.6586 14.7726H2.42041C2.32658 14.7731 2.23672 14.8105 2.17036 14.8769C2.104 14.9433 2.06652 15.0331 2.06605 15.127V15.4787C2.06605 15.8687 1.74991 16.1848 1.35993 16.1848C0.96995 16.1848 0.653809 15.8687 0.653809 15.4787V15.1236C0.655165 14.6564 0.841375 14.2087 1.17175 13.8783C1.50214 13.5479 1.94984 13.3617 2.41706 13.3604L2.41911 13.3604Z" fill="#0D4566"/>
<path fill-rule="evenodd" clip-rule="evenodd" d="M5.59639 4.88696H9.12898C9.6898 4.88853 10.2272 5.11202 10.6238 5.50858C11.0203 5.90514 11.2438 6.44253 11.2454 7.00335L11.2454 7.00533L11.2454 7.71145C11.2454 8.10143 10.9292 8.41757 10.5392 8.41757C10.1493 8.41757 9.83313 8.10143 9.83313 7.71145V7.00651C9.83239 6.81916 9.75764 6.63968 9.62515 6.50718C9.49266 6.3747 9.31319 6.29995 9.12585 6.29921H5.59755C5.41021 6.29995 5.23074 6.3747 5.09825 6.50718C4.96576 6.63967 4.89101 6.81914 4.89027 7.00648V7.71145C4.89027 8.10143 4.57413 8.41757 4.18415 8.41757C3.79417 8.41757 3.47803 8.10143 3.47803 7.71145V7.00335C3.4796 6.44253 3.70308 5.90514 4.09964 5.50858C4.4962 5.11202 5.0336 4.88854 5.59442 4.88697L5.59639 4.88696Z" fill="#0D4566"/>
<path fill-rule="evenodd" clip-rule="evenodd" d="M11.9514 4.88696H15.484C16.0448 4.88853 16.5822 5.11202 16.9787 5.50858C17.3753 5.90514 17.5988 6.44253 17.6003 7.00335L17.6004 7.00533L17.6004 7.71145C17.6004 8.10143 17.2842 8.41757 16.8942 8.41757C16.5042 8.41757 16.1881 8.10143 16.1881 7.71145V7.00651C16.1874 6.81916 16.1126 6.63968 15.9801 6.50718C15.8476 6.3747 15.6682 6.29995 15.4808 6.29921H11.9525C11.7652 6.29995 11.5857 6.3747 11.4532 6.50718C11.3207 6.63967 11.246 6.81914 11.2453 7.00648V7.71145C11.2453 8.10143 10.9291 8.41757 10.5391 8.41757C10.1491 8.41757 9.83301 8.10143 9.83301 7.71145V7.00335C9.83458 6.44253 10.0581 5.90514 10.4546 5.50858C10.8512 5.11202 11.3886 4.88854 11.9494 4.88697L11.9514 4.88696Z" fill="#0D4566"/>
</svg>
