<svg width="19" height="21" viewBox="0 0 19 21" fill="none" xmlns="http://www.w3.org/2000/svg">
<path d="M16.9899 0.650391H7.17838C6.09617 0.650391 5.21608 1.53048 5.21608 2.61269V8.09339L0.597814 12.7117C0.460641 12.8489 0.367229 13.0237 0.329388 13.214C0.291548 13.4043 0.310978 13.6015 0.385221 13.7808C0.459465 13.96 0.585189 14.1132 0.746499 14.2211C0.90781 14.3289 1.09746 14.3864 1.29149 14.3865V19.2922C1.29149 19.5524 1.39486 19.802 1.57886 19.986C1.76286 20.17 2.01242 20.2734 2.27264 20.2734H17.971C18.2312 20.2734 18.4808 20.17 18.6648 19.986C18.8488 19.802 18.9522 19.5524 18.9522 19.2922V2.61269C18.9522 1.53048 18.0721 0.650391 16.9899 0.650391ZM9.14068 18.3111H3.25378V12.8304L6.19723 9.88693L9.14068 12.8304V18.3111ZM16.9899 18.3111H11.103V14.3865C11.2972 14.3869 11.4872 14.3296 11.6488 14.2219C11.8104 14.1141 11.9364 13.9608 12.0107 13.7814C12.085 13.6019 12.1044 13.4044 12.0663 13.214C12.0281 13.0235 11.9343 12.8487 11.7966 12.7117L7.17838 8.09339V2.61269H16.9899V18.3111Z" fill="#0D4566"/>
<path d="M9.1409 4.57495H11.1032V6.53725H9.1409V4.57495ZM13.0655 4.57495H15.0278V6.53725H13.0655V4.57495ZM13.0655 8.52996H15.0278V10.4618H13.0655V8.52996ZM13.0655 12.4241H15.0278V14.3864H13.0655V12.4241ZM5.21631 13.4053H7.17861V15.3676H5.21631V13.4053Z" fill="#0D4566"/>
</svg>
