<svg width="29" height="27" viewBox="0 0 29 27" fill="none" xmlns="http://www.w3.org/2000/svg">
<path d="M27.1631 8.90773L25.1836 2.9678C24.8964 2.10319 24.3441 1.35106 23.6051 0.81829C22.8661 0.285516 21.9779 -0.000807724 21.0669 1.71148e-06H7.87313C6.96208 -0.000807724 6.07395 0.285516 5.33492 0.81829C4.5959 1.35106 4.04357 2.10319 3.75641 2.9678L1.77692 8.90773C1.25109 9.12837 0.802039 9.49921 0.485967 9.97383C0.169896 10.4485 0.000852412 11.0058 0 11.576V18.811C0 19.9006 0.612081 20.8397 1.50343 21.3331C1.48462 21.4286 1.447 21.5154 1.447 21.6153V24.599C1.447 24.9828 1.59945 25.3508 1.87082 25.6222C2.14218 25.8936 2.51023 26.046 2.894 26.046H4.341C4.72477 26.046 5.09282 25.8936 5.36418 25.6222C5.63555 25.3508 5.788 24.9828 5.788 24.599V21.705H23.152V24.599C23.152 24.9828 23.3045 25.3508 23.5758 25.6222C23.8472 25.8936 24.2152 26.046 24.599 26.046H26.046C26.4298 26.046 26.7978 25.8936 27.0692 25.6222C27.3405 25.3508 27.493 24.9828 27.493 24.599V21.6153C27.493 21.5154 27.4554 21.4272 27.4366 21.3331C27.8901 21.0859 28.2688 20.7214 28.5333 20.2777C28.7978 19.8341 28.9382 19.3275 28.94 18.811V11.576C28.94 10.3764 28.2049 9.34617 27.1631 8.90773ZM2.894 18.811V11.576H26.046L26.0489 18.811H2.894ZM7.87313 2.894H21.0654C21.6891 2.894 22.2418 3.29048 22.4386 3.88375L24.039 8.682H4.90099L6.49992 3.88375C6.59593 3.5955 6.78023 3.34478 7.0267 3.16713C7.27317 2.98949 7.56931 2.89393 7.87313 2.894Z" fill="#0D4566"/>
<path d="M6.51132 17.3639C7.71005 17.3639 8.68182 16.3922 8.68182 15.1934C8.68182 13.9947 7.71005 13.0229 6.51132 13.0229C5.31259 13.0229 4.34082 13.9947 4.34082 15.1934C4.34082 16.3922 5.31259 17.3639 6.51132 17.3639Z" fill="#0D4566"/>
<path d="M22.4286 17.3639C23.6273 17.3639 24.5991 16.3922 24.5991 15.1934C24.5991 13.9947 23.6273 13.0229 22.4286 13.0229C21.2298 13.0229 20.2581 13.9947 20.2581 15.1934C20.2581 16.3922 21.2298 17.3639 22.4286 17.3639Z" fill="#0D4566"/>
</svg>
