<svg width="16" height="11" viewBox="0 0 16 11" fill="none" xmlns="http://www.w3.org/2000/svg">
<path fill-rule="evenodd" clip-rule="evenodd" d="M15.0009 5.50063C15.0009 5.36802 14.9482 5.24085 14.8544 5.14708C14.7607 5.05331 14.6335 5.00063 14.5009 5.00063H2.70789L5.85489 1.85463C5.90138 1.80814 5.93826 1.75295 5.96342 1.69222C5.98858 1.63148 6.00153 1.56638 6.00153 1.50063C6.00153 1.43489 5.98858 1.36979 5.96342 1.30905C5.93826 1.24831 5.90138 1.19312 5.85489 1.14663C5.80841 1.10014 5.75322 1.06327 5.69248 1.03811C5.63174 1.01295 5.56664 1 5.50089 1C5.43515 1 5.37005 1.01295 5.30931 1.03811C5.24857 1.06327 5.19338 1.10014 5.14689 1.14663L1.14689 5.14663C1.10033 5.19308 1.06339 5.24825 1.03818 5.309C1.01297 5.36974 1 5.43486 1 5.50063C1 5.5664 1.01297 5.63152 1.03818 5.69226C1.06339 5.75301 1.10033 5.80819 1.14689 5.85463L5.14689 9.85463C5.19338 9.90112 5.24857 9.938 5.30931 9.96315C5.37005 9.98831 5.43515 10.0013 5.50089 10.0013C5.56664 10.0013 5.63174 9.98831 5.69248 9.96315C5.75322 9.938 5.80841 9.90112 5.85489 9.85463C5.90138 9.80814 5.93826 9.75295 5.96342 9.69221C5.98858 9.63148 6.00153 9.56637 6.00153 9.50063C6.00153 9.43489 5.98858 9.36979 5.96342 9.30905C5.93826 9.24831 5.90138 9.19312 5.85489 9.14663L2.70789 6.00063H14.5009C14.6335 6.00063 14.7607 5.94795 14.8544 5.85419C14.9482 5.76042 15.0009 5.63324 15.0009 5.50063Z" fill="white" stroke="#3AAA35"/>
</svg>
