<svg width="18" height="21" viewBox="0 0 18 21" fill="none" xmlns="http://www.w3.org/2000/svg">
<path d="M8.71619 0.806641C10.968 0.806641 13.1277 1.70118 14.7199 3.29348C16.3122 4.88578 17.2068 7.04539 17.2068 9.29724C17.2068 13.3543 14.4686 17.0888 9.09543 20.5077C8.98204 20.5797 8.8505 20.6179 8.71619 20.6179C8.58187 20.6179 8.45033 20.5797 8.33694 20.5077C2.9638 17.0888 0.225586 13.3543 0.225586 9.29724C0.225586 7.04539 1.12013 4.88578 2.71243 3.29348C4.30472 1.70118 6.46434 0.806641 8.71619 0.806641ZM8.71619 2.22174C6.83965 2.22174 5.03997 2.96719 3.71305 4.29411C2.38614 5.62102 1.64069 7.4207 1.64069 9.29724C1.64069 12.5873 3.81994 15.7473 8.26335 18.7671L8.71619 19.0685L9.16902 18.7671C13.6124 15.7473 15.7917 12.5873 15.7917 9.29724C15.7917 7.4207 15.0462 5.62102 13.7193 4.29411C12.3924 2.96719 10.5927 2.22174 8.71619 2.22174ZM8.71619 7.17459C8.99494 7.17459 9.27096 7.2295 9.52849 7.33617C9.78602 7.44284 10.02 7.5992 10.2171 7.7963C10.4142 7.99341 10.5706 8.22741 10.6773 8.48494C10.7839 8.74247 10.8388 9.01849 10.8388 9.29724C10.8388 9.57599 10.7839 9.85201 10.6773 10.1095C10.5706 10.3671 10.4142 10.6011 10.2171 10.7982C10.02 10.9953 9.78602 11.1516 9.52849 11.2583C9.27096 11.365 8.99494 11.4199 8.71619 11.4199C8.15322 11.4199 7.61332 11.1963 7.21525 10.7982C6.81717 10.4001 6.59354 9.8602 6.59354 9.29724C6.59354 8.73428 6.81717 8.19438 7.21525 7.7963C7.61332 7.39823 8.15322 7.17459 8.71619 7.17459Z" fill="#0D4566"/>
</svg>
