<svg width="8" height="16" viewBox="0 0 8 16" fill="none" xmlns="http://www.w3.org/2000/svg">
<path d="M6.05757 14.9999C6.29122 15.0004 6.51765 14.919 6.69757 14.7699C6.79882 14.686 6.88253 14.5829 6.94388 14.4665C7.00523 14.3502 7.04303 14.2229 7.0551 14.0919C7.06718 13.9609 7.0533 13.8289 7.01425 13.7033C6.97521 13.5777 6.91177 13.461 6.82757 13.3599L2.34757 7.99994L6.66757 2.62994C6.75063 2.52765 6.81266 2.40996 6.8501 2.28362C6.88753 2.15728 6.89962 2.02479 6.88568 1.89376C6.87174 1.76273 6.83205 1.63575 6.76887 1.52011C6.7057 1.40447 6.62029 1.30246 6.51757 1.21994C6.4141 1.1289 6.29293 1.06024 6.16167 1.01825C6.03041 0.976258 5.89188 0.961855 5.75479 0.97594C5.6177 0.990024 5.485 1.03229 5.36501 1.1001C5.24503 1.1679 5.14036 1.25977 5.05757 1.36994L0.227566 7.36994C0.0804844 7.54887 7.86781e-05 7.77332 7.86781e-05 8.00494C7.86781e-05 8.23657 0.0804844 8.46101 0.227566 8.63994L5.22757 14.6399C5.32788 14.761 5.45532 14.8566 5.59953 14.9192C5.74374 14.9817 5.90066 15.0094 6.05757 14.9999Z" fill="#006633"/>
</svg>
