<svg width="206" height="463" viewBox="0 0 206 463" fill="none" xmlns="http://www.w3.org/2000/svg">
<g opacity="0.5">
<circle cx="2.5" cy="2.5" r="2.5" fill="#FFAC33"/>
<circle cx="2.5" cy="33.7402" r="2.5" fill="#FFAC33"/>
<circle cx="2.5" cy="64.9803" r="2.5" fill="#FFAC33"/>
<circle cx="2.5" cy="96.2205" r="2.5" fill="#FFAC33"/>
<circle cx="2.5" cy="127.461" r="2.5" fill="#FFAC33"/>
<circle cx="2.5" cy="158.701" r="2.5" fill="#FFAC33"/>
<circle cx="2.5" cy="189.941" r="2.5" fill="#FFAC33"/>
<circle cx="2.5" cy="221.181" r="2.5" fill="#FFAC33"/>
<circle cx="42.5264" cy="2.5" r="2.5" fill="#FFAC33"/>
<circle cx="42.5264" cy="33.7402" r="2.5" fill="#FFAC33"/>
<circle cx="42.5264" cy="64.9803" r="2.5" fill="#FFAC33"/>
<circle cx="42.5264" cy="96.2205" r="2.5" fill="#FFAC33"/>
<circle cx="42.5264" cy="127.461" r="2.5" fill="#FFAC33"/>
<circle cx="42.5264" cy="158.701" r="2.5" fill="#FFAC33"/>
<circle cx="42.5264" cy="189.941" r="2.5" fill="#FFAC33"/>
<circle cx="42.5264" cy="221.181" r="2.5" fill="#FFAC33"/>
<circle cx="82.5527" cy="2.5" r="2.5" fill="#FFAC33"/>
<circle cx="82.5527" cy="33.7402" r="2.5" fill="#FFAC33"/>
<circle cx="82.5527" cy="64.9803" r="2.5" fill="#FFAC33"/>
<circle cx="82.5527" cy="96.2205" r="2.5" fill="#FFAC33"/>
<circle cx="82.5527" cy="127.461" r="2.5" fill="#FFAC33"/>
<circle cx="82.5527" cy="158.701" r="2.5" fill="#FFAC33"/>
<circle cx="82.5527" cy="189.941" r="2.5" fill="#FFAC33"/>
<circle cx="82.5527" cy="221.181" r="2.5" fill="#FFAC33"/>
<circle cx="122.58" cy="2.5" r="2.5" fill="#FFAC33"/>
<circle cx="122.58" cy="33.7402" r="2.5" fill="#FFAC33"/>
<circle cx="122.58" cy="64.9803" r="2.5" fill="#FFAC33"/>
<circle cx="122.58" cy="96.2205" r="2.5" fill="#FFAC33"/>
<circle cx="122.58" cy="127.461" r="2.5" fill="#FFAC33"/>
<circle cx="122.58" cy="158.701" r="2.5" fill="#FFAC33"/>
<circle cx="122.58" cy="189.941" r="2.5" fill="#FFAC33"/>
<circle cx="122.58" cy="221.181" r="2.5" fill="#FFAC33"/>
<circle cx="162.605" cy="2.5" r="2.5" fill="#FFAC33"/>
<circle cx="162.605" cy="33.7402" r="2.5" fill="#FFAC33"/>
<circle cx="162.605" cy="64.9803" r="2.5" fill="#FFAC33"/>
<circle cx="162.605" cy="96.2205" r="2.5" fill="#FFAC33"/>
<circle cx="162.605" cy="127.461" r="2.5" fill="#FFAC33"/>
<circle cx="162.605" cy="158.701" r="2.5" fill="#FFAC33"/>
<circle cx="162.605" cy="189.941" r="2.5" fill="#FFAC33"/>
<circle cx="162.605" cy="221.181" r="2.5" fill="#FFAC33"/>
<circle cx="202.633" cy="2.5" r="2.5" fill="#FFAC33"/>
<circle cx="202.633" cy="33.7402" r="2.5" fill="#FFAC33"/>
<circle cx="202.633" cy="64.9803" r="2.5" fill="#FFAC33"/>
<circle cx="202.633" cy="96.2205" r="2.5" fill="#FFAC33"/>
<circle cx="202.633" cy="127.461" r="2.5" fill="#FFAC33"/>
<circle cx="202.633" cy="158.701" r="2.5" fill="#FFAC33"/>
<circle cx="202.633" cy="189.941" r="2.5" fill="#FFAC33"/>
<circle cx="202.633" cy="221.181" r="2.5" fill="#FFAC33"/>
</g>
<g opacity="0.5">
<circle cx="2.5" cy="241.5" r="2.5" fill="#FFAC33"/>
<circle cx="2.5" cy="272.74" r="2.5" fill="#FFAC33"/>
<circle cx="2.5" cy="303.98" r="2.5" fill="#FFAC33"/>
<circle cx="2.5" cy="335.22" r="2.5" fill="#FFAC33"/>
<circle cx="2.5" cy="366.461" r="2.5" fill="#FFAC33"/>
<circle cx="2.5" cy="397.701" r="2.5" fill="#FFAC33"/>
<circle cx="2.5" cy="428.941" r="2.5" fill="#FFAC33"/>
<circle cx="2.5" cy="460.181" r="2.5" fill="#FFAC33"/>
<circle cx="42.5264" cy="241.5" r="2.5" fill="#FFAC33"/>
<circle cx="42.5264" cy="272.74" r="2.5" fill="#FFAC33"/>
<circle cx="42.5264" cy="303.98" r="2.5" fill="#FFAC33"/>
<circle cx="42.5264" cy="335.22" r="2.5" fill="#FFAC33"/>
<circle cx="42.5264" cy="366.461" r="2.5" fill="#FFAC33"/>
<circle cx="42.5264" cy="397.701" r="2.5" fill="#FFAC33"/>
<circle cx="42.5264" cy="428.941" r="2.5" fill="#FFAC33"/>
<circle cx="42.5264" cy="460.181" r="2.5" fill="#FFAC33"/>
<circle cx="82.5527" cy="241.5" r="2.5" fill="#FFAC33"/>
<circle cx="82.5527" cy="272.74" r="2.5" fill="#FFAC33"/>
<circle cx="82.5527" cy="303.98" r="2.5" fill="#FFAC33"/>
<circle cx="82.5527" cy="335.22" r="2.5" fill="#FFAC33"/>
<circle cx="82.5527" cy="366.461" r="2.5" fill="#FFAC33"/>
<circle cx="82.5527" cy="397.701" r="2.5" fill="#FFAC33"/>
<circle cx="82.5527" cy="428.941" r="2.5" fill="#FFAC33"/>
<circle cx="82.5527" cy="460.181" r="2.5" fill="#FFAC33"/>
<circle cx="122.58" cy="241.5" r="2.5" fill="#FFAC33"/>
<circle cx="122.58" cy="272.74" r="2.5" fill="#FFAC33"/>
<circle cx="122.58" cy="303.98" r="2.5" fill="#FFAC33"/>
<circle cx="122.58" cy="335.22" r="2.5" fill="#FFAC33"/>
<circle cx="122.58" cy="366.461" r="2.5" fill="#FFAC33"/>
<circle cx="122.58" cy="397.701" r="2.5" fill="#FFAC33"/>
<circle cx="122.58" cy="428.941" r="2.5" fill="#FFAC33"/>
<circle cx="122.58" cy="460.181" r="2.5" fill="#FFAC33"/>
<circle cx="162.605" cy="241.5" r="2.5" fill="#FFAC33"/>
<circle cx="162.605" cy="272.74" r="2.5" fill="#FFAC33"/>
<circle cx="162.605" cy="303.98" r="2.5" fill="#FFAC33"/>
<circle cx="162.605" cy="335.22" r="2.5" fill="#FFAC33"/>
<circle cx="162.605" cy="366.461" r="2.5" fill="#FFAC33"/>
<circle cx="162.605" cy="397.701" r="2.5" fill="#FFAC33"/>
<circle cx="162.605" cy="428.941" r="2.5" fill="#FFAC33"/>
<circle cx="162.605" cy="460.181" r="2.5" fill="#FFAC33"/>
<circle cx="202.633" cy="241.5" r="2.5" fill="#FFAC33"/>
<circle cx="202.633" cy="272.74" r="2.5" fill="#FFAC33"/>
<circle cx="202.633" cy="303.98" r="2.5" fill="#FFAC33"/>
<circle cx="202.633" cy="335.22" r="2.5" fill="#FFAC33"/>
<circle cx="202.633" cy="366.461" r="2.5" fill="#FFAC33"/>
<circle cx="202.633" cy="397.701" r="2.5" fill="#FFAC33"/>
<circle cx="202.633" cy="428.941" r="2.5" fill="#FFAC33"/>
<circle cx="202.633" cy="460.181" r="2.5" fill="#FFAC33"/>
</g>
</svg>
