<svg width="30" height="17" viewBox="0 0 30 17" fill="none" xmlns="http://www.w3.org/2000/svg">
<path d="M21.8605 0.191454C21.622 0.446509 21.622 0.86045 21.8605 1.1154L27.9158 7.5965H0.610499C0.273402 7.5965 0 7.88913 0 8.24993C0 8.61073 0.273402 8.90336 0.610499 8.90336H27.9157L21.8603 15.3846C21.622 15.6396 21.6219 16.0535 21.8604 16.3086C22.0988 16.5638 22.4854 16.5638 22.7238 16.3085L29.8212 8.7119C29.9404 8.58438 30 8.4171 30 8.24993C30 8.08277 29.9404 7.91549 29.8211 7.78796L22.7237 0.191454C22.4854 -0.0638181 22.0988 -0.0638181 21.8605 0.191454Z" fill="#006633"/>
</svg>
