<svg width="31" height="18" viewBox="0 0 31 18" fill="none" xmlns="http://www.w3.org/2000/svg">
<path d="M8.6395 0.941454C8.878 1.19651 8.878 1.61045 8.6395 1.8654L2.5842 8.3465H29.8895C30.2266 8.3465 30.5 8.63913 30.5 8.99993C30.5 9.36073 30.2266 9.65336 29.8895 9.65336H2.5843L8.6397 16.1346C8.878 16.3896 8.8781 16.8035 8.6396 17.0586C8.4012 17.3138 8.0146 17.3138 7.7762 17.0585L0.678801 9.4619C0.559601 9.33438 0.5 9.1671 0.5 8.99993C0.5 8.83277 0.559599 8.66549 0.6789 8.53796L7.7763 0.941454C8.0146 0.686182 8.4012 0.686182 8.6395 0.941454Z" fill="#005229"/>
</svg>
