<svg width="106" height="40" viewBox="0 0 106 40" fill="none" xmlns="http://www.w3.org/2000/svg">
<path opacity="0.5" fill-rule="evenodd" clip-rule="evenodd" d="M3.18981 17.1107C4.9515 17.1107 6.37963 18.4041 6.37963 19.9996C6.37963 21.5951 4.9515 22.8885 3.18981 22.8885C1.42813 22.8885 -7.8506e-07 21.5951 -8.54801e-07 19.9996C-9.24542e-07 18.4041 1.42813 17.1107 3.18981 17.1107ZM6.37963 36.6663C6.37963 35.0708 4.9515 33.7774 3.18982 33.7774C1.42813 33.7774 2.71808e-06 35.0708 2.78782e-06 36.6663C2.85756e-06 38.2618 1.42813 39.5552 3.18982 39.5552C4.9515 39.5552 6.37963 38.2618 6.37963 36.6663ZM20.6115 36.6663C20.6115 35.0708 19.1834 33.7774 17.4217 33.7774C15.66 33.7774 14.2319 35.0708 14.2319 36.6663C14.2319 38.2618 15.66 39.5552 17.4217 39.5552C19.1834 39.5552 20.6115 38.2618 20.6115 36.6663ZM31.6532 33.7774C33.4148 33.7774 34.843 35.0708 34.843 36.6663C34.843 38.2618 33.4148 39.5552 31.6532 39.5552C29.8915 39.5552 28.4633 38.2618 28.4633 36.6663C28.4633 35.0708 29.8915 33.7774 31.6532 33.7774ZM49.0749 36.6663C49.0749 35.0708 47.6468 33.7774 45.8851 33.7774C44.1234 33.7774 42.6953 35.0708 42.6953 36.6663C42.6953 38.2618 44.1234 39.5552 45.8851 39.5552C47.6468 39.5552 49.0749 38.2618 49.0749 36.6663ZM60.1165 33.7774C61.8782 33.7774 63.3063 35.0708 63.3063 36.6663C63.3063 38.2618 61.8782 39.5552 60.1165 39.5552C58.3548 39.5552 56.9267 38.2618 56.9267 36.6663C56.9267 35.0708 58.3548 33.7774 60.1165 33.7774ZM77.5377 36.6663C77.5377 35.0708 76.1096 33.7774 74.3479 33.7774C72.5862 33.7774 71.1581 35.0708 71.1581 36.6663C71.1581 38.2618 72.5862 39.5552 74.3479 39.5552C76.1096 39.5552 77.5377 38.2618 77.5377 36.6663ZM88.5798 33.7774C90.3415 33.7774 91.7697 35.0708 91.7697 36.6663C91.7697 38.2618 90.3415 39.5552 88.5798 39.5552C86.8182 39.5552 85.39 38.2618 85.39 36.6663C85.39 35.0708 86.8182 33.7774 88.5798 33.7774ZM106.001 36.6663C106.001 35.0708 104.573 33.7774 102.811 33.7774C101.05 33.7774 99.6215 35.0708 99.6215 36.6663C99.6215 38.2618 101.05 39.5552 102.811 39.5552C104.573 39.5552 106.001 38.2618 106.001 36.6663ZM20.6115 19.9997C20.6115 18.4042 19.1834 17.1108 17.4217 17.1108C15.66 17.1108 14.2319 18.4042 14.2319 19.9997C14.2319 21.5951 15.66 22.8885 17.4217 22.8885C19.1834 22.8885 20.6115 21.5951 20.6115 19.9997ZM31.6532 17.1108C33.4148 17.1108 34.843 18.4042 34.843 19.9997C34.843 21.5951 33.4148 22.8885 31.6532 22.8885C29.8915 22.8885 28.4633 21.5951 28.4633 19.9997C28.4633 18.4042 29.8915 17.1108 31.6532 17.1108ZM49.0749 19.9997C49.0749 18.4042 47.6468 17.1108 45.8851 17.1108C44.1234 17.1108 42.6953 18.4042 42.6953 19.9997C42.6953 21.5951 44.1234 22.8885 45.8851 22.8885C47.6468 22.8885 49.0749 21.5951 49.0749 19.9997ZM60.1165 17.1108C61.8782 17.1108 63.3063 18.4042 63.3063 19.9997C63.3063 21.5951 61.8782 22.8885 60.1165 22.8885C58.3548 22.8885 56.9267 21.5951 56.9267 19.9997C56.9267 18.4042 58.3548 17.1108 60.1165 17.1108ZM77.5377 19.9997C77.5377 18.4042 76.1096 17.1108 74.3479 17.1108C72.5862 17.1108 71.1581 18.4042 71.1581 19.9997C71.1581 21.5951 72.5862 22.8885 74.3479 22.8885C76.1096 22.8885 77.5377 21.5951 77.5377 19.9997ZM88.5798 17.1108C90.3415 17.1108 91.7697 18.4042 91.7697 19.9996C91.7697 21.5951 90.3415 22.8885 88.5798 22.8885C86.8182 22.8885 85.39 21.5951 85.39 19.9996C85.39 18.4042 86.8182 17.1108 88.5798 17.1108ZM106.001 19.9996C106.001 18.4042 104.573 17.1108 102.811 17.1108C101.05 17.1108 99.6215 18.4042 99.6215 19.9996C99.6215 21.5951 101.05 22.8885 102.811 22.8885C104.573 22.8885 106.001 21.5951 106.001 19.9996ZM3.18981 0.444038C4.9515 0.444038 6.37962 1.73744 6.37962 3.33293C6.37962 4.92842 4.9515 6.22182 3.18981 6.22182C1.42813 6.22182 -1.51358e-06 4.92842 -1.58332e-06 3.33293C-1.65307e-06 1.73744 1.42813 0.444038 3.18981 0.444038ZM20.6115 3.33291C20.6115 1.73742 19.1834 0.444022 17.4217 0.444022C15.66 0.444022 14.2319 1.73742 14.2319 3.33291C14.2319 4.9284 15.66 6.2218 17.4217 6.2218C19.1834 6.2218 20.6115 4.9284 20.6115 3.33291ZM31.6532 0.444018C33.4148 0.444018 34.843 1.73742 34.843 3.33291C34.843 4.9284 33.4148 6.2218 31.6532 6.2218C29.8915 6.2218 28.4633 4.9284 28.4633 3.33291C28.4633 1.73742 29.8915 0.444018 31.6532 0.444018ZM49.0749 3.33291C49.0749 1.73742 47.6468 0.444017 45.8851 0.444017C44.1234 0.444017 42.6953 1.73742 42.6953 3.33291C42.6953 4.9284 44.1234 6.2218 45.8851 6.2218C47.6468 6.2218 49.0749 4.9284 49.0749 3.33291ZM60.1165 0.444139C61.8782 0.444139 63.3063 1.73754 63.3063 3.33303C63.3063 4.92852 61.8782 6.22192 60.1165 6.22192C58.3548 6.22192 56.9267 4.92852 56.9267 3.33303C56.9267 1.73754 58.3548 0.444139 60.1165 0.444139ZM77.5377 3.33302C77.5377 1.73753 76.1096 0.444134 74.3479 0.444134C72.5862 0.444134 71.1581 1.73753 71.1581 3.33302C71.1581 4.92851 72.5862 6.22191 74.3479 6.22191C76.1096 6.22191 77.5377 4.92851 77.5377 3.33302ZM88.5798 0.444134C90.3415 0.444134 91.7697 1.73753 91.7697 3.33302C91.7697 4.92851 90.3415 6.22191 88.5798 6.22191C86.8182 6.22191 85.39 4.92851 85.39 3.33302C85.39 1.73753 86.8182 0.444134 88.5798 0.444134ZM106.001 3.33302C106.001 1.73753 104.573 0.444133 102.811 0.444133C101.05 0.444133 99.6215 1.73753 99.6215 3.33302C99.6215 4.92851 101.05 6.22191 102.811 6.22191C104.573 6.22191 106.001 4.92851 106.001 3.33302Z" fill="#3AAA35"/>
</svg>
