<svg width="186" height="140" viewBox="0 0 186 140" fill="none" xmlns="http://www.w3.org/2000/svg">
<path opacity="0.2" fill-rule="evenodd" clip-rule="evenodd" d="M11.1656 134.417C11.1656 131.334 8.66613 128.834 5.58282 128.834C2.49951 128.834 -3.78809e-07 131.334 -2.44033e-07 134.417C-1.09257e-07 137.5 2.49951 140 5.58282 140C8.66613 140 11.1656 137.5 11.1656 134.417ZM36.0736 134.417C36.0736 131.334 33.5741 128.834 30.4908 128.834C27.4075 128.834 24.908 131.334 24.908 134.417C24.908 137.5 27.4075 140 30.4908 140C33.5741 140 36.0736 137.5 36.0736 134.417ZM55.3988 128.834C58.4821 128.834 60.9816 131.334 60.9816 134.417C60.9816 137.5 58.4821 140 55.3988 140C52.3155 140 49.816 137.5 49.816 134.417C49.816 131.334 52.3155 128.834 55.3988 128.834ZM85.8896 134.417C85.8896 131.334 83.3901 128.834 80.3067 128.834C77.2234 128.834 74.7239 131.334 74.7239 134.417C74.7239 137.5 77.2234 140 80.3067 140C83.3901 140 85.8896 137.5 85.8896 134.417ZM105.215 128.834C108.298 128.834 110.798 131.334 110.798 134.417C110.798 137.5 108.298 140 105.215 140C102.131 140 99.6319 137.5 99.6319 134.417C99.6319 131.334 102.131 128.834 105.215 128.834ZM135.706 134.417C135.706 131.334 133.206 128.834 130.123 128.834C127.039 128.834 124.54 131.334 124.54 134.417C124.54 137.5 127.039 140 130.123 140C133.206 140 135.706 137.5 135.706 134.417ZM155.031 128.834C158.114 128.834 160.613 131.334 160.613 134.417C160.613 137.5 158.114 140 155.031 140C151.947 140 149.448 137.5 149.448 134.417C149.448 131.334 151.947 128.834 155.031 128.834ZM185.521 134.417C185.521 131.334 183.022 128.834 179.939 128.834C176.855 128.834 174.356 131.334 174.356 134.417C174.356 137.5 176.855 140 179.939 140C183.022 140 185.521 137.5 185.521 134.417ZM5.58282 96.6258C8.66613 96.6258 11.1656 99.1253 11.1656 102.209C11.1656 105.292 8.66613 107.791 5.58282 107.791C2.49951 107.791 -1.51714e-06 105.292 -1.65191e-06 102.209C-1.78669e-06 99.1253 2.49951 96.6258 5.58282 96.6258ZM36.0736 102.209C36.0736 99.1253 33.5741 96.6258 30.4908 96.6258C27.4075 96.6258 24.908 99.1253 24.908 102.209C24.908 105.292 27.4075 107.791 30.4908 107.791C33.5741 107.791 36.0736 105.292 36.0736 102.209ZM55.3988 96.6258C58.4821 96.6258 60.9816 99.1253 60.9816 102.209C60.9816 105.292 58.4821 107.791 55.3988 107.791C52.3155 107.791 49.816 105.292 49.816 102.209C49.816 99.1253 52.3155 96.6258 55.3988 96.6258ZM85.8896 102.209C85.8896 99.1253 83.3901 96.6258 80.3067 96.6258C77.2234 96.6258 74.7239 99.1253 74.7239 102.209C74.7239 105.292 77.2234 107.791 80.3067 107.791C83.3901 107.791 85.8896 105.292 85.8896 102.209ZM105.215 96.6258C108.298 96.6258 110.798 99.1253 110.798 102.209C110.798 105.292 108.298 107.791 105.215 107.791C102.131 107.791 99.6319 105.292 99.6319 102.209C99.6319 99.1253 102.131 96.6258 105.215 96.6258ZM135.706 102.209C135.706 99.1253 133.206 96.6258 130.123 96.6258C127.039 96.6258 124.54 99.1253 124.54 102.209C124.54 105.292 127.039 107.791 130.123 107.791C133.206 107.791 135.706 105.292 135.706 102.209ZM155.031 96.6258C158.114 96.6258 160.613 99.1253 160.613 102.209C160.613 105.292 158.114 107.791 155.031 107.791C151.947 107.791 149.448 105.292 149.448 102.209C149.448 99.1253 151.947 96.6258 155.031 96.6258ZM185.521 102.209C185.521 99.1253 183.022 96.6258 179.939 96.6258C176.855 96.6258 174.356 99.1253 174.356 102.209C174.356 105.292 176.855 107.791 179.939 107.791C183.022 107.791 185.521 105.292 185.521 102.209ZM5.58282 64.4172C8.66613 64.4172 11.1656 66.9167 11.1656 70C11.1656 73.0833 8.66613 75.5828 5.58282 75.5828C2.49951 75.5828 -2.92502e-06 73.0833 -3.0598e-06 70C-3.19457e-06 66.9167 2.49951 64.4172 5.58282 64.4172ZM36.0736 70C36.0736 66.9167 33.5741 64.4172 30.4908 64.4172C27.4075 64.4172 24.908 66.9167 24.908 70C24.908 73.0833 27.4075 75.5828 30.4908 75.5828C33.5741 75.5828 36.0736 73.0833 36.0736 70ZM55.3988 64.4172C58.4821 64.4172 60.9816 66.9167 60.9816 70C60.9816 73.0833 58.4821 75.5828 55.3988 75.5828C52.3155 75.5828 49.8159 73.0833 49.8159 70C49.8159 66.9167 52.3155 64.4172 55.3988 64.4172ZM85.8896 70C85.8896 66.9167 83.39 64.4172 80.3067 64.4172C77.2234 64.4172 74.7239 66.9167 74.7239 70C74.7239 73.0833 77.2234 75.5828 80.3067 75.5828C83.39 75.5828 85.8896 73.0833 85.8896 70ZM105.215 64.4172C108.298 64.4172 110.798 66.9167 110.798 70C110.798 73.0833 108.298 75.5828 105.215 75.5828C102.131 75.5828 99.6319 73.0833 99.6319 70C99.6319 66.9167 102.131 64.4172 105.215 64.4172ZM135.706 70C135.706 66.9167 133.206 64.4172 130.123 64.4172C127.039 64.4172 124.54 66.9167 124.54 70C124.54 73.0833 127.039 75.5828 130.123 75.5828C133.206 75.5828 135.706 73.0833 135.706 70ZM155.031 64.4172C158.114 64.4172 160.613 66.9167 160.613 70C160.613 73.0833 158.114 75.5828 155.031 75.5828C151.947 75.5828 149.448 73.0833 149.448 70C149.448 66.9167 151.947 64.4172 155.031 64.4172ZM185.521 70C185.521 66.9167 183.022 64.4172 179.939 64.4172C176.855 64.4172 174.356 66.9167 174.356 70C174.356 73.0833 176.855 75.5828 179.939 75.5828C183.022 75.5828 185.521 73.0833 185.521 70ZM5.58282 32.2086C8.66613 32.2086 11.1656 34.7081 11.1656 37.7914C11.1656 40.8747 8.66613 43.3742 5.58282 43.3742C2.49951 43.3742 -4.3329e-06 40.8747 -4.46768e-06 37.7914C-4.60246e-06 34.7081 2.49951 32.2086 5.58282 32.2086ZM36.0736 37.7914C36.0736 34.7081 33.5741 32.2086 30.4908 32.2086C27.4075 32.2086 24.908 34.7081 24.908 37.7914C24.908 40.8747 27.4075 43.3742 30.4908 43.3742C33.5741 43.3742 36.0736 40.8747 36.0736 37.7914ZM55.3988 32.2086C58.4821 32.2086 60.9816 34.7081 60.9816 37.7914C60.9816 40.8747 58.4821 43.3742 55.3988 43.3742C52.3155 43.3742 49.8159 40.8747 49.8159 37.7914C49.8159 34.7081 52.3155 32.2086 55.3988 32.2086ZM85.8896 37.7914C85.8896 34.7081 83.39 32.2086 80.3067 32.2086C77.2234 32.2086 74.7239 34.7081 74.7239 37.7914C74.7239 40.8747 77.2234 43.3742 80.3067 43.3742C83.39 43.3742 85.8896 40.8747 85.8896 37.7914ZM105.215 32.2086C108.298 32.2086 110.798 34.7081 110.798 37.7914C110.798 40.8747 108.298 43.3742 105.215 43.3742C102.131 43.3742 99.6319 40.8747 99.6319 37.7914C99.6319 34.7081 102.131 32.2086 105.215 32.2086ZM135.706 37.7914C135.706 34.7081 133.206 32.2086 130.123 32.2086C127.039 32.2086 124.54 34.7081 124.54 37.7914C124.54 40.8747 127.039 43.3742 130.123 43.3742C133.206 43.3742 135.706 40.8747 135.706 37.7914ZM155.031 32.2086C158.114 32.2086 160.613 34.7081 160.613 37.7914C160.613 40.8747 158.114 43.3742 155.031 43.3742C151.947 43.3742 149.448 40.8747 149.448 37.7914C149.448 34.7081 151.947 32.2086 155.031 32.2086ZM185.521 37.7914C185.521 34.7081 183.022 32.2086 179.939 32.2086C176.855 32.2086 174.356 34.7081 174.356 37.7914C174.356 40.8747 176.855 43.3742 179.939 43.3742C183.022 43.3742 185.521 40.8747 185.521 37.7914ZM5.58282 -2.44033e-07C8.66612 -3.78809e-07 11.1656 2.49953 11.1656 5.58282C11.1656 8.66614 8.66612 11.1656 5.58282 11.1656C2.49951 11.1656 -5.74078e-06 8.66614 -5.87556e-06 5.58282C-6.01033e-06 2.49953 2.49951 -1.09257e-07 5.58282 -2.44033e-07ZM36.0736 5.58282C36.0736 2.49953 33.5741 -1.46757e-06 30.4908 -1.3328e-06C27.4075 -1.19802e-06 24.908 2.49953 24.908 5.58282C24.908 8.66614 27.4075 11.1656 30.4908 11.1656C33.5741 11.1656 36.0736 8.66614 36.0736 5.58282ZM55.3988 -2.42156e-06C58.4821 -2.55633e-06 60.9816 2.49952 60.9816 5.58282C60.9816 8.66614 58.4821 11.1656 55.3988 11.1656C52.3155 11.1656 49.8159 8.66614 49.8159 5.58282C49.8159 2.49952 52.3155 -2.28678e-06 55.3988 -2.42156e-06ZM85.8896 5.58282C85.8896 2.49952 83.39 -3.64509e-06 80.3067 -3.51032e-06C77.2234 -3.37554e-06 74.7239 2.49952 74.7239 5.58282C74.7239 8.66613 77.2234 11.1656 80.3067 11.1656C83.39 11.1656 85.8896 8.66613 85.8896 5.58282ZM105.215 -4.59908e-06C108.298 -4.73386e-06 110.798 2.49952 110.798 5.58282C110.798 8.66613 108.298 11.1656 105.215 11.1656C102.131 11.1656 99.6319 8.66613 99.6319 5.58282C99.6319 2.49952 102.131 -4.46431e-06 105.215 -4.59908e-06ZM135.706 5.58282C135.706 2.49952 133.206 -5.82262e-06 130.123 -5.68784e-06C127.039 -5.55307e-06 124.54 2.49952 124.54 5.58282C124.54 8.66613 127.039 11.1656 130.123 11.1656C133.206 11.1656 135.706 8.66613 135.706 5.58282ZM155.031 -6.77661e-06C158.114 -6.91138e-06 160.613 2.49952 160.613 5.58282C160.613 8.66613 158.114 11.1656 155.031 11.1656C151.947 11.1656 149.448 8.66613 149.448 5.58282C149.448 2.49952 151.947 -6.64183e-06 155.031 -6.77661e-06ZM185.521 5.58282C185.521 2.49952 183.022 -8.00014e-06 179.939 -7.86537e-06C176.855 -7.73059e-06 174.356 2.49952 174.356 5.58282C174.356 8.66613 176.855 11.1656 179.939 11.1656C183.022 11.1656 185.521 8.66613 185.521 5.58282Z" fill="#3AAA35"/>
</svg>
