<svg width="12" height="13" viewBox="0 0 12 13" fill="none" xmlns="http://www.w3.org/2000/svg">
<path d="M11 12.3261H10.9999L7.9995 12.3257C7.7344 12.3253 7.48026 12.2199 7.29282 12.0324C7.10538 11.8449 6.99994 11.5908 6.99963 11.3257V8.32562H4.99963V11.3256C4.99931 11.5907 4.89387 11.8449 4.70643 12.0323C4.51899 12.2198 4.26485 12.3253 3.99975 12.3256L1.00012 12.3261C0.868793 12.3261 0.738743 12.3003 0.617403 12.25C0.496063 12.1998 0.385809 12.1261 0.292938 12.0333C0.200066 11.9404 0.126395 11.8302 0.0761325 11.7088C0.02587 11.5875 -1.02603e-09 11.4575 0 11.3261V5.54737C0.000108957 5.40805 0.0292739 5.27028 0.0856321 5.14286C0.14199 5.01544 0.224303 4.90118 0.327312 4.80737L5.32688 0.261557C5.51052 0.0933405 5.75052 2.31422e-05 5.99957 4.30378e-09C6.24861 -2.31336e-05 6.48863 0.0932497 6.67231 0.261432L11.6728 4.80743C11.7757 4.90125 11.858 5.01551 11.9144 5.14291C11.9707 5.27031 11.9999 5.40806 12 5.54737V11.3261C12 11.5913 11.8946 11.8457 11.7071 12.0332C11.5196 12.2208 11.2652 12.3261 11 12.3261V12.3261ZM4.99963 7.32562H6.99963C7.26475 7.32592 7.51893 7.43137 7.7064 7.61884C7.89387 7.80631 7.99933 8.06049 7.99963 8.32562V11.3262L11 11.3261V5.54737L5.99963 1.00143L1 5.54731V11.3261L3.99963 11.3257V8.32562C3.99992 8.06049 4.10538 7.80631 4.29285 7.61884C4.48032 7.43137 4.7345 7.32592 4.99963 7.32562V7.32562Z" fill="#3AAA35"/>
</svg>
