<svg width="17" height="20" viewBox="0 0 17 20" fill="none" xmlns="http://www.w3.org/2000/svg">
<path d="M8.2 0.833336C10.3748 0.833336 12.4605 1.69726 13.9983 3.23506C15.5361 4.77286 16.4 6.85856 16.4 9.03334C16.4 12.9516 13.7555 16.5582 8.56627 19.8601C8.45676 19.9296 8.32972 19.9665 8.2 19.9665C8.07028 19.9665 7.94324 19.9296 7.83373 19.8601C2.6445 16.5582 0 12.9516 0 9.03334C0 6.85856 0.863926 4.77286 2.40172 3.23506C3.93952 1.69726 6.02522 0.833336 8.2 0.833336ZM8.2 2.2C6.38769 2.2 4.6496 2.91994 3.3681 4.20144C2.08661 5.48294 1.36667 7.22102 1.36667 9.03334C1.36667 12.2108 3.47133 15.2626 7.76267 18.1791L8.2 18.4702L8.63733 18.1791C12.9287 15.2626 15.0333 12.2108 15.0333 9.03334C15.0333 7.22102 14.3134 5.48294 13.0319 4.20144C11.7504 2.91994 10.0123 2.2 8.2 2.2ZM8.2 6.98334C8.46921 6.98334 8.73578 7.03636 8.9845 7.13938C9.23322 7.2424 9.45921 7.39341 9.64957 7.58377C9.83993 7.77413 9.99093 8.00012 10.094 8.24884C10.197 8.49755 10.25 8.76413 10.25 9.03334C10.25 9.30255 10.197 9.56912 10.094 9.81784C9.99093 10.0666 9.83993 10.2925 9.64957 10.4829C9.45921 10.6733 9.23322 10.8243 8.9845 10.9273C8.73578 11.0303 8.46921 11.0833 8.2 11.0833C7.65631 11.0833 7.13488 10.8674 6.75043 10.4829C6.36598 10.0985 6.15 9.57703 6.15 9.03334C6.15 8.48964 6.36598 7.96822 6.75043 7.58377C7.13488 7.19932 7.65631 6.98334 8.2 6.98334Z" fill="#3AAA35"/>
</svg>
