<svg width="10" height="11" viewBox="0 0 10 11" fill="none" xmlns="http://www.w3.org/2000/svg">
<path fill-rule="evenodd" clip-rule="evenodd" d="M8.05495 10.485H9.10495V6.485H10V5.58766H9.10495V3.39755H10V2.485H9.10495V0H8.05495V2.485H3.88827L2.24995 0H1.19995V2.485H0V3.39755H1.19995V5.58766H0V6.485H1.19995V10.485H2.24995V6.485H5.4223L8.05495 10.485ZM6.52541 6.485L8.05495 8.805V6.485H6.52541ZM8.05495 5.58766H5.93381L4.4899 3.39755H8.05495V5.58766ZM3.39025 3.39755L4.8317 5.58766H2.24995V3.39755H3.39025ZM2.78964 2.485L2.24995 1.665V2.485H2.78964Z" fill="#3AAA35"/>
</svg>
