<svg width="28" height="26" viewBox="0 0 28 26" fill="none" xmlns="http://www.w3.org/2000/svg">
<path d="M2.07257 10.2848C1.64666 10.2848 1.24915 10.0293 1.07879 9.63175C0.851633 9.09227 1.13557 8.4676 1.67506 8.26884L19.7052 1.14196C20.2447 0.914805 20.8694 1.19874 21.0681 1.73823C21.2953 2.27772 21.0113 2.90238 20.4719 3.10114L2.47009 10.228C2.32812 10.2564 2.21454 10.2848 2.07257 10.2848Z" fill="white"/>
<path d="M13.7142 13.5785H9.2563V10.5404C9.2563 10.0009 8.802 9.5466 8.26251 9.5466C7.72303 9.5466 7.29712 10.0009 7.29712 10.5404V24.4534C7.29712 24.9929 7.75142 25.4472 8.26251 25.4472C8.802 25.4472 9.2563 24.9929 9.2563 24.4534V15.4242H13.9129C13.7709 14.9415 13.7142 14.3452 13.7142 13.5785Z" fill="white"/>
<path d="M20.0744 9.5466C19.5349 9.5466 19.0806 10.0009 19.0806 10.5404V13.5785H15.361C15.3326 13.8057 15.3042 14.0612 15.3042 14.3168C15.3042 14.7143 15.361 15.0834 15.4462 15.4525H19.0806V18.1784C19.0806 18.7178 19.5349 19.1722 20.0744 19.1722C20.6139 19.1722 21.0398 18.7178 21.0398 18.1784V10.5404C21.0398 10.0009 20.6139 9.5466 20.0744 9.5466Z" fill="white"/>
<path d="M27.3715 14.2884C27.3715 18.3487 24.1629 21.5856 20.1026 21.614C16.0707 21.614 12.8054 18.4339 12.8054 14.4304C12.777 10.3416 15.9571 7.1331 20.0458 7.10471C24.0494 7.07632 27.3431 10.2848 27.3715 14.2884ZM20.0742 20.1659C23.2259 20.1659 25.8382 17.5537 25.8382 14.402C25.8382 11.1934 23.2543 8.5528 20.0742 8.5528C16.9509 8.5528 14.3102 11.165 14.3102 14.3168C14.2819 17.5253 16.8657 20.1659 20.0742 20.1659Z" fill="#F8F8F8"/>
<path d="M2.07257 10.2848C1.64666 10.2848 1.24915 10.0293 1.07879 9.63175C0.851633 9.09227 1.13557 8.4676 1.67506 8.26884L19.7052 1.14196C20.2447 0.914805 20.8694 1.19874 21.0681 1.73823C21.2953 2.27772 21.0113 2.90238 20.4719 3.10114L2.47009 10.228C2.32812 10.2564 2.21454 10.2848 2.07257 10.2848Z" stroke="white" stroke-miterlimit="10"/>
<path d="M19.0806 22.3522C19.0806 23.2608 19.0806 23.6584 19.0806 24.567C19.0806 25.1064 19.5065 25.4472 20.046 25.4472C20.5571 25.4472 21.0398 25.0497 21.0398 24.5102C21.0398 23.63 21.0398 23.2324 21.0398 22.3522C20.7558 22.3806 20.4435 22.409 20.1595 22.409C19.7904 22.4374 19.4497 22.409 19.0806 22.3522Z" fill="#F8F8F8"/>
</svg>
