<svg width="94" height="87" viewBox="0 0 94 87" fill="none" xmlns="http://www.w3.org/2000/svg">
<path d="M45.1996 44.5999H29.4996V33.8999C29.4996 31.9999 27.8996 30.3999 25.9996 30.3999C24.0996 30.3999 22.5996 31.9999 22.5996 33.8999V82.8999C22.5996 84.7999 24.1996 86.3999 25.9996 86.3999C27.8996 86.3999 29.4996 84.7999 29.4996 82.8999V51.0999H45.8996C45.3996 49.3999 45.1996 47.2999 45.1996 44.5999Z" fill="#006633"/>
<path d="M67.5998 30.3999C65.6998 30.3999 64.0998 31.9999 64.0998 33.8999V44.5999H50.9998C50.8998 45.3999 50.7998 46.2999 50.7998 47.1999C50.7998 48.5999 50.9998 49.8999 51.2998 51.1999H64.0998V60.7999C64.0998 62.6999 65.6998 64.2999 67.5998 64.2999C69.4998 64.2999 70.9998 62.6999 70.9998 60.7999V33.8999C70.9998 31.9999 69.4998 30.3999 67.5998 30.3999Z" fill="#006633"/>
<path d="M93.2997 47.1C93.2997 61.4 81.9997 72.8 67.6997 72.9C53.4997 72.9 41.9997 61.7 41.9997 47.6C41.8997 33.2 53.0997 21.9 67.4997 21.8C81.5997 21.7 93.1997 33 93.2997 47.1ZM67.5997 67.8C78.6997 67.8 87.8997 58.6 87.8997 47.5C87.8997 36.2 78.7997 26.9 67.5997 26.9C56.5997 26.9 47.2997 36.1 47.2997 47.2C47.1997 58.5 56.2997 67.8 67.5997 67.8Z" fill="#F49800"/>
<path d="M4.19983 32.9999C2.69983 32.9999 1.29983 32.0999 0.699835 30.6999C-0.100165 28.7999 0.899835 26.5999 2.79983 25.8999L66.2998 0.799932C68.1998 -6.75321e-05 70.3998 0.999933 71.0998 2.89993C71.8998 4.79993 70.8998 6.99993 68.9998 7.69993L5.59983 32.7999C5.09983 32.8999 4.69983 32.9999 4.19983 32.9999Z" stroke="#3AAA35" stroke-miterlimit="10"/>
<path d="M64.0996 75.5C64.0996 78.7 64.0996 80.1 64.0996 83.3C64.0996 85.2 65.5996 86.4 67.4996 86.4C69.2996 86.4 70.9996 85 70.9996 83.1C70.9996 80 70.9996 78.6 70.9996 75.5C69.9996 75.6 68.8996 75.7 67.8996 75.7C66.5996 75.8 65.3996 75.7 64.0996 75.5Z" fill="#F49800"/>
</svg>
