<?xml version="1.0" encoding="UTF-8"?> <svg xmlns="http://www.w3.org/2000/svg" width="131" height="39" viewBox="0 0 131 39" fill="none"><path d="M4.26355 32.458C3.67669 32.2082 3.01885 32.1812 2.41344 32.3819C1.80804 32.5826 1.29668 32.9973 0.975293 33.5483C0.740011 33.9461 0.617943 34.4006 0.622283 34.8628C0.618217 35.3231 0.740304 35.7757 0.975293 36.1715C1.20547 36.5642 1.53335 36.8908 1.92705 37.1193C2.32802 37.3536 2.78499 37.475 3.24938 37.4704C3.59439 37.4721 3.93637 37.4059 4.25575 37.2753C4.57792 37.145 4.87341 36.9566 5.12755 36.7195L5.50202 37.1193C5.19126 37.406 4.83201 37.6352 4.44103 37.7961C4.05577 37.9609 3.64109 38.0458 3.22208 38.0457C2.65898 38.049 2.10488 37.9045 1.61513 37.6266C1.12538 37.3487 0.717128 36.9471 0.43115 36.4621C0.144598 35.9803 -0.00447251 35.4292 0.000126524 34.8686C-0.00499746 34.31 0.145605 33.7609 0.43505 33.283C0.841568 32.6223 1.46845 32.1265 2.205 31.8832C2.94156 31.6398 3.74042 31.6645 4.46054 31.9529C4.84254 32.1037 5.1926 32.3254 5.49226 32.6062L5.12755 33.0334C4.87884 32.7883 4.58558 32.593 4.26355 32.458Z" fill="white"></path><path d="M14.1322 37.9872L13.393 36.3314H9.94284L9.21341 37.9872H8.5542L11.3588 31.7656H12.0004L14.805 37.9891L14.1322 37.9872ZM10.1808 35.7794H13.157L11.6611 32.4131L10.1808 35.7794Z" fill="white"></path><path d="M22.585 32.302C22.7988 32.4923 22.9667 32.7286 23.0761 32.993C23.1855 33.2575 23.2337 33.5433 23.2169 33.8291C23.2169 34.5117 23.0062 35.0402 22.585 35.4147C22.1637 35.7892 21.5675 35.9757 20.7965 35.9744H19.1134V37.9872H18.499V31.7656H20.7965C21.5675 31.7656 22.1637 31.9444 22.585 32.302ZM22.1442 35.0168C22.3093 34.8719 22.4389 34.6911 22.5231 34.4882C22.6073 34.2853 22.6438 34.0658 22.6298 33.8466C22.6434 33.6324 22.607 33.418 22.5234 33.2203C22.4398 33.0226 22.3113 32.8471 22.1481 32.7076C21.8282 32.4476 21.3686 32.3176 20.7692 32.3176H19.1134V35.4245H20.7634C21.3602 35.4232 21.8204 35.2873 22.1442 35.0168Z" fill="white"></path><path d="M27.1176 31.7656H27.7319V37.9872H27.1176V31.7656Z" fill="white"></path><path d="M31.4785 31.7539H36.2061V32.3156H34.1505V37.9872H33.5361V32.3156H31.4785V31.7539Z" fill="white"></path><path d="M44.023 37.9872L43.2838 36.3314H39.8298L39.0965 37.9872H38.4373L41.2418 31.7656H41.8815L44.6861 37.9891L44.023 37.9872ZM40.0716 35.7794H43.0459L41.55 32.4131L40.0716 35.7794Z" fill="white"></path><path d="M48.384 31.7656H48.9984V37.4372H51.7406V37.9891H48.384V31.7656Z" fill="white"></path><path d="M60.7452 31.7539H61.5117L63.9496 36.4347L66.3622 31.7539H67.1287V37.995H66.5592L66.5494 32.6179L64.1115 37.326H63.7683L61.3303 32.6101V37.9872H60.7452V31.7539Z" fill="white"></path><path d="M76.4004 37.9872L75.6613 36.3314H72.2072L71.472 37.9872H70.8127L73.6173 31.7656H74.259L77.0694 37.9872H76.4004ZM72.4471 35.7794H75.4194L73.9235 32.4131L72.4471 35.7794Z" fill="white"></path><path d="M85.2765 31.7656H85.8831V37.9872H85.2316L81.3778 32.7213V37.9872H80.7634V31.7656H81.4187L85.2823 37.0315L85.2765 31.7656Z" fill="white"></path><path d="M95.1666 37.9872L94.4293 36.3314H90.9753L90.2439 37.9872H89.5847L92.3893 31.7656H93.031L95.8355 37.9891L95.1666 37.9872ZM91.2152 35.7794H94.1875L92.6935 32.4131L91.2152 35.7794Z" fill="white"></path><path d="M103.75 34.9428H104.292V37.2266C103.979 37.4886 103.622 37.6921 103.237 37.8273C102.846 37.9718 102.432 38.0457 102.014 38.0457C101.449 38.0481 100.894 37.9033 100.402 37.6256C99.9103 37.3479 99.4993 36.9469 99.2097 36.4621C98.9205 35.9811 98.7694 35.4298 98.7728 34.8687C98.7683 34.3098 98.9195 33.7607 99.2097 33.283C99.4989 32.8043 99.9084 32.4096 100.397 32.1382C100.899 31.8573 101.465 31.7121 102.04 31.7169C102.458 31.7163 102.873 31.7916 103.264 31.9393C103.648 32.0808 104.002 32.2917 104.31 32.5614L103.955 32.9983C103.699 32.7609 103.399 32.5749 103.073 32.4502C102.744 32.3223 102.393 32.2562 102.04 32.2552C101.574 32.2514 101.116 32.3726 100.713 32.6063C100.317 32.8352 99.9857 33.1623 99.7519 33.5561C99.5157 33.9515 99.3929 34.4042 99.3969 34.8648C99.393 35.329 99.5157 35.7855 99.7519 36.1851C99.9879 36.584 100.324 36.9143 100.727 37.1432C101.13 37.372 101.586 37.4916 102.049 37.4899C102.35 37.4892 102.649 37.4398 102.935 37.3436C103.226 37.2474 103.501 37.108 103.75 36.9302V34.9428Z" fill="white"></path><path d="M108.77 31.7656H112.938V32.3176H109.385V34.5429H112.564V35.0948H109.385V37.4352H113.053V37.9872H108.762L108.77 31.7656Z" fill="white"></path><path d="M121.332 37.9872L119.988 35.9569C119.793 35.9686 119.653 35.9744 119.552 35.9744H117.843V37.9872H117.229V31.7656H119.552C120.332 31.7656 120.932 31.9451 121.354 32.3039C121.569 32.4933 121.738 32.7293 121.849 32.9939C121.959 33.2585 122.008 33.5448 121.991 33.831C122.008 34.2904 121.877 34.743 121.617 35.1221C121.353 35.4769 120.976 35.7314 120.548 35.8438L122.044 37.9891L121.332 37.9872ZM119.552 35.4225C120.137 35.4225 120.603 35.2879 120.917 35.0168C121.08 34.871 121.209 34.6898 121.292 34.4871C121.375 34.2843 121.411 34.0653 121.397 33.8466C121.41 33.6326 121.374 33.4184 121.291 33.2207C121.207 33.0231 121.079 32.8475 120.917 32.7076C120.597 32.4463 120.137 32.3176 119.552 32.3176H117.843V35.4245L119.552 35.4225Z" fill="white"></path><path d="M128.952 32.4092C128.675 32.3271 128.387 32.2838 128.098 32.2805C127.738 32.2627 127.381 32.3508 127.07 32.5341C126.949 32.6038 126.85 32.7046 126.781 32.826C126.712 32.9474 126.678 33.085 126.68 33.2245C126.671 33.4515 126.747 33.6736 126.895 33.8466C127.04 34.009 127.219 34.138 127.419 34.225C127.698 34.3427 127.984 34.4455 128.274 34.5331C128.622 34.6311 128.963 34.7543 129.294 34.9018C129.552 35.0238 129.778 35.2056 129.953 35.4322C130.131 35.6985 130.226 36.0122 130.224 36.3328C130.222 36.6534 130.125 36.9661 129.943 37.2304C129.743 37.4943 129.472 37.6969 129.163 37.8155C128.791 37.9626 128.393 38.0342 127.993 38.0262C127.557 38.026 127.126 37.9378 126.725 37.7668C126.33 37.6073 125.969 37.3751 125.66 37.0822L125.945 36.5732C126.225 36.8482 126.557 37.0661 126.92 37.2148C127.263 37.3642 127.632 37.4431 128.006 37.4469C128.403 37.467 128.797 37.3663 129.136 37.1583C129.267 37.0754 129.374 36.96 129.448 36.8233C129.521 36.6866 129.558 36.5333 129.555 36.3782C129.564 36.1453 129.488 35.9171 129.34 35.7365C129.198 35.5673 129.019 35.4337 128.816 35.3464C128.609 35.2587 128.318 35.1514 127.944 35.0344C127.598 34.9315 127.259 34.8085 126.928 34.6658C126.673 34.5487 126.45 34.3714 126.278 34.1489C126.091 33.8899 125.997 33.5751 126.011 33.2557C126.006 32.9574 126.1 32.6659 126.278 32.4268C126.472 32.1781 126.732 31.9883 127.027 31.8787C127.382 31.7441 127.759 31.6779 128.139 31.6837C128.485 31.6847 128.828 31.7359 129.159 31.8358C129.477 31.9259 129.781 32.0605 130.062 32.2357L129.787 32.7778C129.528 32.6161 129.247 32.492 128.952 32.4092Z" fill="white"></path><path d="M6.51046 5.93148V10.3119H18.1247V15.2131H6.51046V25.3724H0.25769V0.532959H19.724V5.93148H6.51046ZM29.2084 25.9321C28.165 25.9313 27.1301 25.7444 26.1523 25.3802C25.154 25.0096 24.2473 24.4282 23.494 23.6756C22.6758 22.8493 22.0353 21.8643 21.6119 20.7813C21.1373 19.6202 20.9007 18.2465 20.902 16.6603V7.77649H27.143V16.6564C27.143 17.7928 27.4336 18.74 28.0148 19.498C28.596 20.256 29.4795 20.6396 30.6653 20.6487C31.1782 20.6561 31.6846 20.534 32.1378 20.2937C32.5622 20.0684 32.937 19.76 33.2398 19.3868C33.5417 19.01 33.7759 18.5838 33.9321 18.1269C34.0972 17.6589 34.1817 17.1663 34.1818 16.67L34.2208 7.77649H40.4365V25.3587H35.1394L34.3242 23.4767H34.1447C33.654 24.2963 32.9138 24.9374 32.0325 25.3061C31.1456 25.7108 30.1833 25.9241 29.2084 25.9321ZM54.5354 7.246C57.2113 7.246 59.2657 7.99818 60.6985 9.50254C62.1314 11.0069 62.8465 13.3473 62.8439 16.5237V25.3685H56.6301V16.5179C56.6301 15.3815 56.3701 14.4577 55.85 13.7465C55.3299 13.0352 54.4061 12.6803 53.0786 12.6816C52.5691 12.6743 52.0648 12.7837 51.6041 13.0014C51.1766 13.206 50.7956 13.4961 50.4846 13.8537C50.1746 14.2148 49.9339 14.6301 49.7747 15.0785C49.6093 15.5403 49.5255 16.0274 49.527 16.5179V25.3626H43.3464V7.77649H48.6025L49.3827 9.72683H49.5602C50.0478 8.90509 50.7716 8.24926 51.6373 7.84476C52.5475 7.43442 53.5371 7.22998 54.5354 7.246ZM84.906 0.532959V25.3626H79.4353L78.7605 23.3031H78.6182C78.2123 24.2084 77.4846 24.9306 76.5762 25.3295C75.66 25.7133 74.6752 25.9064 73.6819 25.897C72.3979 25.9281 71.1215 25.6924 69.9333 25.2047C68.9261 24.777 68.0365 24.1134 67.3394 23.2699C66.6403 22.3937 66.1267 21.3844 65.8298 20.3035C65.4857 19.0602 65.3183 17.7747 65.3325 16.4847C65.3015 15.0797 65.5364 13.6814 66.0249 12.3637C66.4365 11.2825 67.0658 10.2974 67.8738 9.46938C68.6203 8.71441 69.5229 8.13194 70.5184 7.76284C71.4964 7.39931 72.5313 7.21307 73.5746 7.21285C74.5777 7.19945 75.5716 7.40582 76.4864 7.81745C77.347 8.20606 78.0663 8.85116 78.546 9.66442H78.6884V2.02496L84.906 0.532959ZM78.6533 16.4828C78.6534 15.9892 78.5573 15.5003 78.3705 15.0434C78.1879 14.5942 77.9293 14.1799 77.6059 13.8186C77.2901 13.4662 76.9102 13.1769 76.4864 12.9663C76.0683 12.7542 75.6057 12.6446 75.1368 12.6465C74.6949 12.6492 74.2587 12.7463 73.8574 12.9312C73.4303 13.1214 73.0401 13.3855 72.7048 13.7114C72.3531 14.054 72.075 14.4648 71.8876 14.9186C71.6818 15.4127 71.5789 15.9436 71.5853 16.4789C71.5765 17.0726 71.6791 17.6626 71.8876 18.2186C72.0638 18.7014 72.3283 19.1471 72.6677 19.5331C72.9697 19.8757 73.3379 20.1537 73.7501 20.3503C74.1265 20.5335 74.5388 20.6308 74.9574 20.635C75.4129 20.6337 75.8644 20.5491 76.2895 20.3854C76.7343 20.2159 77.1394 19.9562 77.4792 19.6228C77.8507 19.2543 78.1416 18.8127 78.3334 18.3258C78.5571 17.7376 78.6657 17.112 78.6533 16.4828Z" fill="white"></path><path d="M111.649 21.3138C110.332 22.8902 108.641 24.1113 106.73 24.8654C104.88 25.593 102.91 25.9668 100.922 25.9673C99.0785 25.9852 97.2479 25.6598 95.5235 25.0078C93.9263 24.4067 92.4606 23.502 91.2074 22.3436C89.9777 21.1943 88.9978 19.8041 88.3287 18.2596C87.6341 16.5904 87.278 14.7999 87.281 12.992C87.284 11.184 87.6461 9.39469 88.3462 7.72782C89.0282 6.17142 90.0195 4.76999 91.26 3.60871C92.517 2.44599 93.991 1.54264 95.5976 0.950411C97.2996 0.311872 99.1041 -0.0100253 100.922 0.000599674C102.987 -0.018068 105.033 0.399297 106.925 1.22541C108.736 2.01664 110.35 3.19962 111.649 4.6892L106.714 8.24075C106.014 7.37841 105.124 6.68935 104.114 6.22725C103.104 5.76515 102.001 5.54249 100.891 5.5766C99.8271 5.55906 98.7704 5.75263 97.782 6.1461C96.9134 6.4952 96.127 7.02124 95.4728 7.69076C94.8333 8.36027 94.3433 9.15802 94.0354 10.0312C93.3696 11.9528 93.3696 14.0425 94.0354 15.9641C94.3461 16.8491 94.8451 17.6561 95.498 18.3295C96.1509 19.0029 96.9421 19.5267 97.8171 19.8647C98.8063 20.2495 99.8606 20.4396 100.922 20.4245C102.016 20.4325 103.102 20.2278 104.119 19.8218C105.143 19.399 106.046 18.7289 106.748 17.8715L111.649 21.3138ZM130.222 9.57283C129.712 8.45326 128.995 7.44065 128.108 6.58882C127.209 5.72899 126.154 5.04793 125.001 4.58193C122.558 3.61084 119.837 3.61084 117.394 4.58193C116.241 5.04835 115.186 5.72934 114.286 6.58882C113.401 7.43883 112.69 8.45218 112.191 9.57283C111.687 10.7206 111.426 11.9605 111.426 13.2141C111.426 14.4677 111.687 15.7076 112.191 16.8554C112.689 17.9766 113.4 18.9901 114.286 19.8394C116.151 21.608 118.624 22.5938 121.195 22.5938C123.765 22.5938 126.238 21.608 128.104 19.8394C128.992 18.9883 129.71 17.9755 130.218 16.8554C130.733 15.7107 131 14.4695 131 13.2141C131 11.9587 130.733 10.7175 130.218 9.57283H130.222ZM121.217 17.5458C120.36 17.5458 119.523 17.2917 118.811 16.8158C118.098 16.3398 117.543 15.6633 117.215 14.8718C116.887 14.0803 116.802 13.2093 116.969 12.369C117.136 11.5288 117.548 10.7569 118.154 10.1511C118.76 9.54534 119.532 9.13279 120.372 8.96565C121.212 8.79851 122.083 8.88429 122.875 9.21214C123.666 9.54 124.343 10.0952 124.819 10.8075C125.295 11.5199 125.549 12.3574 125.549 13.2141C125.549 14.3623 125.093 15.4635 124.281 16.2757C123.47 17.0879 122.369 17.5448 121.221 17.5458H121.217Z" fill="white"></path></svg> 