<?xml version="1.0" encoding="utf-8"?>
<!-- Generator: Adobe Illustrator 24.0.0, SVG Export Plug-In . SVG Version: 6.00 Build 0)  -->
<svg version="1.1" id="Layer_1" xmlns="http://www.w3.org/2000/svg" xmlns:xlink="http://www.w3.org/1999/xlink" x="0px" y="0px"
	 viewBox="0 0 595.28 337.08" style="enable-background:new 0 0 595.28 337.08;" xml:space="preserve">
<style type="text/css">
	.st0{fill:#FFFFFF;}
</style>
<g>
	<path class="st0" d="M248.09,135.24h-23.81c-6.23,0-11.3,5.03-11.34,11.27l-0.07,10.97c-5.15,0.71-10.29,1.33-15.44,1.36
		c-8.64,0.04-11.88-6.75-7.95-14.39c0.97-1.89,1.89-3.9,2.33-5.97c0.93-4.36-1.2-8.63-4.9-10.53c-5.46-2.81-15.09-1.99-18.79,1.6
		c-3.75,3.64-3.72,8.19,0.08,15.84c0.06,0.13,0.15,0.25,0.21,0.38c2.64,5.51,0.84,10.78-5.09,12.21c-4.33,1.05-9.09,0.98-13.58,0.54
		c-6.97-0.68-13.87-2.09-21.56-3.32c-0.57,7.83-1.36,15.38-1.6,22.94c-0.35,10.89,2.58,12.75,12.19,8.26
		c7.32-3.42,15.38-1.27,18.52,5.47c2.95,6.34,3.06,12.96-0.07,19.28c-2.44,4.94-8.83,8.06-14.18,6.75
		c-2.35-0.58-4.62-1.62-6.82-2.69c-5.32-2.59-9.39-1.01-9.47,4.71c-0.12,8.9,0.72,17.82,1.21,26.9v0.93H85.33
		c-6.56,0-11.88-5.32-11.88-11.88v-88.74c0-6.56-5.32-11.88-11.88-11.88H38.52l104.78-88.32L248.09,135.24z M256.6,203.69
		c-8.3-2.39-9.5-9.82-3.57-16.05c1.47-1.54,2.91-3.21,3.92-5.07c2.12-3.92,1.28-8.62-1.74-11.49c-4.45-4.24-13.92-6.16-18.48-3.76
		c-4.62,2.44-5.88,6.81-4.38,15.22c0.03,0.14,0.07,0.28,0.09,0.42c0.99,6.03-2.23,10.57-8.32,10.28c-4.45-0.21-9-1.62-13.18-3.3
		c-6.5-2.61-12.72-5.91-19.76-9.25c-2.75,7.35-5.63,14.37-8,21.57c-3.4,10.35-1.11,12.96,9.37,11.36
		c7.99-1.23,15.12,3.11,16.23,10.47c1.05,6.92-0.71,13.3-5.49,18.49c-3.73,4.05-10.74,5.25-15.5,2.48c-2.09-1.22-3.98-2.86-5.78-4.5
		c-4.38-3.98-8.73-3.61-10.41,1.86c-2.62,8.51-4.33,17.3-6.41,26.15l-0.26,0.9l38.61,11.33l20.06,5.89l4.12,1.21
		c10.31,3.02,21.11-2.88,24.14-13.18l19.94-67.96C266.66,205.97,261.55,205.11,256.6,203.69z"/>
	<g>
		<path class="st0" d="M314.18,164.4c-1.47-0.42-2.85-0.63-4.15-0.63c-2.08,0-3.74,0.41-4.99,1.23c-1.25,0.82-1.88,1.94-1.88,3.35
			c0,1.24,0.35,2.25,1.04,3.03c0.69,0.78,1.54,1.39,2.55,1.84c1.01,0.45,2.39,0.95,4.15,1.49c2.05,0.61,3.7,1.2,4.95,1.79
			c1.25,0.59,2.32,1.45,3.2,2.57c0.88,1.12,1.32,2.61,1.32,4.45c0,1.61-0.45,3.04-1.36,4.28c-0.91,1.24-2.18,2.2-3.83,2.88
			c-1.64,0.68-3.53,1.01-5.67,1.01c-2.1,0-4.16-0.42-6.16-1.25c-2-0.84-3.73-1.95-5.17-3.33l1.38-2.46
			c1.35,1.33,2.93,2.36,4.71,3.11c1.79,0.75,3.55,1.12,5.27,1.12c2.31,0,4.14-0.47,5.49-1.41c1.35-0.94,2.03-2.2,2.03-3.78
			c0-1.27-0.35-2.31-1.04-3.11c-0.69-0.81-1.54-1.43-2.55-1.86c-1.01-0.43-2.42-0.94-4.24-1.51c-2.05-0.63-3.69-1.23-4.93-1.8
			c-1.24-0.56-2.29-1.4-3.16-2.51c-0.86-1.11-1.3-2.56-1.3-4.34c0-1.53,0.43-2.87,1.3-4.02c0.87-1.15,2.08-2.04,3.63-2.66
			c1.56-0.62,3.36-0.93,5.41-0.93c1.64,0,3.29,0.24,4.95,0.73c1.66,0.49,3.12,1.14,4.39,1.95l-1.3,2.55
			C317.01,165.42,315.65,164.82,314.18,164.4z"/>
		<path class="st0" d="M353.89,163.06c2.41,1.37,4.32,3.22,5.73,5.56c1.41,2.33,2.12,4.9,2.12,7.7c0,2.8-0.71,5.38-2.12,7.74
			c-1.41,2.36-3.32,4.24-5.73,5.62c-2.41,1.38-5.05,2.08-7.93,2.08c-2.88,0-5.53-0.69-7.93-2.08c-2.41-1.38-4.32-3.26-5.73-5.62
			c-1.41-2.36-2.12-4.94-2.12-7.74c0-2.8,0.71-5.36,2.12-7.7c1.41-2.34,3.32-4.19,5.73-5.56c2.41-1.37,5.05-2.05,7.93-2.05
			C348.84,161,351.49,161.69,353.89,163.06z M339.6,165.37c-1.96,1.12-3.52,2.65-4.67,4.58c-1.15,1.93-1.73,4.05-1.73,6.36
			s0.58,4.44,1.73,6.4c1.15,1.96,2.71,3.51,4.67,4.65c1.96,1.14,4.09,1.71,6.4,1.71c2.28,0,4.39-0.57,6.33-1.71
			c1.95-1.14,3.49-2.69,4.65-4.65c1.15-1.96,1.73-4.09,1.73-6.4s-0.58-4.42-1.73-6.36c-1.15-1.93-2.7-3.46-4.65-4.58
			c-1.95-1.12-4.06-1.69-6.33-1.69C343.7,163.69,341.56,164.25,339.6,165.37z"/>
		<path class="st0" d="M373.68,161.26h2.98v27.54h13.32v2.68h-16.3V161.26z"/>
		<path class="st0" d="M406.04,186.47c1.69,1.73,4.03,2.59,7.03,2.59c3,0,5.33-0.87,7-2.59c1.67-1.73,2.51-4.15,2.51-7.26v-17.99
			h2.98v17.99c0,3.92-1.1,6.99-3.31,9.21c-2.2,2.22-5.27,3.33-9.19,3.33c-3.92,0-6.99-1.11-9.21-3.33
			c-2.22-2.22-3.33-5.29-3.33-9.21v-17.99h2.98v17.99C403.51,182.32,404.35,184.74,406.04,186.47z"/>
		<path class="st0" d="M435.46,161.22h22.96v2.72h-9.99v27.54h-2.98v-27.54h-9.99V161.22z"/>
		<path class="st0" d="M469.01,161.26h2.98v30.22h-2.98V161.26z"/>
		<path class="st0" d="M507.64,163.06c2.41,1.37,4.32,3.22,5.73,5.56c1.41,2.33,2.12,4.9,2.12,7.7c0,2.8-0.71,5.38-2.12,7.74
			c-1.41,2.36-3.32,4.24-5.73,5.62c-2.41,1.38-5.05,2.08-7.93,2.08c-2.88,0-5.53-0.69-7.93-2.08c-2.41-1.38-4.32-3.26-5.73-5.62
			c-1.41-2.36-2.12-4.94-2.12-7.74c0-2.8,0.71-5.36,2.12-7.7c1.41-2.34,3.32-4.19,5.73-5.56c2.41-1.37,5.05-2.05,7.93-2.05
			C502.59,161,505.24,161.69,507.64,163.06z M493.35,165.37c-1.96,1.12-3.52,2.65-4.67,4.58c-1.15,1.93-1.73,4.05-1.73,6.36
			s0.58,4.44,1.73,6.4c1.15,1.96,2.71,3.51,4.67,4.65c1.96,1.14,4.09,1.71,6.4,1.71c2.28,0,4.39-0.57,6.33-1.71
			c1.95-1.14,3.49-2.69,4.65-4.65c1.15-1.96,1.73-4.09,1.73-6.4s-0.58-4.42-1.73-6.36c-1.15-1.93-2.7-3.46-4.65-4.58
			c-1.95-1.12-4.06-1.69-6.33-1.69C497.45,163.69,495.31,164.25,493.35,165.37z"/>
		<path class="st0" d="M549.34,161.26h2.94v30.22h-3.16l-18.72-25.6v25.6h-2.98v-30.22h3.16l18.76,25.6V161.26z"/>
		<path class="st0" d="M301.47,201.73h18.94v2.68h-15.96v11.63h14.22v2.68h-14.22v13.23h-2.98V201.73z"/>
		<path class="st0" d="M335.86,226.94c1.69,1.73,4.03,2.59,7.03,2.59c3,0,5.33-0.87,7-2.59c1.67-1.73,2.51-4.15,2.51-7.26v-17.99
			h2.98v17.99c0,3.92-1.1,6.99-3.31,9.21s-5.27,3.33-9.19,3.33c-3.92,0-6.99-1.11-9.21-3.33s-3.33-5.29-3.33-9.21v-17.99h2.98v17.99
			C333.33,222.79,334.18,225.21,335.86,226.94z"/>
		<path class="st0" d="M391.49,201.73h2.94v30.22h-3.16l-18.72-25.6v25.6h-2.98v-30.22h3.16l18.76,25.6V201.73z"/>
		<path class="st0" d="M429.38,203.72c2.38,1.33,4.25,3.15,5.62,5.47c1.37,2.32,2.05,4.88,2.05,7.67c0,2.8-0.69,5.35-2.05,7.65
			c-1.37,2.31-3.25,4.12-5.64,5.45c-2.39,1.33-5.04,1.99-7.96,1.99h-12.06v-30.22h12.15C424.38,201.73,427.01,202.4,429.38,203.72z
			 M427.85,227.63c1.9-1.1,3.41-2.59,4.52-4.48c1.11-1.89,1.66-3.99,1.66-6.29s-0.56-4.41-1.69-6.31c-1.12-1.9-2.65-3.4-4.56-4.5
			c-1.92-1.1-4.03-1.64-6.33-1.64h-9.12v24.86h9.25C423.86,229.28,425.95,228.73,427.85,227.63z"/>
	</g>
	<g>
		<path class="st0" d="M299.57,112.99h9.86v15.41h15.24v-15.41h9.86v37.76h-9.86v-14.49h-15.24v14.49h-9.86V112.99z"/>
		<path class="st0" d="M370.27,114.93c3.11,1.69,5.55,4,7.33,6.95c1.78,2.95,2.67,6.25,2.67,9.91c0,3.7-0.89,7.04-2.67,10.02
			c-1.78,2.98-4.22,5.33-7.33,7.06c-3.11,1.72-6.58,2.59-10.42,2.59c-3.84,0-7.32-0.85-10.42-2.56c-3.11-1.7-5.55-4.06-7.33-7.06
			c-1.78-3-2.67-6.35-2.67-10.05c0-3.66,0.89-6.97,2.67-9.91c1.78-2.94,4.22-5.26,7.33-6.95c3.11-1.69,6.58-2.53,10.42-2.53
			C363.69,112.4,367.16,113.24,370.27,114.93z M354.75,122.2c-1.6,0.97-2.87,2.31-3.8,4.01s-1.4,3.58-1.4,5.63
			c0,2.08,0.48,3.98,1.43,5.68c0.95,1.71,2.22,3.05,3.8,4.04s3.3,1.48,5.17,1.48c1.87,0,3.58-0.49,5.14-1.48
			c1.56-0.99,2.79-2.33,3.69-4.04c0.9-1.7,1.35-3.6,1.35-5.68c0-2.05-0.45-3.92-1.35-5.63c-0.9-1.71-2.13-3.04-3.69-4.01
			c-1.56-0.97-3.28-1.45-5.14-1.45C358.09,120.75,356.35,121.23,354.75,122.2z"/>
		<path class="st0" d="M396.47,140.89c1.4,1.44,3.18,2.15,5.33,2.15c2.12,0,3.83-0.71,5.14-2.13c1.31-1.42,1.97-3.33,1.97-5.74
			v-22.19h9.86v22.19c0,3.27-0.69,6.13-2.07,8.59c-1.38,2.46-3.36,4.35-5.92,5.68c-2.57,1.33-5.58,1.99-9.02,1.99
			c-3.45,0-6.47-0.66-9.08-1.99c-2.6-1.33-4.61-3.22-6.03-5.68c-1.42-2.46-2.13-5.32-2.13-8.59v-22.19h9.86v22.19
			C394.37,137.55,395.07,139.46,396.47,140.89z"/>
		<path class="st0" d="M445.09,121.45c-2.28-0.76-4.19-1.13-5.74-1.13c-1.22,0-2.18,0.23-2.88,0.67c-0.7,0.45-1.05,1.1-1.05,1.97
			c0,0.83,0.3,1.52,0.92,2.07c0.61,0.56,1.37,1.01,2.26,1.35c0.9,0.34,2.23,0.78,3.99,1.32c2.62,0.75,4.78,1.51,6.49,2.26
			c1.71,0.75,3.17,1.91,4.39,3.48c1.22,1.56,1.83,3.6,1.83,6.11c0,2.51-0.67,4.66-1.99,6.44c-1.33,1.78-3.15,3.12-5.47,4.01
			c-2.32,0.9-4.89,1.35-7.73,1.35c-3.12,0-6.24-0.55-9.34-1.64c-3.11-1.1-5.79-2.6-8.05-4.5l3.83-7.7c1.9,1.69,4.16,3.07,6.76,4.15
			c2.6,1.08,4.91,1.62,6.92,1.62c1.47,0,2.63-0.27,3.47-0.81c0.84-0.54,1.27-1.33,1.27-2.37c0-0.86-0.31-1.58-0.94-2.15
			c-0.63-0.57-1.42-1.03-2.37-1.37c-0.95-0.34-2.29-0.74-4.01-1.21c-2.58-0.72-4.72-1.45-6.41-2.18c-1.69-0.74-3.13-1.85-4.34-3.34
			c-1.2-1.49-1.81-3.48-1.81-5.95c0-2.33,0.62-4.38,1.86-6.14s3-3.12,5.28-4.07c2.28-0.95,4.93-1.43,7.95-1.43
			c2.73,0,5.42,0.39,8.08,1.16c2.66,0.77,4.99,1.8,7,3.1l-3.72,7.86C449.52,123.17,447.37,122.2,445.09,121.45z"/>
		<path class="st0" d="M460.31,112.99h9.86v37.76h-9.86V112.99z"/>
		<path class="st0" d="M503.29,112.99h9.16v37.76h-8.62l-17.13-22.57v22.57h-9.21v-37.76h8.67l17.18,22.73L503.29,112.99z"/>
		<path class="st0" d="M544.83,131.47h8.51v15.03c-2.01,1.47-4.48,2.67-7.41,3.58c-2.93,0.92-5.7,1.37-8.32,1.37
			c-3.81,0-7.25-0.85-10.32-2.56c-3.07-1.7-5.49-4.05-7.25-7.03c-1.76-2.98-2.64-6.32-2.64-10.02c0-3.66,0.91-6.98,2.72-9.94
			c1.81-2.96,4.31-5.29,7.49-6.98c3.18-1.69,6.72-2.53,10.64-2.53c2.8,0,5.6,0.51,8.4,1.54c2.8,1.02,5.17,2.4,7.11,4.12l-5.6,6.9
			c-1.37-1.29-2.93-2.32-4.71-3.07c-1.78-0.75-3.53-1.13-5.25-1.13c-2.01,0-3.83,0.49-5.44,1.45c-1.62,0.97-2.89,2.3-3.83,3.99
			c-0.93,1.69-1.4,3.57-1.4,5.66c0,2.12,0.47,4.03,1.4,5.74c0.93,1.71,2.23,3.04,3.88,4.01c1.65,0.97,3.48,1.45,5.49,1.45
			c1.9,0,4.08-0.61,6.52-1.83V131.47z"/>
	</g>
</g>
</svg>
