<svg width="223" height="151" viewBox="0 0 223 151" fill="none" xmlns="http://www.w3.org/2000/svg">
<path d="M217.139 146.503H3.97168V147.089H217.139V146.503Z" fill="#3F3D56"/>
<path d="M4.1025 150.898C6.36824 150.898 8.20499 149.061 8.20499 146.796C8.20499 144.53 6.36824 142.693 4.1025 142.693C1.83675 142.693 0 144.53 0 146.796C0 149.061 1.83675 150.898 4.1025 150.898Z" fill="#3F3D56"/>
<path d="M218.897 150.898C221.163 150.898 223 149.061 223 146.796C223 144.53 221.163 142.693 218.897 142.693C216.632 142.693 214.795 144.53 214.795 146.796C214.795 149.061 216.632 150.898 218.897 150.898Z" fill="#3F3D56"/>
<path d="M119.772 146.811H36.2565C35.5572 146.81 34.8869 146.532 34.3925 146.037C33.898 145.543 33.6199 144.873 33.6191 144.173V2.63732C33.6199 1.9381 33.898 1.26775 34.3925 0.773323C34.8869 0.2789 35.5572 0.000788007 36.2565 0H119.772C120.471 0.000788007 121.141 0.2789 121.636 0.773323C122.13 1.26775 122.408 1.9381 122.409 2.63732V144.173C122.408 144.873 122.13 145.543 121.636 146.037C121.141 146.532 120.471 146.81 119.772 146.811ZM36.2565 0.586071C35.7126 0.586705 35.1913 0.803022 34.8067 1.18757C34.4222 1.57211 34.2058 2.09349 34.2052 2.63732V144.173C34.2058 144.717 34.4222 145.239 34.8067 145.623C35.1913 146.008 35.7126 146.224 36.2565 146.225H119.772C120.315 146.224 120.837 146.008 121.221 145.623C121.606 145.239 121.822 144.717 121.823 144.173V2.63732C121.822 2.09349 121.606 1.57211 121.221 1.18757C120.837 0.803022 120.315 0.586705 119.772 0.586071H36.2565Z" fill="#3F3D56"/>
<path d="M89.4428 8.49794H66.586C66.5083 8.49794 66.4337 8.46706 66.3788 8.41211C66.3238 8.35715 66.293 8.28262 66.293 8.2049C66.293 8.12718 66.3238 8.05265 66.3788 7.99769C66.4337 7.94274 66.5083 7.91187 66.586 7.91187H89.4428C89.5205 7.91187 89.595 7.94274 89.65 7.99769C89.7049 8.05265 89.7358 8.12718 89.7358 8.2049C89.7358 8.28262 89.7049 8.35715 89.65 8.41211C89.595 8.46706 89.5205 8.49794 89.4428 8.49794Z" fill="#3F3D56"/>
<path d="M110.101 136.261H45.6334C44.9342 136.261 44.2638 135.983 43.7694 135.488C43.275 134.994 42.9969 134.323 42.9961 133.624V18.7543C42.9969 18.055 43.275 17.3847 43.7694 16.8903C44.2638 16.3958 44.9342 16.1177 45.6334 16.1169H110.101C110.8 16.1177 111.471 16.3958 111.965 16.8903C112.46 17.3847 112.738 18.055 112.739 18.7543V133.624C112.738 134.323 112.46 134.994 111.965 135.488C111.471 135.983 110.8 136.261 110.101 136.261ZM45.6334 16.703C45.0896 16.7036 44.5682 16.92 44.1837 17.3045C43.7991 17.6891 43.5828 18.2104 43.5822 18.7543V133.624C43.5828 134.168 43.7991 134.689 44.1837 135.074C44.5682 135.458 45.0896 135.675 45.6334 135.675H110.101C110.645 135.675 111.166 135.458 111.551 135.074C111.936 134.689 112.152 134.168 112.152 133.624V18.7543C112.152 18.2104 111.936 17.6891 111.551 17.3045C111.166 16.92 110.645 16.7036 110.101 16.703H45.6334Z" fill="#3F3D56"/>
<path d="M123.142 30.1825C122.792 30.1822 122.457 30.0431 122.21 29.7959C121.963 29.5487 121.824 29.2135 121.823 28.8639V23.2962C121.823 22.9465 121.962 22.6111 122.209 22.3638C122.457 22.1165 122.792 21.9775 123.142 21.9775C123.492 21.9775 123.827 22.1165 124.074 22.3638C124.322 22.6111 124.461 22.9465 124.461 23.2962V28.8639C124.46 29.2135 124.321 29.5487 124.074 29.7959C123.827 30.0431 123.492 30.1822 123.142 30.1825ZM123.142 22.5636C122.948 22.5638 122.761 22.6411 122.624 22.7784C122.487 22.9157 122.41 23.102 122.409 23.2962V28.8639C122.409 29.0582 122.486 29.2445 122.624 29.3819C122.761 29.5193 122.948 29.5965 123.142 29.5965C123.336 29.5965 123.523 29.5193 123.66 29.3819C123.797 29.2445 123.874 29.0582 123.874 28.8639V23.2962C123.874 23.102 123.797 22.9157 123.66 22.7784C123.522 22.6411 123.336 22.5638 123.142 22.5636Z" fill="#3F3D56"/>
<path d="M123.142 39.2668C122.792 39.2664 122.457 39.1273 122.21 38.8801C121.963 38.6329 121.824 38.2977 121.823 37.9481V32.3804C121.823 32.0307 121.962 31.6953 122.209 31.448C122.457 31.2007 122.792 31.0618 123.142 31.0618C123.492 31.0618 123.827 31.2007 124.074 31.448C124.322 31.6953 124.461 32.0307 124.461 32.3804V37.9481C124.46 38.2977 124.321 38.6329 124.074 38.8801C123.827 39.1273 123.492 39.2664 123.142 39.2668ZM123.142 31.6478C122.948 31.648 122.761 31.7253 122.624 31.8626C122.487 32 122.41 32.1862 122.409 32.3804V37.9481C122.409 38.1424 122.486 38.3287 122.624 38.4661C122.761 38.6035 122.948 38.6807 123.142 38.6807C123.336 38.6807 123.523 38.6035 123.66 38.4661C123.797 38.3287 123.874 38.1424 123.874 37.9481V32.3804C123.874 32.1862 123.797 32 123.66 31.8626C123.522 31.7253 123.336 31.648 123.142 31.6478Z" fill="#3F3D56"/>
<path d="M99.8454 62.1258H55.89C55.4237 62.1258 54.9765 61.9406 54.6468 61.6108C54.3171 61.2811 54.1318 60.8339 54.1318 60.3676C54.1318 59.9013 54.3171 59.4541 54.6468 59.1244C54.9765 58.7946 55.4237 58.6094 55.89 58.6094H99.8454C100.312 58.6094 100.759 58.7946 101.089 59.1244C101.418 59.4541 101.604 59.9013 101.604 60.3676C101.604 60.8339 101.418 61.2811 101.089 61.6108C100.759 61.9406 100.312 62.1258 99.8454 62.1258Z" fill="#CCCCCC"/>
<path d="M99.8454 70.0377H55.89C55.4237 70.0377 54.9765 69.8524 54.6468 69.5227C54.3171 69.193 54.1318 68.7458 54.1318 68.2795C54.1318 67.8131 54.3171 67.3659 54.6468 67.0362C54.9765 66.7065 55.4237 66.5212 55.89 66.5212H99.8454C100.312 66.5212 100.759 66.7065 101.089 67.0362C101.418 67.3659 101.604 67.8131 101.604 68.2795C101.604 68.7458 101.418 69.193 101.089 69.5227C100.759 69.8524 100.312 70.0377 99.8454 70.0377Z" fill="#CCCCCC"/>
<path d="M99.8454 77.9498H55.89C55.4237 77.9498 54.9765 77.7645 54.6468 77.4348C54.3171 77.1051 54.1318 76.6579 54.1318 76.1916C54.1318 75.7253 54.3171 75.2781 54.6468 74.9483C54.9765 74.6186 55.4237 74.4333 55.89 74.4333H99.8454C100.312 74.4333 100.759 74.6186 101.089 74.9483C101.418 75.2781 101.604 75.7253 101.604 76.1916C101.604 76.6579 101.418 77.1051 101.089 77.4348C100.759 77.7645 100.312 77.9498 99.8454 77.9498Z" fill="#CCCCCC"/>
<path d="M84.1979 54.2139H69.9841C69.1292 54.2139 68.3093 53.8743 67.7048 53.2698C67.1003 52.6653 66.7607 51.8454 66.7607 50.9905C66.7607 50.1356 67.1003 49.3157 67.7048 48.7112C68.3093 48.1067 69.1292 47.7671 69.9841 47.7671H84.1979C85.0528 47.7671 85.8727 48.1067 86.4772 48.7112C87.0817 49.3157 87.4213 50.1356 87.4213 50.9905C87.4213 51.8454 87.0817 52.6653 86.4772 53.2698C85.8727 53.8743 85.0528 54.2139 84.1979 54.2139Z" fill="#3AAA35"/>
<path d="M64.3775 104.611C63.1148 104.611 61.8805 104.237 60.8306 103.535C59.7807 102.834 58.9624 101.837 58.4791 100.67C57.9959 99.5037 57.8695 98.22 58.1158 96.9816C58.3622 95.7432 58.9702 94.6056 59.8631 93.7127C60.756 92.8198 61.8935 92.2118 63.132 91.9654C64.3704 91.7191 65.6541 91.8455 66.8207 92.3288C67.9873 92.812 68.9844 93.6303 69.6859 94.6802C70.3874 95.7301 70.7618 96.9644 70.7618 98.2271C70.7599 99.9198 70.0867 101.543 68.8898 102.739C67.6929 103.936 66.0701 104.61 64.3775 104.611ZM64.3775 92.5148C63.2477 92.5148 62.1433 92.8498 61.2039 93.4775C60.2645 94.1052 59.5324 94.9973 59.1 96.0411C58.6677 97.0849 58.5545 98.2335 58.775 99.3415C58.9954 100.45 59.5394 101.467 60.3383 102.266C61.1372 103.065 62.155 103.609 63.2631 103.83C64.3712 104.05 65.5197 103.937 66.5635 103.505C67.6073 103.072 68.4994 102.34 69.1271 101.401C69.7548 100.461 70.0898 99.3569 70.0898 98.2271C70.0898 97.477 69.9421 96.7342 69.655 96.0411C69.3679 95.3481 68.9472 94.7183 68.4167 94.1879C67.8863 93.6575 67.2566 93.2367 66.5635 92.9496C65.8705 92.6626 65.1277 92.5148 64.3775 92.5148Z" fill="#3F3D56"/>
<path d="M64.3886 100.437C64.2924 100.437 64.1972 100.418 64.1084 100.381C64.0196 100.344 63.9389 100.29 63.871 100.222L61.5252 97.8762C61.4571 97.8082 61.4031 97.7274 61.3663 97.6385C61.3295 97.5497 61.3105 97.4544 61.3105 97.3582C61.3106 97.262 61.3295 97.1667 61.3664 97.0778C61.4032 96.989 61.4572 96.9082 61.5253 96.8402L61.6467 96.7186C61.7842 96.5816 61.9705 96.5047 62.1647 96.5047C62.3589 96.5047 62.5451 96.5816 62.6827 96.7186L63.8988 97.9346C63.9441 97.9799 63.9988 98.0147 64.059 98.0367C64.1193 98.0586 64.1836 98.0671 64.2474 98.0616C64.3113 98.0561 64.3732 98.0367 64.4287 98.0048C64.4843 97.9728 64.5322 97.9292 64.5691 97.8768L69.7551 90.5068C69.867 90.348 70.0374 90.2401 70.2287 90.2069C70.4201 90.1736 70.6169 90.2177 70.7758 90.3294L70.9169 90.4287C70.9956 90.484 71.0626 90.5544 71.114 90.6357C71.1655 90.7169 71.2005 90.8075 71.217 90.9023C71.2334 90.9971 71.2311 91.0942 71.21 91.1881C71.1889 91.282 71.1496 91.3708 71.0942 91.4494L64.9881 100.126C64.9267 100.214 64.8468 100.286 64.7542 100.34C64.6615 100.393 64.5583 100.425 64.4518 100.434C64.4306 100.436 64.4096 100.437 64.3886 100.437Z" fill="#3AAA35"/>
<path d="M89.5787 104.611C88.316 104.611 87.0816 104.237 86.0317 103.535C84.9818 102.834 84.1635 101.837 83.6803 100.67C83.1971 99.5037 83.0707 98.22 83.317 96.9816C83.5634 95.7432 84.1714 94.6056 85.0643 93.7127C85.9571 92.8198 87.0947 92.2118 88.3332 91.9654C89.5716 91.7191 90.8553 91.8455 92.0219 92.3288C93.1884 92.812 94.1855 93.6303 94.8871 94.6802C95.5886 95.7301 95.963 96.9644 95.963 98.2271C95.9611 99.9198 95.2878 101.543 94.091 102.739C92.8941 103.936 91.2713 104.61 89.5787 104.611ZM89.5787 92.5148C88.4489 92.5148 87.3445 92.8498 86.4051 93.4775C85.4657 94.1052 84.7335 94.9973 84.3012 96.0411C83.8688 97.0849 83.7557 98.2335 83.9761 99.3415C84.1965 100.45 84.7406 101.467 85.5395 102.266C86.3383 103.065 87.3562 103.609 88.4643 103.83C89.5723 104.05 90.7209 103.937 91.7647 103.505C92.8085 103.072 93.7006 102.34 94.3283 101.401C94.9559 100.461 95.291 99.3569 95.291 98.2271C95.291 97.477 95.1432 96.7342 94.8562 96.0411C94.5691 95.3481 94.1483 94.7183 93.6179 94.1879C93.0875 93.6575 92.4577 93.2367 91.7647 92.9496C91.0716 92.6626 90.3288 92.5148 89.5787 92.5148Z" fill="#3F3D56"/>
<path d="M91.6246 101.147H91.6234C91.5272 101.147 91.4318 101.128 91.343 101.091C91.2541 101.054 91.1735 101 91.1057 100.932L89.8901 99.713C89.8063 99.6328 89.6949 99.588 89.5789 99.588C89.4629 99.5879 89.3514 99.6326 89.2675 99.7127L88.0519 100.932C87.9841 101 87.9035 101.055 87.8146 101.092C87.7258 101.128 87.6305 101.147 87.5342 101.147H87.5331C87.437 101.148 87.3418 101.129 87.253 101.092C87.1642 101.055 87.0836 101.001 87.0158 100.933L86.8944 100.812C86.7571 100.675 86.6798 100.489 86.6795 100.295C86.6791 100.101 86.7558 99.9143 86.8926 99.7765L88.1137 98.5515C88.1956 98.469 88.2416 98.3575 88.2416 98.2412C88.2415 98.125 88.1955 98.0135 88.1136 97.931L86.8648 96.6776C86.7279 96.54 86.6511 96.3537 86.6514 96.1595C86.6516 95.9654 86.7289 95.7793 86.8662 95.642L86.988 95.5207C87.0558 95.4526 87.1363 95.3987 87.2251 95.362C87.3139 95.3253 87.409 95.3066 87.5051 95.3069H87.5062C87.6025 95.3067 87.6978 95.3257 87.7866 95.3627C87.8755 95.3997 87.9562 95.454 88.0239 95.5224L89.2676 96.7698C89.3514 96.8498 89.4629 96.8945 89.5788 96.8945C89.6948 96.8945 89.8063 96.8498 89.8901 96.7698L91.1338 95.5224C91.2015 95.454 91.2822 95.3997 91.371 95.3627C91.4599 95.3257 91.5552 95.3067 91.6515 95.3069H91.6526C91.7487 95.3066 91.8439 95.3254 91.9327 95.3621C92.0215 95.3989 92.1021 95.4528 92.1699 95.5209L92.2915 95.642C92.4288 95.7793 92.506 95.9654 92.5063 96.1595C92.5066 96.3537 92.4298 96.54 92.2929 96.6776L91.0439 97.9308C90.962 98.0133 90.916 98.1248 90.916 98.2411C90.916 98.3574 90.962 98.4689 91.0439 98.5515L92.2649 99.7765C92.4018 99.9142 92.4785 100.101 92.4782 100.295C92.478 100.489 92.4007 100.675 92.2634 100.812L92.1417 100.934C92.0739 101.002 91.9933 101.055 91.9045 101.092C91.8158 101.129 91.7206 101.148 91.6246 101.147Z" fill="#CCCCCC"/>
<path d="M176.25 143.149H179.996L181.78 128.698H176.25V143.149Z" fill="#A0616A"/>
<path d="M187.222 146.628H175.447V142.079H182.736C183.325 142.079 183.908 142.195 184.452 142.42C184.997 142.645 185.491 142.976 185.908 143.392C186.324 143.809 186.655 144.304 186.88 144.848C187.106 145.392 187.222 145.976 187.222 146.565V146.628Z" fill="#2F2E41"/>
<path d="M177.567 120.757L174.982 123.47L163.29 114.794L167.104 110.79L177.567 120.757Z" fill="#A0616A"/>
<path d="M172.318 124.715L177.345 119.438L180.639 122.576L172.517 131.101L172.472 131.057C171.61 130.237 171.11 129.108 171.081 127.918C171.052 126.729 171.497 125.576 172.318 124.715Z" fill="#2F2E41"/>
<path d="M203.644 81.1678C203.881 80.7863 204.032 80.3574 204.086 79.9114C204.139 79.4654 204.094 79.013 203.954 78.5862C203.814 78.1594 203.582 77.7685 203.274 77.4411C202.967 77.1137 202.591 76.8577 202.174 76.6911L187.465 39.2034L181.731 42.6362L198.071 78.6C197.838 79.3194 197.877 80.0995 198.18 80.7923C198.483 81.4852 199.03 82.0427 199.717 82.3592C200.404 82.6757 201.183 82.7292 201.907 82.5096C202.631 82.2901 203.249 81.8126 203.644 81.1678Z" fill="#A0616A"/>
<path d="M147.813 83.8548C148.261 83.8227 148.697 83.6928 149.09 83.4741C149.482 83.2555 149.822 82.9535 150.085 82.5894C150.348 82.2252 150.528 81.8078 150.612 81.3666C150.697 80.9253 150.683 80.471 150.573 80.0355L172.272 46.1118L166.127 43.488L146.618 77.8363C145.899 78.07 145.29 78.5595 144.908 79.212C144.525 79.8644 144.395 80.6346 144.543 81.3764C144.69 82.1183 145.104 82.7803 145.707 83.2371C146.31 83.6939 147.059 83.9136 147.813 83.8548Z" fill="#A0616A"/>
<path d="M187.32 77.4138L183.479 134.499L174.3 133.689L172.41 91.5734L167.281 109.661L156.212 110.471L160.593 74.7141L187.32 77.4138Z" fill="#2F2E41"/>
<path d="M165.66 106.962L167.28 109.662L178.619 117.491L170.52 121.81C170.52 121.81 154.862 113.171 156.211 110.472L165.66 106.962Z" fill="#2F2E41"/>
<path d="M195.357 54.3174L192.162 45.3126C191.451 43.3092 190.35 41.4667 188.922 39.8918C187.495 38.3168 185.769 37.0406 183.845 36.137C179.52 34.5437 174.816 34.2863 170.343 35.398C169.976 35.4893 169.588 35.5855 169.18 35.6866C166.08 36.4384 163.175 37.8417 160.659 39.8033C158.689 41.3554 156.918 43.3208 156.761 45.4347C156.759 45.4393 156.758 45.4433 156.757 45.4479C156.211 47.8381 155.941 60.2568 155.941 60.2568H160.752L159.991 76.995L160.053 76.8738C160.053 76.8738 187.798 82.1244 187.798 79.4247V62.1466L188.367 55.8903L195.357 54.3174Z" fill="#E6E6E6"/>
<path d="M169.459 33.0592C173.706 33.0592 177.148 29.6168 177.148 25.3703C177.148 21.1238 173.706 17.6814 169.459 17.6814C165.213 17.6814 161.771 21.1238 161.771 25.3703C161.771 29.6168 165.213 33.0592 169.459 33.0592Z" fill="#A0616A"/>
<path d="M168.804 22.1818L162.338 22.1613C161.587 22.1589 160.767 22.1323 160.194 21.6457C159.333 20.9128 159.477 19.5298 159.939 18.4969C161.224 15.6205 164.414 13.7937 167.563 13.8783C170.713 13.9629 173.695 15.827 175.391 18.4815C177.088 21.1361 177.546 24.4887 176.907 27.5737C176.169 26.0051 175.031 24.6576 173.609 23.6659C172.187 22.6742 170.529 22.0729 168.802 21.922L168.804 22.1818Z" fill="#2F2E41"/>
</svg>
