<svg width="262" height="132" viewBox="0 0 262 132" fill="none" xmlns="http://www.w3.org/2000/svg">
<path d="M71.3325 107.388C78.425 107.388 84.1747 101.638 84.1747 94.5454C84.1747 87.4528 78.425 81.7031 71.3325 81.7031C64.2399 81.7031 58.4902 87.4528 58.4902 94.5454C58.4902 101.638 64.2399 107.388 71.3325 107.388Z" fill="#E4E4E4"/>
<path opacity="0.2" d="M61.8498 85.9678C60.6519 88.7699 60.4894 91.9066 61.3913 94.8175C62.2933 97.7283 64.2008 100.224 66.7732 101.858C69.3456 103.491 72.4151 104.157 75.4333 103.736C78.4515 103.315 81.2216 101.835 83.2488 99.5596C82.517 101.272 81.4218 102.804 80.039 104.051C78.6562 105.297 77.0189 106.228 75.2406 106.78C73.4622 107.331 71.5853 107.488 69.7398 107.242C67.8944 106.996 66.1246 106.351 64.553 105.353C62.9815 104.355 61.6457 103.027 60.6383 101.461C59.6309 99.8954 58.9759 98.1294 58.7188 96.2855C58.4617 94.4415 58.6085 92.5637 59.1491 90.7821C59.6898 89.0006 60.6113 87.3578 61.8498 85.9678Z" fill="black"/>
<path d="M71.3678 94.5454H71.4029L72.038 130.955H70.6973L71.3678 94.5454Z" fill="#3F3D56"/>
<path d="M45.3483 83.4386C59.6483 83.4386 71.2406 71.8462 71.2406 57.5463C71.2406 43.2464 59.6483 31.6541 45.3483 31.6541C31.0484 31.6541 19.4561 43.2464 19.4561 57.5463C19.4561 71.8462 31.0484 83.4386 45.3483 83.4386Z" fill="#E4E4E4"/>
<path opacity="0.2" d="M26.2308 40.2524C23.8156 45.9019 23.488 52.2262 25.3065 58.095C27.1249 63.9638 30.9709 68.9948 36.1573 72.289C41.3437 75.5832 47.5324 76.9259 53.6176 76.0772C59.7028 75.2285 65.2879 72.2436 69.375 67.6561C67.8996 71.1077 65.6915 74.1973 62.9035 76.7108C60.1156 79.2243 56.8145 81.1016 53.229 82.2127C49.6435 83.3238 45.8593 83.642 42.1385 83.1454C38.4178 82.6488 34.8496 81.3491 31.681 79.3366C28.5124 77.324 25.8192 74.6466 23.7881 71.4899C21.757 68.3331 20.4365 64.7725 19.9181 61.0548C19.3996 57.3371 19.6957 53.551 20.7857 49.9591C21.8758 46.3671 23.7337 43.0551 26.2308 40.2524Z" fill="black"/>
<path d="M45.4198 57.5461H45.4911L46.7715 130.955H44.0684L45.4198 57.5461Z" fill="#3F3D56"/>
<path d="M216.057 92.9592H97.3779V128.141H216.057V92.9592Z" fill="#F0F0F0"/>
<path d="M163.637 100.23H149.799V128.141H163.637V100.23Z" fill="#CACACA"/>
<path d="M209.138 51.4451H104.297V83.8121H209.138V51.4451Z" fill="#F0F0F0"/>
<path d="M219.767 53.4386H93.6677C93.4572 53.4386 93.2515 53.3756 93.077 53.2578C92.9026 53.14 92.7673 52.9727 92.6887 52.7774C92.6101 52.5821 92.5916 52.3678 92.6358 52.1619C92.6799 51.9561 92.7846 51.7682 92.9363 51.6223L127.399 18.4962V4.06722C127.4 3.78739 127.511 3.51912 127.709 3.32125C127.907 3.12339 128.175 3.01209 128.455 3.01177H135.256C135.536 3.01208 135.805 3.12338 136.002 3.32125C136.2 3.51911 136.312 3.78739 136.312 4.06722V9.92943L138.915 7.42733C143.175 3.33288 148.826 1.00235 154.734 0.904115C160.641 0.805879 166.367 2.94721 170.76 6.89777L220.472 51.5982C220.631 51.741 220.743 51.9286 220.793 52.1362C220.843 52.3438 220.829 52.5616 220.752 52.761C220.676 52.9603 220.541 53.1318 220.365 53.2528C220.189 53.3738 219.98 53.4386 219.767 53.4386V53.4386Z" fill="#CACACA"/>
<path d="M131.974 59.6541C132.851 59.6541 133.721 59.8269 134.532 60.1629C135.343 60.4988 136.079 60.9912 136.7 61.6119C137.321 62.2326 137.813 62.9695 138.149 63.7805C138.485 64.5915 138.658 65.4607 138.658 66.3385V75.3685H125.289V66.3385C125.289 65.4607 125.462 64.5915 125.798 63.7805C126.134 62.9695 126.626 62.2326 127.247 61.6119C127.868 60.9912 128.605 60.4988 129.415 60.1629C130.226 59.8269 131.096 59.6541 131.974 59.6541Z" fill="white"/>
<path d="M156.718 59.7712C158.491 59.7712 160.191 60.4755 161.444 61.7291C162.698 62.9827 163.402 64.6829 163.402 66.4557V75.4857H150.033V66.4557C150.033 64.6829 150.737 62.9827 151.991 61.7291C153.245 60.4755 154.945 59.7712 156.718 59.7712Z" fill="white"/>
<path d="M181.462 59.8884C183.235 59.8884 184.935 60.5927 186.188 61.8463C187.442 63.0999 188.146 64.8001 188.146 66.5729V75.6028H174.777V66.5729C174.777 64.8001 175.482 63.0999 176.735 61.8463C177.989 60.5927 179.689 59.8884 181.462 59.8884Z" fill="white"/>
<path d="M191.312 99.8782C193.085 99.8782 194.785 100.582 196.039 101.836C197.293 103.09 197.997 104.79 197.997 106.563V115.593H184.628V106.563C184.628 104.79 185.332 103.09 186.586 101.836C187.839 100.582 189.54 99.8782 191.312 99.8782Z" fill="white"/>
<path d="M125.172 99.8782C126.945 99.8782 128.645 100.582 129.898 101.836C131.152 103.09 131.856 104.79 131.856 106.563V115.593H118.487V106.563C118.487 105.685 118.66 104.816 118.996 104.005C119.332 103.194 119.824 102.457 120.445 101.836C121.066 101.215 121.803 100.723 122.614 100.387C123.425 100.051 124.294 99.8782 125.172 99.8782Z" fill="white"/>
<path d="M233.395 93.5084L211.132 83.6576C211.013 83.6047 210.883 83.5774 210.753 83.5774H104.652C104.531 83.5774 104.411 83.6008 104.298 83.6464L80.0653 93.4973C79.8638 93.5792 79.697 93.7287 79.5934 93.92C79.4899 94.1114 79.4562 94.3328 79.4979 94.5464C79.5396 94.7599 79.6543 94.9523 79.8223 95.0906C79.9902 95.2289 80.2011 95.3045 80.4186 95.3046H86.706V127.672H86.0023V130.955H227.432V127.672H226.259V95.3045H233.016C233.231 95.3045 233.439 95.2306 233.606 95.0951C233.773 94.9596 233.889 94.7709 233.933 94.5604C233.978 94.3499 233.949 94.1305 233.851 93.939C233.753 93.7475 233.592 93.5955 233.395 93.5084ZM224.383 127.672H88.5823V95.3045H224.383V127.672Z" fill="#CACACA"/>
<path d="M140.299 74.0784H123.178V76.8929H140.299V74.0784Z" fill="#CACACA"/>
<path d="M165.396 74.0784H148.274V76.8929H165.396V74.0784Z" fill="#CACACA"/>
<path d="M190.492 74.0784H173.37V76.8929H190.492V74.0784Z" fill="#CACACA"/>
<path d="M199.874 114.654H182.752V117.469H199.874V114.654Z" fill="#CACACA"/>
<path d="M133.498 114.654H116.376V117.469H133.498V114.654Z" fill="#CACACA"/>
<path d="M260.971 131.099H0.287413C0.211186 131.099 0.138081 131.068 0.084181 131.015C0.0302807 130.961 0 130.888 0 130.811C0 130.735 0.0302807 130.662 0.084181 130.608C0.138081 130.554 0.211186 130.524 0.287413 130.524H260.971C261.047 130.524 261.12 130.554 261.174 130.608C261.228 130.662 261.258 130.735 261.258 130.811C261.258 130.888 261.228 130.961 261.174 131.015C261.12 131.068 261.047 131.099 260.971 131.099Z" fill="#3F3D56"/>
<path d="M195.403 50.9623C195.403 51.1463 195.4 51.3331 195.397 51.5171C195.394 51.7384 195.388 51.9568 195.38 52.1781C195.371 52.3707 195.363 52.5604 195.351 52.75C195.317 53.3852 195.262 54.0176 195.187 54.6527C195.17 54.8137 195.15 54.9718 195.127 55.1327C195.11 55.2563 195.092 55.3828 195.072 55.5092C195.052 55.6501 195.032 55.7909 195.009 55.9317C194.963 56.2306 194.911 56.5295 194.854 56.8284C194.825 56.9779 194.796 57.1274 194.765 57.2768C194.704 57.5728 194.638 57.8718 194.569 58.1678C194.564 58.1908 194.558 58.2166 194.552 58.2397C194.518 58.3862 194.483 58.5299 194.446 58.6765C194.434 58.7196 194.426 58.7599 194.411 58.803C194.385 58.9122 194.357 59.0214 194.328 59.1306C194.288 59.2829 194.247 59.4324 194.204 59.5847C194.135 59.8204 194.066 60.0532 193.995 60.2889C193.986 60.3134 193.978 60.3383 193.972 60.3636C193.834 60.8091 193.687 61.2489 193.526 61.6857C193.443 61.9157 193.354 62.1485 193.265 62.3784C193.175 62.6083 193.083 62.8382 192.989 63.0653C192.897 63.2866 192.802 63.5079 192.707 63.7263C192.684 63.7781 192.661 63.8298 192.635 63.8816C192.534 64.1086 192.431 64.3299 192.325 64.5512C192.322 64.5541 192.322 64.5598 192.319 64.5627C192.236 64.7409 192.146 64.9191 192.057 65.0944C192.057 65.0998 192.055 65.1049 192.052 65.1088C191.965 65.2813 191.876 65.4537 191.784 65.6233L191.638 65.902L191.62 65.9337C191.437 66.2757 191.247 66.6149 191.046 66.9511C191.003 67.0259 190.959 67.1006 190.916 67.1724C190.873 67.2471 190.827 67.3219 190.781 67.3937C190.753 67.4455 190.721 67.4972 190.686 67.5489C190.626 67.6466 190.566 67.7472 190.502 67.8449C190.491 67.8651 190.477 67.8852 190.465 67.9053C190.356 68.0749 190.247 68.2416 190.137 68.4112C190.002 68.6152 189.864 68.8164 189.724 69.0176L186.602 74.0128L186.467 73.9007L186.43 73.8663H186.427L186.303 73.7628L185.964 73.4754C185.861 73.576 185.76 73.6766 185.657 73.7743C185.616 73.8145 185.573 73.8519 185.533 73.8921C185.501 73.9209 185.473 73.9496 185.441 73.9783C180.045 79.248 172.867 82.2995 165.328 82.5288H165.319C159.612 82.6856 153.963 81.3522 148.928 78.6603C148.816 78.6028 148.707 78.5453 148.598 78.4792C147.942 78.1228 147.301 77.7463 146.672 77.3439C146.669 77.341 146.666 77.341 146.663 77.3381C145.933 76.8208 145.221 76.2689 144.525 75.6826C140.794 72.5374 137.841 68.5705 135.9 64.0931C133.959 59.6156 133.081 54.7494 133.336 49.8758C133.345 49.6833 133.356 49.4936 133.371 49.301C133.417 48.6055 133.487 47.9128 133.583 47.223C133.609 47.0305 133.638 46.8379 133.667 46.6482H195.11C195.23 47.5277 195.314 48.412 195.36 49.301C195.388 49.8558 195.403 50.4076 195.403 50.9623Z" fill="#F0F0F0"/>
<path d="M195.109 46.6483C194.003 39.2921 190.294 32.577 184.656 27.7237C179.019 22.8704 171.827 20.2012 164.388 20.2012C156.949 20.2012 149.757 22.8704 144.119 27.7237C138.481 32.577 134.772 39.2921 133.666 46.6483C133.637 46.838 133.609 47.0305 133.583 47.2231C133.488 47.9129 133.417 48.6056 133.37 49.3011H195.359C195.313 48.413 195.23 47.5287 195.109 46.6483Z" fill="#3AAA35"/>
<path d="M166.4 78.6595H148.599V64.4192C148.927 57.9113 154.489 57.3858 159.716 57.7351C160.594 57.735 161.463 57.9078 162.274 58.2437C163.085 58.5796 163.822 59.0719 164.443 59.6926C165.063 60.3133 165.556 61.0502 165.892 61.8612C166.227 62.6722 166.4 63.5414 166.4 64.4192V78.6595Z" fill="#3AAA35"/>
<path d="M148.598 68.535V68.5379C148.598 68.5407 148.601 68.5407 148.603 68.5407L148.598 68.535ZM141.438 46.6485C141.427 46.7204 141.412 46.7922 141.401 46.8641C141.412 46.7922 141.427 46.7204 141.441 46.6485H141.438ZM141.082 49.3013C141.073 49.4105 141.065 49.5198 141.059 49.629C141.065 49.5198 141.073 49.4105 141.085 49.3013C141.084 49.2812 141.085 49.261 141.088 49.241C141.085 49.2611 141.085 49.2812 141.082 49.3013ZM148.598 68.5379C148.598 68.5407 148.601 68.5407 148.603 68.5407L148.598 68.535V68.5379ZM141.438 46.6485C141.427 46.7204 141.412 46.7922 141.401 46.8641C141.412 46.7922 141.427 46.7204 141.441 46.6485H141.438ZM141.059 49.629C141.065 49.5198 141.073 49.4105 141.085 49.3013C141.084 49.2812 141.085 49.261 141.088 49.241C141.085 49.2611 141.085 49.2812 141.082 49.3013C141.073 49.4105 141.065 49.5198 141.059 49.629ZM229.852 102.501C229.796 102.442 229.737 102.387 229.674 102.335L229.671 102.332L215.438 90.3209L215.07 90.0105L213.671 88.8292L213.32 88.5331L211.325 86.8489L210.779 86.389L209.65 85.4349L209.072 84.9462L203.623 80.3505L200.499 77.715L200.079 77.3614L190.873 69.5927C191.014 69.3915 191.152 69.1903 191.287 68.9862C191.396 68.8167 191.506 68.65 191.615 68.4804C191.626 68.4603 191.641 68.4401 191.652 68.42C191.715 68.3223 191.776 68.2217 191.836 68.124C191.871 68.0723 191.902 68.0205 191.931 67.9688C191.977 67.8969 192.023 67.8222 192.066 67.7475C192.109 67.6756 192.152 67.6009 192.195 67.5262C192.397 67.1899 192.586 66.8508 192.77 66.5088L192.787 66.4771L192.934 66.1983C193.026 66.0288 193.115 65.8563 193.201 65.6839C193.205 65.68 193.207 65.6748 193.207 65.6695C193.296 65.4942 193.385 65.316 193.469 65.1378C193.471 65.1349 193.471 65.1292 193.474 65.1263C193.581 64.905 193.684 64.6837 193.785 64.4566C193.811 64.4049 193.834 64.3532 193.857 64.3014C193.951 64.083 194.046 63.8617 194.138 63.6404C194.233 63.4133 194.325 63.1834 194.414 62.9534C194.503 62.7235 194.592 62.4907 194.676 62.2608C194.834 61.8211 194.982 61.3804 195.121 60.9387C195.128 60.9134 195.135 60.8885 195.144 60.864C195.216 60.6283 195.285 60.3955 195.354 60.1598C195.397 60.0075 195.437 59.858 195.478 59.7057C195.506 59.5965 195.535 59.4873 195.561 59.378C195.575 59.335 195.584 59.2947 195.595 59.2516C195.633 59.105 195.667 58.9613 195.702 58.8147C195.707 58.7917 195.713 58.7659 195.719 58.7429C195.788 58.4468 195.854 58.1479 195.914 57.8519C195.946 57.7024 195.975 57.553 196.003 57.4035C196.058 57.1046 196.113 56.8057 196.159 56.5068C196.182 56.366 196.202 56.2251 196.222 56.0843C196.242 55.9579 196.259 55.8314 196.277 55.7078C196.3 55.5468 196.32 55.3888 196.337 55.2278C196.412 54.5926 196.466 53.9603 196.501 53.3251C196.512 53.1354 196.521 52.9457 196.529 52.7532C196.538 52.5319 196.544 52.3134 196.547 52.0921C196.55 51.9082 196.552 51.7214 196.552 51.5374C196.552 50.9827 196.538 50.4309 196.509 49.8762C196.463 48.9881 196.38 48.1038 196.259 47.2233C195.23 39.6973 191.526 32.7933 185.825 27.7731C180.124 22.7529 172.807 19.952 165.211 19.8822C157.616 19.8124 150.248 22.4785 144.456 27.3932C138.664 32.3078 134.834 39.1427 133.667 46.6485C133.638 46.8382 133.609 47.0308 133.583 47.2233C133.488 47.9131 133.417 48.6058 133.371 49.3013C133.356 49.4939 133.345 49.6836 133.336 49.8762C133.081 54.7497 133.959 59.616 135.9 64.0934C137.841 68.5708 140.794 72.5377 144.525 75.683C145.221 76.2693 145.933 76.8211 146.663 77.3385C146.666 77.3413 146.669 77.3413 146.672 77.3442C146.916 77.5167 147.161 77.6862 147.408 77.8529C147.801 78.1116 148.198 78.3645 148.598 78.6059C148.629 78.6232 148.661 78.6433 148.692 78.6606C149.037 78.8675 149.385 79.0658 149.733 79.2584H149.736C151.03 79.9701 152.374 80.5887 153.757 81.1093C157.813 82.6356 162.14 83.3144 166.469 83.104H166.478C171.53 82.8595 176.45 81.4036 180.822 78.8589C181.458 78.491 182.084 78.0972 182.696 77.6776C182.849 77.5741 183.004 77.4678 183.153 77.3615C183.337 77.2321 183.521 77.097 183.705 76.962C183.708 76.962 183.708 76.9591 183.711 76.9591C183.725 76.9476 183.739 76.9371 183.754 76.9275C183.878 76.8326 184.004 76.7378 184.125 76.6458C184.156 76.6228 184.188 76.5998 184.22 76.5739C184.228 76.5681 184.236 76.5613 184.243 76.5538C184.314 76.5021 184.383 76.4446 184.455 76.39C184.527 76.3354 184.596 76.2779 184.668 76.2204C184.68 76.2127 184.692 76.2041 184.702 76.1945C184.783 76.1284 184.863 76.0652 184.944 75.9991C185.027 75.933 185.108 75.864 185.185 75.7979C185.266 75.7318 185.343 75.6657 185.424 75.5967C185.493 75.5392 185.565 75.4789 185.634 75.4156C185.657 75.3984 185.677 75.3783 185.7 75.3582C185.709 75.3496 185.718 75.3419 185.728 75.3351C185.823 75.2547 185.915 75.1713 186.007 75.088C186.03 75.0679 186.05 75.0477 186.073 75.0276C186.214 74.9012 186.355 74.7747 186.493 74.6425C186.525 74.6137 186.559 74.5821 186.591 74.5534C186.622 74.5246 186.651 74.4959 186.683 74.4672C186.723 74.427 186.766 74.3896 186.806 74.3494C186.91 74.2516 187.01 74.151 187.114 74.0504L187.453 74.3379L187.577 74.4413H187.579L187.617 74.4758L187.752 74.5879L189.758 76.2836L189.801 76.321L189.836 76.3469L190.063 76.5394L190.517 76.9246L190.971 77.3068L191.037 77.3615L193.15 79.1434L193.443 79.3906L195.48 81.1093L206.028 90.0105L206.396 90.3209L220.833 102.501L224.535 105.626L225.912 106.787C226.204 107.034 226.542 107.221 226.907 107.338C227.271 107.454 227.655 107.498 228.037 107.466C228.418 107.434 228.79 107.327 229.13 107.151C229.47 106.975 229.772 106.734 230.019 106.442C230.226 106.199 230.39 105.923 230.505 105.626C230.713 105.098 230.763 104.521 230.647 103.966C230.531 103.41 230.254 102.901 229.852 102.501ZM146.597 35.8763C149.481 32.4594 153.272 29.9279 157.533 28.5743C161.794 27.2207 166.351 27.1002 170.678 28.2267C175.005 29.3532 178.924 31.6808 181.984 34.9406C185.044 38.2004 187.119 42.2593 187.97 46.6485C188.008 46.8411 188.042 47.0308 188.074 47.2233C188.192 47.9103 188.278 48.6058 188.33 49.3013C188.344 49.4939 188.358 49.6836 188.367 49.8762C188.393 50.3073 188.404 50.7413 188.404 51.1724C188.406 53.7875 187.973 56.3848 187.122 58.8578V58.8607C186.172 61.6336 184.713 64.2049 182.82 66.4427C182.78 66.4886 182.739 66.5375 182.696 66.5835C182.317 67.0318 181.917 67.463 181.506 67.874C181.504 67.8769 181.501 67.8826 181.498 67.8855C181.357 68.0263 181.213 68.17 181.07 68.3022C180.776 68.5868 180.477 68.8569 180.173 69.1156C179.716 69.5151 179.247 69.8897 178.767 70.2394C178.606 70.3572 178.445 70.4722 178.282 70.5872C178.121 70.7021 177.957 70.8113 177.793 70.9206C177.465 71.139 177.132 71.3488 176.796 71.5471C176.629 71.6477 176.457 71.7454 176.287 71.8403C176.117 71.938 175.945 72.0299 175.773 72.1191C175.6 72.211 175.428 72.3001 175.252 72.3863C174.905 72.5617 174.554 72.7255 174.197 72.8778C174.019 72.9583 173.841 73.033 173.663 73.102C173.551 73.148 173.442 73.194 173.33 73.2342C173.286 73.2545 173.241 73.2718 173.194 73.286C173.134 73.3118 173.074 73.3348 173.013 73.3549C172.994 73.3638 172.974 73.3715 172.953 73.3779C172.829 73.4268 172.709 73.4699 172.582 73.513C172.401 73.5791 172.22 73.6395 172.036 73.697C171.852 73.7573 171.671 73.8148 171.487 73.8665C171.303 73.924 171.116 73.9758 170.932 74.0246C170.746 74.0764 170.562 74.1252 170.375 74.1683C170.177 74.2201 169.978 74.2661 169.777 74.3091C169.602 74.3494 169.429 74.3839 169.254 74.4155C169.09 74.45 168.924 74.4787 168.76 74.5075C168.53 74.5477 168.3 74.5851 168.067 74.6167C167.94 74.6368 167.817 74.6541 167.69 74.6655C167.636 74.6742 167.584 74.6799 167.532 74.6857C167.371 74.7087 167.21 74.7259 167.052 74.7403C167.009 74.7431 166.969 74.7489 166.929 74.7518C166.754 74.769 166.575 74.7834 166.4 74.7978C166.023 74.8236 165.65 74.8409 165.273 74.8495C165.084 74.8524 164.891 74.8552 164.701 74.8552C164.512 74.8552 164.322 74.8524 164.132 74.8466C164.132 74.8466 164.132 74.8495 164.129 74.8466C164.127 74.8495 164.127 74.8495 164.124 74.8466C164.123 74.847 164.123 74.8473 164.122 74.8475C164.122 74.8477 164.121 74.8478 164.121 74.8478C164.12 74.8478 164.12 74.8477 164.119 74.8475C164.119 74.8473 164.118 74.847 164.118 74.8466C164.109 74.8495 164.099 74.8495 164.089 74.8466C163.954 74.8466 163.819 74.8409 163.687 74.8322C163.589 74.8294 163.488 74.8265 163.388 74.8179C163.253 74.8121 163.118 74.8035 162.983 74.792C162.94 74.792 162.896 74.7863 162.853 74.7834C162.833 74.7829 162.813 74.781 162.793 74.7777C162.655 74.7662 162.514 74.7547 162.376 74.7403C162.307 74.7345 162.235 74.7288 162.166 74.7202C161.957 74.6972 161.747 74.6713 161.54 74.6426C161.304 74.6138 161.068 74.5793 160.836 74.5362C160.726 74.5218 160.62 74.5017 160.514 74.4816C160.373 74.4586 160.232 74.4327 160.091 74.404C159.945 74.3753 159.798 74.3465 159.651 74.312C159.534 74.2862 159.413 74.2603 159.295 74.2316C159.238 74.2201 159.18 74.2057 159.126 74.1913C158.824 74.1195 158.525 74.0419 158.229 73.9556C158.042 73.9039 157.855 73.8493 157.671 73.7918C157.418 73.7142 157.168 73.6309 156.918 73.5418C156.821 73.5102 156.726 73.4757 156.628 73.4383C156.53 73.4067 156.435 73.3693 156.338 73.332C156.249 73.3003 156.159 73.2659 156.073 73.2313C155.93 73.1768 155.789 73.1193 155.648 73.0618C155.358 72.9439 155.073 72.8204 154.788 72.6882C154.627 72.6106 154.467 72.5359 154.309 72.4582C153.685 72.1565 153.071 71.8211 152.466 71.4523C152.317 71.3632 152.167 71.2684 152.018 71.1735C151.831 71.0586 151.65 70.9378 151.469 70.8171C151.368 70.7481 151.271 70.682 151.173 70.6131C150.992 70.4866 150.814 70.3572 150.638 70.2279C150.546 70.1618 150.454 70.0928 150.365 70.0238C150.046 69.7824 149.733 69.5295 149.425 69.2708C149.279 69.1472 149.132 69.0208 148.988 68.8915C148.928 68.8397 148.868 68.7851 148.807 68.7305C148.738 68.6673 148.669 68.6069 148.603 68.5408L148.598 68.5351C148.497 68.446 148.396 68.3511 148.299 68.2563C148.146 68.1126 147.997 67.966 147.853 67.8165C147.704 67.67 147.56 67.5176 147.419 67.3682C147.276 67.2187 147.138 67.0664 147.002 66.9111C146.865 66.7588 146.729 66.6037 146.597 66.4456C146.468 66.2961 146.341 66.1409 146.221 65.9886C145.928 65.6264 145.648 65.2576 145.381 64.882C145.258 64.7096 145.14 64.5371 145.025 64.3618C144.901 64.1836 144.784 64.0026 144.672 63.8215C144.554 63.6404 144.442 63.4564 144.332 63.2696C144.33 63.2633 144.326 63.2574 144.321 63.2524C144.105 62.8874 143.898 62.5195 143.706 62.1458C143.508 61.7665 143.321 61.3833 143.145 60.9962C143.056 60.8036 142.97 60.6082 142.89 60.4128C142.723 60.019 142.568 59.6253 142.424 59.2257C142.352 59.0332 142.286 58.8406 142.22 58.6451C142.218 58.6322 142.214 58.6197 142.208 58.6078C142.076 58.2111 141.956 57.8117 141.849 57.4093C141.846 57.4036 141.846 57.3978 141.843 57.3921C141.789 57.1937 141.737 56.9954 141.691 56.7942C141.645 56.6189 141.605 56.4436 141.567 56.2654C141.524 56.0671 141.481 55.8688 141.444 55.6676C141.424 55.5641 141.404 55.4606 141.386 55.3572C141.369 55.2709 141.355 55.1818 141.34 55.0956C141.326 55.0094 141.312 54.9203 141.297 54.8312C141.269 54.6559 141.243 54.4806 141.22 54.3053C141.191 54.0983 141.168 53.8914 141.145 53.6815C141.119 53.4315 141.096 53.1814 141.076 52.9285C141.062 52.7589 141.053 52.5865 141.044 52.4141C141.036 52.256 141.027 52.0979 141.024 51.9398C141.021 51.9314 141.021 51.9223 141.024 51.914C141.024 51.9136 141.024 51.9132 141.023 51.9127C141.023 51.9122 141.023 51.9116 141.023 51.9111C141.023 51.9106 141.023 51.91 141.023 51.9095C141.024 51.909 141.024 51.9086 141.024 51.9082C141.021 51.9053 141.021 51.9053 141.024 51.9025C141.024 51.9021 141.024 51.9016 141.023 51.9012C141.023 51.9007 141.023 51.9001 141.023 51.8996C141.023 51.8991 141.023 51.8985 141.023 51.898C141.024 51.8975 141.024 51.8971 141.024 51.8967C141.021 51.8335 141.019 51.7703 141.019 51.7071C141.013 51.5202 141.01 51.3334 141.01 51.1466C141.01 50.977 141.013 50.8103 141.016 50.6407C141.021 50.4051 141.03 50.1694 141.041 49.9337C141.041 49.882 141.047 49.8331 141.05 49.7814C141.053 49.7296 141.056 49.6808 141.059 49.629C141.064 49.5198 141.073 49.4106 141.085 49.3014C141.084 49.2812 141.085 49.2611 141.088 49.241C141.096 49.1174 141.108 48.9939 141.119 48.8703C141.142 48.6231 141.171 48.373 141.202 48.1259C141.22 48.0023 141.234 47.8787 141.254 47.7551C141.266 47.6689 141.28 47.5798 141.294 47.4907C141.306 47.4016 141.32 47.3125 141.338 47.2234C141.358 47.1056 141.378 46.9848 141.401 46.8641C141.412 46.7923 141.427 46.7204 141.441 46.6486C141.496 46.3612 141.556 46.0737 141.622 45.7863C141.688 45.496 141.763 45.2086 141.843 44.9212C141.921 44.6309 142.007 44.3406 142.099 44.0504C142.142 43.9038 142.188 43.7601 142.24 43.6164C142.335 43.3261 142.435 43.0387 142.548 42.7541C142.599 42.6133 142.654 42.4696 142.714 42.3288C142.829 42.0442 142.95 41.7597 143.073 41.4809C143.137 41.34 143.2 41.1992 143.269 41.0584C143.398 40.7796 143.533 40.5008 143.68 40.2278C143.821 39.949 143.973 39.6759 144.128 39.4058C144.284 39.1356 144.444 38.8654 144.614 38.5981C144.692 38.4659 144.778 38.3308 144.867 38.2015C145.039 37.9371 145.22 37.6727 145.404 37.414C145.775 36.8908 146.175 36.3764 146.597 35.8763ZM141.082 49.3013C141.073 49.4105 141.065 49.5198 141.059 49.629C141.065 49.5198 141.073 49.4105 141.085 49.3013C141.084 49.2812 141.085 49.261 141.088 49.241C141.085 49.2611 141.085 49.2812 141.082 49.3013ZM141.438 46.6485C141.427 46.7204 141.412 46.7922 141.401 46.8641C141.412 46.7922 141.427 46.7204 141.441 46.6485H141.438ZM148.598 68.535V68.5379C148.598 68.5407 148.601 68.5407 148.603 68.5407L148.598 68.535Z" fill="#3F3D56"/>
<path opacity="0.3" d="M149.425 69.2705C144.879 65.4342 141.942 60.0285 141.197 54.1269C140.452 48.2252 141.954 42.2593 145.404 37.4136C144.951 37.8699 144.513 38.3478 144.09 38.8472C142.083 41.2256 140.564 43.976 139.62 46.9414C138.676 49.9067 138.326 53.029 138.588 56.1299C138.851 59.2307 139.722 62.2495 141.151 65.0138C142.581 67.7781 144.541 70.2338 146.919 72.2406C151.722 76.2937 157.939 78.2727 164.202 77.7421C170.464 77.2116 176.259 74.215 180.312 69.4116C180.734 68.9115 181.132 68.3993 181.505 67.8751C177.308 72.0913 171.68 74.5752 165.737 74.8337C159.794 75.0923 153.972 73.1064 149.425 69.2705Z" fill="black"/>
</svg>
