<svg width="15" height="8" viewBox="0 0 15 8" fill="none" xmlns="http://www.w3.org/2000/svg">
<path d="M7.02316 0.00216518C7.25681 0.00170887 7.48325 0.0830835 7.66316 0.232165L13.6632 5.23217C13.8674 5.4019 13.9958 5.64582 14.0202 5.91024C14.0446 6.17467 13.9629 6.43795 13.7932 6.64217C13.6234 6.84638 13.3795 6.97481 13.1151 6.99919C12.8507 7.02357 12.5874 6.9419 12.3832 6.77217L7.02316 2.29217L1.66316 6.61216C1.56087 6.69523 1.44318 6.75726 1.31684 6.79469C1.1905 6.83213 1.05801 6.84422 0.92698 6.83028C0.795952 6.81634 0.668969 6.77664 0.553332 6.71347C0.437696 6.6503 0.335684 6.56489 0.253161 6.46216C0.161582 6.35934 0.0922223 6.23872 0.04943 6.10784C0.00663766 5.97697 -0.00866498 5.83867 0.00447761 5.70161C0.0176202 5.56454 0.0589267 5.43167 0.12581 5.31131C0.192693 5.19096 0.283713 5.08571 0.393163 5.00216L6.39316 0.172165C6.57825 0.0466493 6.80006 -0.0132057 7.02316 0.00216518Z" fill="#5E97B1"/>
</svg>
