<svg width="206" height="115" viewBox="0 0 206 115" fill="none" xmlns="http://www.w3.org/2000/svg">
<g opacity="0.5">
<circle cx="2.5" cy="18.4607" r="2.5" fill="#BDFFBA"/>
<circle cx="2.5" cy="49.7008" r="2.5" fill="#BDFFBA"/>
<circle cx="2.5" cy="80.941" r="2.5" fill="#BDFFBA"/>
<circle cx="2.5" cy="112.5" r="2.5" fill="#BDFFBA"/>
<circle cx="42.5264" cy="18.4607" r="2.5" fill="#BDFFBA"/>
<circle cx="42.5264" cy="49.7008" r="2.5" fill="#BDFFBA"/>
<circle cx="42.5264" cy="80.941" r="2.5" fill="#BDFFBA"/>
<circle cx="42.5264" cy="112.5" r="2.5" fill="#BDFFBA"/>
<circle cx="82.5527" cy="18.4607" r="2.5" fill="#BDFFBA"/>
<circle cx="82.5527" cy="49.7008" r="2.5" fill="#BDFFBA"/>
<circle cx="82.5527" cy="80.941" r="2.5" fill="#BDFFBA"/>
<circle cx="82.5527" cy="112.181" r="2.5" fill="#BDFFBA"/>
<circle cx="122.58" cy="18.4607" r="2.5" fill="#BDFFBA"/>
<circle cx="122.58" cy="49.7008" r="2.5" fill="#BDFFBA"/>
<circle cx="122.58" cy="80.941" r="2.5" fill="#BDFFBA"/>
<circle cx="122.58" cy="112.181" r="2.5" fill="#BDFFBA"/>
<circle cx="162.605" cy="18.4607" r="2.5" fill="#BDFFBA"/>
<circle cx="162.605" cy="49.7008" r="2.5" fill="#BDFFBA"/>
<circle cx="162.605" cy="80.941" r="2.5" fill="#BDFFBA"/>
<circle cx="162.605" cy="112.181" r="2.5" fill="#BDFFBA"/>
<circle cx="202.633" cy="18.4607" r="2.5" fill="#BDFFBA"/>
<circle cx="202.633" cy="49.7008" r="2.5" fill="#BDFFBA"/>
<circle cx="202.633" cy="80.941" r="2.5" fill="#BDFFBA"/>
<circle cx="202.633" cy="112.181" r="2.5" fill="#BDFFBA"/>
</g>
</svg>
