<svg width="206" height="458" viewBox="0 0 206 458" fill="none" xmlns="http://www.w3.org/2000/svg">
<g opacity="0.5">
<circle cx="2.5" cy="2.5" r="2.5" fill="#FFAC33"/>
<circle cx="2.5" cy="33.7402" r="2.5" fill="#FFAC33"/>
<circle cx="2.5" cy="64.9803" r="2.5" fill="#FFAC33"/>
<circle cx="2.5" cy="96.2205" r="2.5" fill="#FFAC33"/>
<circle cx="2.5" cy="127.461" r="2.5" fill="#FFAC33"/>
<circle cx="2.5" cy="158.701" r="2.5" fill="#FFAC33"/>
<circle cx="2.5" cy="189.941" r="2.5" fill="#FFAC33"/>
<circle cx="2.5" cy="221.5" r="2.5" fill="#FFAC33"/>
<circle cx="42.5264" cy="2.5" r="2.5" fill="#FFAC33"/>
<circle cx="42.5264" cy="33.7402" r="2.5" fill="#FFAC33"/>
<circle cx="42.5264" cy="64.9803" r="2.5" fill="#FFAC33"/>
<circle cx="42.5264" cy="96.2205" r="2.5" fill="#FFAC33"/>
<circle cx="42.5264" cy="127.461" r="2.5" fill="#FFAC33"/>
<circle cx="42.5264" cy="158.701" r="2.5" fill="#FFAC33"/>
<circle cx="42.5264" cy="189.941" r="2.5" fill="#FFAC33"/>
<circle cx="42.5264" cy="221.5" r="2.5" fill="#FFAC33"/>
<circle cx="82.5532" cy="2.5" r="2.5" fill="#FFAC33"/>
<circle cx="82.5532" cy="33.7402" r="2.5" fill="#FFAC33"/>
<circle cx="82.5532" cy="64.9803" r="2.5" fill="#FFAC33"/>
<circle cx="82.5532" cy="96.2205" r="2.5" fill="#FFAC33"/>
<circle cx="82.5532" cy="127.461" r="2.5" fill="#FFAC33"/>
<circle cx="82.5532" cy="158.701" r="2.5" fill="#FFAC33"/>
<circle cx="82.5532" cy="189.941" r="2.5" fill="#FFAC33"/>
<circle cx="82.5532" cy="221.181" r="2.5" fill="#FFAC33"/>
<circle cx="122.58" cy="2.5" r="2.5" fill="#FFAC33"/>
<circle cx="122.58" cy="33.7402" r="2.5" fill="#FFAC33"/>
<circle cx="122.58" cy="64.9803" r="2.5" fill="#FFAC33"/>
<circle cx="122.58" cy="96.2205" r="2.5" fill="#FFAC33"/>
<circle cx="122.58" cy="127.461" r="2.5" fill="#FFAC33"/>
<circle cx="122.58" cy="158.701" r="2.5" fill="#FFAC33"/>
<circle cx="122.58" cy="189.941" r="2.5" fill="#FFAC33"/>
<circle cx="122.58" cy="221.181" r="2.5" fill="#FFAC33"/>
<circle cx="162.606" cy="2.5" r="2.5" fill="#FFAC33"/>
<circle cx="162.606" cy="33.7402" r="2.5" fill="#FFAC33"/>
<circle cx="162.606" cy="64.9803" r="2.5" fill="#FFAC33"/>
<circle cx="162.606" cy="96.2205" r="2.5" fill="#FFAC33"/>
<circle cx="162.606" cy="127.461" r="2.5" fill="#FFAC33"/>
<circle cx="162.606" cy="158.701" r="2.5" fill="#FFAC33"/>
<circle cx="162.606" cy="189.941" r="2.5" fill="#FFAC33"/>
<circle cx="162.606" cy="221.181" r="2.5" fill="#FFAC33"/>
<circle cx="202.632" cy="2.5" r="2.5" fill="#FFAC33"/>
<circle cx="202.632" cy="33.7402" r="2.5" fill="#FFAC33"/>
<circle cx="202.632" cy="64.9803" r="2.5" fill="#FFAC33"/>
<circle cx="202.632" cy="96.2205" r="2.5" fill="#FFAC33"/>
<circle cx="202.632" cy="127.461" r="2.5" fill="#FFAC33"/>
<circle cx="202.632" cy="158.701" r="2.5" fill="#FFAC33"/>
<circle cx="202.632" cy="189.941" r="2.5" fill="#FFAC33"/>
<circle cx="202.632" cy="221.181" r="2.5" fill="#FFAC33"/>
</g>
<g opacity="0.5">
<circle cx="2.5" cy="236.5" r="2.5" fill="#3AAA35"/>
<circle cx="2.5" cy="267.74" r="2.5" fill="#3AAA35"/>
<circle cx="2.5" cy="298.98" r="2.5" fill="#3AAA35"/>
<circle cx="2.5" cy="330.22" r="2.5" fill="#3AAA35"/>
<circle cx="2.5" cy="361.461" r="2.5" fill="#3AAA35"/>
<circle cx="2.5" cy="392.701" r="2.5" fill="#3AAA35"/>
<circle cx="2.5" cy="423.941" r="2.5" fill="#3AAA35"/>
<circle cx="2.5" cy="455.5" r="2.5" fill="#3AAA35"/>
<circle cx="42.5264" cy="236.5" r="2.5" fill="#3AAA35"/>
<circle cx="42.5264" cy="267.74" r="2.5" fill="#3AAA35"/>
<circle cx="42.5264" cy="298.98" r="2.5" fill="#3AAA35"/>
<circle cx="42.5264" cy="330.22" r="2.5" fill="#3AAA35"/>
<circle cx="42.5264" cy="361.461" r="2.5" fill="#3AAA35"/>
<circle cx="42.5264" cy="392.701" r="2.5" fill="#3AAA35"/>
<circle cx="42.5264" cy="423.941" r="2.5" fill="#3AAA35"/>
<circle cx="42.5264" cy="455.5" r="2.5" fill="#3AAA35"/>
<circle cx="82.5532" cy="236.5" r="2.5" fill="#3AAA35"/>
<circle cx="82.5532" cy="267.74" r="2.5" fill="#3AAA35"/>
<circle cx="82.5532" cy="298.98" r="2.5" fill="#3AAA35"/>
<circle cx="82.5532" cy="330.22" r="2.5" fill="#3AAA35"/>
<circle cx="82.5532" cy="361.461" r="2.5" fill="#3AAA35"/>
<circle cx="82.5532" cy="392.701" r="2.5" fill="#3AAA35"/>
<circle cx="82.5532" cy="423.941" r="2.5" fill="#3AAA35"/>
<circle cx="82.5532" cy="455.181" r="2.5" fill="#3AAA35"/>
<circle cx="122.58" cy="236.5" r="2.5" fill="#3AAA35"/>
<circle cx="122.58" cy="267.74" r="2.5" fill="#3AAA35"/>
<circle cx="122.58" cy="298.98" r="2.5" fill="#3AAA35"/>
<circle cx="122.58" cy="330.22" r="2.5" fill="#3AAA35"/>
<circle cx="122.58" cy="361.461" r="2.5" fill="#3AAA35"/>
<circle cx="122.58" cy="392.701" r="2.5" fill="#3AAA35"/>
<circle cx="122.58" cy="423.941" r="2.5" fill="#3AAA35"/>
<circle cx="122.58" cy="455.181" r="2.5" fill="#3AAA35"/>
<circle cx="162.606" cy="236.5" r="2.5" fill="#3AAA35"/>
<circle cx="162.606" cy="267.74" r="2.5" fill="#3AAA35"/>
<circle cx="162.606" cy="298.98" r="2.5" fill="#3AAA35"/>
<circle cx="162.606" cy="330.22" r="2.5" fill="#3AAA35"/>
<circle cx="162.606" cy="361.461" r="2.5" fill="#3AAA35"/>
<circle cx="162.606" cy="392.701" r="2.5" fill="#3AAA35"/>
<circle cx="162.606" cy="423.941" r="2.5" fill="#3AAA35"/>
<circle cx="162.606" cy="455.181" r="2.5" fill="#3AAA35"/>
<circle cx="202.632" cy="236.5" r="2.5" fill="#3AAA35"/>
<circle cx="202.632" cy="267.74" r="2.5" fill="#3AAA35"/>
<circle cx="202.632" cy="298.98" r="2.5" fill="#3AAA35"/>
<circle cx="202.632" cy="330.22" r="2.5" fill="#3AAA35"/>
<circle cx="202.632" cy="361.461" r="2.5" fill="#3AAA35"/>
<circle cx="202.632" cy="392.701" r="2.5" fill="#3AAA35"/>
<circle cx="202.632" cy="423.941" r="2.5" fill="#3AAA35"/>
<circle cx="202.632" cy="455.181" r="2.5" fill="#3AAA35"/>
</g>
</svg>
