<svg width="32" height="22" viewBox="0 0 32 22" fill="none" xmlns="http://www.w3.org/2000/svg">
<path d="M30.7846 3.4589C30.6057 2.79539 30.2563 2.19028 29.7709 1.70381C29.2855 1.21734 28.6812 0.866477 28.0181 0.686137C25.5594 0.0110022 15.7228 1.19271e-05 15.7228 1.19271e-05C15.7228 1.19271e-05 5.88781 -0.010979 3.42749 0.634324C2.7648 0.822964 2.16172 1.17879 1.67617 1.66765C1.19061 2.15651 0.838874 2.76197 0.654726 3.42593C0.00628291 5.88468 2.3004e-06 10.9843 2.3004e-06 10.9843C2.3004e-06 10.9843 -0.006278 16.109 0.637455 18.5427C0.998574 19.8882 2.05838 20.9512 3.40551 21.3139C5.88938 21.989 15.6992 22 15.6992 22C15.6992 22 25.5358 22.011 27.9945 21.3672C28.6579 21.1872 29.2628 20.8372 29.7494 20.3517C30.2359 19.8662 30.5874 19.2621 30.7689 18.5992C31.4189 16.142 31.4236 11.044 31.4236 11.044C31.4236 11.044 31.455 5.91765 30.7846 3.4589ZM12.5764 15.7087L12.5842 6.28819L20.7596 11.0063L12.5764 15.7087Z" fill="white"/>
</svg>
