<?xml version="1.0" encoding="utf-8"?>
<!-- Generator: Adobe Illustrator 24.0.1, SVG Export Plug-In . SVG Version: 6.00 Build 0)  -->
<svg version="1.1" id="Layer_1" xmlns="http://www.w3.org/2000/svg" xmlns:xlink="http://www.w3.org/1999/xlink" x="0px" y="0px"
	 viewBox="0 0 238.5 58.7" style="enable-background:new 0 0 238.5 58.7;" xml:space="preserve">
<style type="text/css">
	.st0{fill:#54575C;}
</style>
<g transform="translate(-44.149 -83.302)">
	<path class="st0" d="M82.6,136c-3,2.8-4.9,6.4-9.5,6c-1.8,0-3.6-0.8-4.9-2c-7.3-7.3-14.6-14.5-21.8-21.8c-3-2.8-3.1-7.5-0.3-10.5
		c0.1-0.1,0.3-0.3,0.4-0.4c4-4.1,8.1-8.1,12.1-12.2c0.6,0.8,0.4,1.5,0.4,2.3c0,7.3,0.1,14.5,0,21.8c-0.1,2.7,1.5,2.3,3.1,2.4
		c1.7,0,3,0,2.7-2.3c-0.2-1.9,0-3.9,0-5.9c0-1.2,0.4-1.5,1.6-1.5c3.5,0,6.9,0.1,10.4,0c1.4,0,1.8,0.4,1.8,1.8
		c-0.1,6.2,0,12.4,0,18.6C78.6,135.6,78.6,135.6,82.6,136z"/>
	<path class="st0" d="M61.4,93c2.4-2.8,5-5.5,7.8-8.1c2.9-2.5,6.8-2.1,9.7,0.6c7.3,7.2,14.6,14.5,21.8,21.8c2.9,3,3.4,7,0.5,10
		c-5.3,5.6-11,10.9-16.7,16.5v-4.7c0-5,0.1-10,0-15c-0.1-2.3,0.7-2.9,2.8-2.6c1.1,0.1,2.3,0.1,3.4,0c2.9,0,4.1-1.9,3-4.6
		c-0.5-1.1-1.4-0.7-2.1-0.7c-8,0-16-0.1-24,0c-2,0-2.5-0.5-2.5-2.5c0.1-5,0-5,5.1-5c2.7,0,5.4-0.1,8.2,0c1.9,0.1,2.4-0.6,2.2-2.4
		c0-0.2,0-0.5,0-0.7c0.3-2-0.4-2.8-2.6-2.7C72.4,93.2,66.9,93,61.4,93z"/>
	<path class="st0" d="M110.7,107.5c0-3.9,0-7.8,0-11.8c0-1.5,0.3-2.1,2-2.1c5.1,0.1,10.2,0.1,15.4,0c1.7,0,1.9,0.7,1.9,2.1
		s0,2.4-2,2.4c-3.5-0.2-7.1,0-10.6-0.1c-1.9-0.1-2.3,0.6-2.3,2.4c0,6,0,6,6,6c2.3,0,4.5,0,6.8,0c1.8,0,1.4,1.2,1.4,2.2
		s0.4,2.2-1.4,2.2c-3.5,0-6.9,0.1-10.4,0c-1.9-0.1-2.5,0.7-2.4,2.5c0.1,2.2,0,4.4,0,6.6c0.1,2-1.4,1.4-2.3,1.4c-1,0-2.3,0.3-2-1.4
		v-0.2C110.7,115.5,110.7,111.4,110.7,107.5z"/>
	<path class="st0" d="M199.4,109.5c0-3-0.1-6,0-9c0.1-2.2-0.7-2.8-2.7-2.6c-1.6,0.1-3.2-0.1-4.8,0c-1.7,0.1-1.7-0.8-1.5-1.9
		c0.1-1-0.5-2.3,1.5-2.3c6.5,0.1,13,0.1,19.4,0c1.7,0,1.6,0.9,1.5,2c-0.1,1,0.5,2.4-1.5,2.3c-1.6-0.1-3.2,0.1-4.8,0
		c-2.1-0.2-2.8,0.5-2.7,2.6c0.1,6.3,0,12.5,0.1,18.8c0,2-0.9,1.9-2.3,1.9s-2.6,0.2-2.5-2C199.6,116,199.5,112.7,199.4,109.5z"/>
	<path class="st0" d="M247.4,111.7v7.9c0,0.9,0,1.9-1.2,1.5c-1-0.3-2.6,1.1-2.7-1.1c-0.1-1.9-1-1.2-1.9-0.5
		c-2.3,1.9-5.5,2.4-8.3,1.3c-3.5-1.2-4.7-4.3-4.9-7.7c-0.1-3.1,0-6.2-0.1-9.3c0-1.7,0.8-1.8,2.1-1.8c1.2,0,2.2,0,2.2,1.7
		c0,3.2-0.4,6.3,0.2,9.5c0.6,3.3,2.8,4.8,6.1,4.2c2.4-0.5,4-2.4,4.1-5.2c0-2.9,0.1-5.8,0-8.6c-0.1-1.9,1.2-1.5,2.2-1.5
		c1.1,0,2.3-0.3,2.2,1.6C247.3,106.2,247.4,109,247.4,111.7z"/>
	<path class="st0" d="M165.7,101.5c1.8-0.2,3.6,0.1,5.2,0.8c1,0.5,1.8,1.1,1.1,2.3c-0.5,0.9-1.1,2-2.6,1c-1.7-1.1-3.6-0.9-5.5-0.6
		c-1.1,0-2.1,0.9-2.1,2c0,1.2,0.9,1.6,1.8,2c1.6,0.7,3.3,0.3,4.9,0.8c4.2,1.1,5.1,2.2,5.1,6.2c0,2.9-1.6,4.7-5.3,5.4
		c-3.5,0.6-6.9,0.4-10-1.7c-0.8-0.5-1.5-1.1-0.7-2.2c0.7-0.9,1.2-2,2.7-1.1c1.5,0.9,3.2,1.4,4.9,1.5c1.2,0.2,2.5-0.1,3.4-0.9
		c1.5-1.2,1.3-2.9-0.5-3.5c-0.9-0.3-1.8-0.4-2.7-0.5c-1.8-0.1-3.6-0.6-5.2-1.4c-1.7-0.7-2.9-2.4-2.9-4.3c-0.1-2,1.1-3.9,2.9-4.8
		C162,101.7,163.9,101.3,165.7,101.5z"/>
	<path class="st0" d="M259.1,121.6c-2.5,0.2-5-0.5-7.1-1.8c-1-0.6-1.7-1.3-0.8-2.5c0.7-1,1.4-1.8,2.7-0.8c1.4,0.9,3,1.4,4.7,1.4
		c1.1,0.1,2.1,0,3.1-0.5c0.9-0.4,1.4-1.2,1.4-2.2c0-1.1-0.8-1.6-1.8-1.8c-1.7-0.3-3.4-0.5-5.1-0.9c-3.4-0.8-5.2-2.7-5.2-5.3
		c0-2.9,1.9-4.9,5.3-5.6c2.8-0.5,5.6-0.6,8.2,0.7c0.9,0.4,1.9,1,1,2.2c-0.6,0.9-1.1,2.1-2.6,1c-1.7-1.2-3.8-0.8-5.7-0.6
		c-1,0.1-1.8,1-1.9,2c-0.1,1,0.6,1.8,1.5,2c0.8,0.3,1.6,0.4,2.4,0.5c1.5,0.1,3,0.4,4.4,0.9c1.9,0.7,3.4,1.9,3.4,4.2
		c0.1,3.4-0.7,5.1-3.1,6.2C262.4,121.5,260.8,121.8,259.1,121.6z"/>
	<path class="st0" d="M178.7,111c0-1-0.1-1.9,0-2.9c0.1-1.8-0.1-3-2.4-2.8c-1.5,0.2-1.2-1-1.3-1.8c0-1,0.1-1.7,1.3-1.5
		c2.4,0.4,2.4-1.1,2.2-2.7c-0.2-1.6,0-2.7,2.1-2.7c1.9,0,2.3,0.5,2.3,2.3c-0.1,3.5-0.3,3.2,3.1,3.2c1.2,0,2.4-0.2,2.3,1.8
		c-0.1,1.3-0.5,1.8-1.7,1.7c-0.7,0-1.4,0-2,0c-1.2,0-1.8,0.5-1.7,1.7c0.1,2.4,0,4.8,0,7.3c0,2.1,1,3.1,3,3c1,0,1.9-0.1,2.4,1
		c0.9,1.9,0.5,2.6-1.6,2.8c-5.9,0.4-8.2-1.8-8.3-7.7C178.7,112.7,178.7,111.9,178.7,111z"/>
	<path class="st0" d="M272.1,110.9c0-0.9,0-1.8,0-2.7c0.2-1.9-0.1-3.1-2.4-2.9c-1.3,0.1-1-1-1.1-1.8s0-1.7,1.1-1.5
		c2.6,0.4,2.6-1.2,2.4-3c-0.1-1.4,0-2.4,1.9-2.5c1.8-0.1,2.6,0.2,2.5,2.3c-0.1,3.6-0.3,3.2,3.3,3.2c1.2,0,2.2,0,2.1,1.7
		c-0.1,1.2-0.4,1.8-1.7,1.7c-0.7,0-1.4,0-2,0c-1.4-0.1-1.9,0.6-1.8,1.9c0.1,2.3,0,4.5,0,6.8c0,2.4,1,3.5,3.3,3.3
		c2.2-0.2,2.3,1.3,2.6,2.6c0.3,1.1-0.8,1.2-1.5,1.2c-5.3,0.5-8.8-0.8-8.8-7.5C272.1,112.7,272.1,111.8,272.1,110.9z"/>
	<path class="st0" d="M141.4,111.5c0-2.6,0-5.1,0-7.7c0-0.7-0.4-1.8,0.7-1.8c1.1,0,2.6-0.8,3.3,0.6c0.6,1.3,1,1.1,1.9,0.3
		c2.2-1.8,5.3-2,7.8-0.7c0.9,0.5,1.4,1.1,0.6,1.9c-0.6,0.8-0.4,2.5-2.3,2c-5.2-1.4-7.6,0.5-7.6,5.8c0,2.6-0.1,5.1,0,7.7
		c0.1,2-1.3,1.4-2.3,1.4c-1,0-2.3,0.5-2.3-1.5C141.6,117,141.4,114.3,141.4,111.5z"/>
	<path class="st0" d="M211.5,111.5v-7.7c0-0.7-0.4-1.8,0.7-1.8c1,0,2.5-0.9,3.2,0.7c0.5,1,0.9,1.1,1.6,0.3c1.7-1.9,3.9-1.8,6.1-1.5
		c2.8,0.3,3.3,1.4,2,3.9c-0.5,0.9-0.9,1.1-1.9,0.8c-4.7-1.4-7.4,0.6-7.4,5.6c0,2.6-0.1,5.1,0,7.7c0.1,1.9-1,1.7-2.3,1.7
		s-2.2,0.1-2-1.7C211.7,116.8,211.5,114.2,211.5,111.5z"/>
	<path class="st0" d="M133,111.5c0-2.6,0.1-5.3,0-7.9c-0.1-1.8,0.9-1.9,2.3-1.9c1.2,0,2.1,0,2.1,1.7c-0.1,5.3-0.1,10.7,0,16
		c0,2.1-1.2,1.5-2.4,1.6c-1.3,0.1-2.1-0.1-2-1.8C133.1,116.8,133,114.2,133,111.5z"/>
	<path class="st0" d="M120.6,128c-0.7,2-1.3,3.9-1.9,5.8c-0.3,0.8-0.4,1.6-1.6,1.5c-1.1-0.1-1.1-0.9-1.3-1.6c-0.6-1.9-1.2-3.8-2-6.2
		c-1.1,2.4-1,4.3-1.4,6.2c-0.1,0.8-0.1,1.8-1.4,1.5s-0.6-1.2-0.5-1.8c0.5-2.8,1-5.6,1.5-8.4c0.1-0.6-0.2-1.6,1-1.7s1.4,0.7,1.7,1.6
		c0.7,2.2,1.4,4.4,2.4,7c1.4-2.4,1.7-4.8,2.6-7c0.3-0.7,0.3-1.6,1.5-1.6c1.3,0,1.1,1,1.3,1.7c0.5,2.9,1.1,5.9,1.6,8.9
		c0.1,0.6,0.3,1.2-0.7,1.3c-0.8,0.1-1-0.5-1.1-1.1c-0.2-1.3-0.5-2.7-0.6-4C121.5,129.4,121.2,128.6,120.6,128z"/>
	<path class="st0" d="M152.2,137.1c0.9-0.3,1.8-0.3,2.7,0.1c1,0.3,2.1,0.3,3.1-0.2c0.7-0.3,1-1,0.8-1.7c-0.4-1-1-0.2-1.5-0.1
		c-1.9,0.5-3.5,0.3-4.6-1.4c-1.2-1.8-1.5-3.6-0.1-5.4c1.1-1.6,3.1-2.2,4.8-1.4c0.4,0.1,0.8,0.5,1,0.4c3.3-1.7,2.4,0.9,2.4,2.4
		c0.1,1.8,0.1,3.6,0,5.4c0,1.8-1.3,3.4-3.1,3.7C155.8,139.1,153.6,139.4,152.2,137.1z M158.9,131c0.1-1.5-1-2.8-2.5-2.9c0,0,0,0,0,0
		c-1.5-0.1-2.7,1-2.8,2.5c0,0.1,0,0.2,0,0.4c-0.1,1.3,0.8,2.6,2.2,2.7c0.2,0,0.3,0,0.5,0C157.8,133.8,158.8,132.8,158.9,131
		L158.9,131z"/>
	<path class="st0" d="M177,136.8c0.8-0.5,1.5-0.1,2.3,0.2c1.1,0.5,2.4,0.4,3.4-0.2c0.6-0.3,0.9-1,0.8-1.7c-0.4-0.9-1-0.1-1.5,0.1
		c-1.9,0.7-3.9-0.1-4.9-1.9c-1-1.6-1-3.6,0.1-5.1c1.2-1.7,2.9-1.9,4.8-1.3c0.4,0.1,0.8,0.5,1,0.4c3.3-1.8,2.1,1,2.2,2.2
		c0.1,1.6,0,3.3,0,5c0,2-0.5,3.6-2.5,4.3C180.7,139.6,178.3,138.8,177,136.8z M183.7,131c0.1-1.5-1-2.7-2.5-2.8c-0.1,0-0.1,0-0.2,0
		c-1.7-0.1-2.6,1.1-2.9,2.6c-0.1,1.6,1.1,2.9,2.7,3c0,0,0,0,0.1,0c1.5,0,2.7-1.2,2.7-2.6C183.7,131.1,183.7,131.1,183.7,131
		L183.7,131z"/>
	<path class="st0" d="M207.2,129.4c-0.1-0.9,0-1.8,0-2.7c0.1-1-0.7-2.6,0.6-3c1.6-0.6,3.4-0.3,4.8,0.7c1,0.9,1.3,2.3,0.6,3.5
		c-0.4,0.7-0.2,1.5,0.5,1.9c1,0.9,1.2,2.4,0.5,3.6c-0.5,1.2-1.7,2-3,2H211c-3.7,0.2-3.7,0.2-3.7-3.4
		C207.2,131.1,207.2,130.2,207.2,129.4z M210.6,133.6c1.1-0.1,2.1-0.4,2-1.8c-0.1-1.5-1.4-1.7-2.5-1.8c-1.5,0-1,1.2-1,2
		C209,133.1,209.4,133.8,210.6,133.6L210.6,133.6z M209.1,126.9c0,0.7,0.1,1.4,1.2,1.3c0.8,0.1,1.4-0.5,1.5-1.3c0,0,0,0,0-0.1
		c0-1-0.6-1.5-1.5-1.6C209.1,125.2,209.1,125.9,209.1,126.9L209.1,126.9z"/>
	<path class="st0" d="M243.8,130.1c2.2-1.3,2.8-4,5.5-3.3c0,0.2,0,0.4-0.1,0.5c-0.9,1.3-3,2.2-2.7,3.8c0.3,1.3,1.9,2.4,3,3.5
		c0.1,0.1,0.2,0.4,0.5,0.6c-3.2,0.8-3.7-2.6-6.2-3.6v2.8c0,0.6-0.2,1-0.9,1c-0.7,0-1.1-0.2-1.1-1v-10.2c0-0.7,0.2-1.1,1-1.1
		s1,0.4,1,1.1C243.7,126.1,243.8,127.9,243.8,130.1z"/>
	<path class="st0" d="M173.1,131.1v1.6c0,1.4,0.6,3.6-2.3,2.3c-0.4-0.2-1.1,0.4-1.7,0.5c-1.7,0.5-3.4-0.2-4.3-1.8
		c-1-1.8-0.9-3.9,0.3-5.6c1-1.5,2.6-1.7,4.3-1.3c0.3,0.1,0.6,0.2,0.8,0.4c1,0.4,1.8-1,2.7-0.3c0.1,0.1,0.2,0.3,0.2,0.4
		C173.1,128.5,173.1,129.8,173.1,131.1L173.1,131.1z M171.3,131c0-1.6-1.2-2.9-2.8-2.9c0,0,0,0,0,0c-1.5,0-2.7,1.3-2.6,2.8
		c0,0,0,0,0,0.1c-0.1,1.5,1,2.9,2.6,3c0,0,0.1,0,0.1,0C170.1,133.9,171.4,132.6,171.3,131L171.3,131z"/>
	<path class="st0" d="M226.7,131.2c-0.1,1.2,0.6,3-0.4,3.9c-0.8,0.7-2.6-0.1-4,0.4c-1.6,0.5-3.3-0.3-3.9-1.9
		c-0.9-1.7-0.8-3.8,0.3-5.4c0.9-1.4,2.7-1.9,4.2-1.4c0.9,0.2,1.5,0.7,2.5,0c0.7-0.5,1.5-0.1,1.4,1
		C226.6,128.8,226.7,129.9,226.7,131.2z M224.9,131c0.1-1.5-1.1-2.8-2.6-2.9c-0.1,0-0.1,0-0.2,0c-1.7,0.1-2.5,1.3-2.7,2.9
		c0,1.6,1.2,2.9,2.7,3c1.5,0,2.8-1.2,2.8-2.7C224.9,131.2,224.9,131.1,224.9,131L224.9,131z"/>
	<path class="st0" d="M188.9,131c-0.1-1.9,1.1-3.7,3-4.2c2-0.7,4.2,0.2,5.3,2c1.1,1.8,0.6,2.7-1.5,2.8c-1.1,0-2.3,0-3.4,0
		c-0.5,0-1.4-0.3-1.5,0.6c-0.1,0.7,0.4,1.4,1,1.6c1,0.4,2.1,0.4,3.1,0c0.5-0.2,1.3-0.5,1.6,0.2s-0.5,1-1,1.2
		C192.1,136.7,188.8,134.6,188.9,131z M193.1,130.4c0.8-0.7,2.4,0.3,2.6-1c0.1-1.1-1.3-1.5-2.4-1.5s-2.3,0.5-2.4,1.6
		C191,130.6,192.4,130,193.1,130.4L193.1,130.4z"/>
	<path class="st0" d="M261.1,123.6c3.2,0,4.4,0.8,4.5,2.7c0.2,2.3-0.6,3.5-2.9,3.7c-1.7,0.1-2.3,0.8-2,2.4c0.1,0.3,0.1,0.6,0,0.9
		c-0.2,0.7,0.6,2.1-0.9,2.1c-1.5,0-0.9-1.3-0.9-2c-0.1-2.3,0-4.7,0-7C258.7,124.3,259,122.9,261.1,123.6z M263.9,126.9
		c0-1.1-0.8-1.5-1.8-1.6c-0.9-0.1-1.4,0.2-1.5,1.2c0,0.9,0,1.7,1.2,1.7C262.9,128.2,263.7,128,263.9,126.9z"/>
	<path class="st0" d="M135.9,131.2c0,2.8-1.8,4.4-4.7,4.3c-2.4-0.1-4.3-2.1-4.3-4.5c0,0,0-0.1,0-0.1c0-2.4,1.9-4.3,4.2-4.3
		c0.1,0,0.2,0,0.3,0c2.4,0,4.4,1.9,4.4,4.3C135.9,131,135.9,131.1,135.9,131.2z M131.3,133.9c1.6,0,2.9-1.3,2.9-2.8
		c0-0.1,0-0.2,0-0.2c0-1.5-1.3-2.7-2.8-2.7c0,0,0,0,0,0c-1.5,0.1-2.7,1.4-2.6,3c0,0,0,0.1,0,0.1
		C128.9,132.9,129.8,133.9,131.3,133.9L131.3,133.9z"/>
	<path class="st0" d="M230.4,131.1c0-0.9,0-1.8,0-2.7c-0.1-1.5,0.5-2.2,1.9-1.4c0.7,0.4,1.1-0.2,1.6-0.3c2.4-0.7,3.9,0.3,4.1,2.7
		c0.1,1.6,0,3.3,0,5c0,0.6,0,1-0.8,1c-0.7,0-1.1-0.2-1.1-1c0-1.4,0-2.9,0-4.3c0.1-1-0.6-1.8-1.6-1.9c-1-0.1-1.8,0.6-2,1.5
		c-0.4,1.4-0.5,2.8-0.4,4.3c0,0.6,0.3,1.4-0.8,1.5c-1.3,0-1-0.9-1-1.6C230.4,132.9,230.4,132,230.4,131.1z"/>
	<path class="st0" d="M282.7,128.3c-0.8,0.8-1.5,0.6-2.4,0.2c-1.3-0.8-3-0.3-3.8,1c-0.8,1-0.8,2.4,0,3.4c0.8,1.2,2.5,1.6,3.8,0.9
		c0.8-0.4,1.7-0.7,2.1,0.2c0.4,1-0.8,1.2-1.5,1.4c-2.4,1-5.2,0.1-6.4-2.1c-1-2-0.4-4.5,1.5-5.8C278,125.8,281,126.2,282.7,128.3z"/>
	<path class="st0" d="M148.1,131.7v2.7c0,0.8-0.5,1-1.2,1c-0.7,0-0.9-0.5-0.9-1c0-1.3,0-2.6,0-3.9c0-0.9,0.4-1.8-0.7-2.4
		c-0.4-0.2-0.5-0.7-0.2-1.1c0,0,0-0.1,0.1-0.1c1.1-0.7,0.9-1.8,0.9-2.8c0-0.7,0.4-0.9,1-0.9c0.6,0,1,0.2,1,0.9
		c0,1.1-0.4,2.3,1.1,2.9c0.3,0.2,0.3,0.7,0.1,0.9c0,0,0,0,0,0.1C147.4,128.8,148.4,130.6,148.1,131.7z"/>
	<path class="st0" d="M270.9,129.2v5c0,0.6,0,1.2-1,1.2c-0.9,0-1-0.5-1-1.1v-9.9c0-0.6,0-1.2,1-1.2c0.9,0,1,0.4,1,1.1V129.2z"/>
	<path class="st0" d="M138.8,131.1c0-0.6,0-1.2,0-1.8c0.1-1.2-0.8-3.5,2.1-2.3c0.1,0,0.4-0.2,0.6-0.3c0.5-0.3,1.3-0.7,1.6,0
		s-0.3,1.1-1,1.4c-1.4,0.5-1.2,1.8-1.3,2.9c0,1,0,2.1,0,3.2c0,0.6-0.1,1.2-1,1.2c-1,0-1-0.6-1-1.3
		C138.8,133.1,138.8,132.1,138.8,131.1z"/>
	<path class="st0" d="M135.2,93.7c1.6,0,2.6,0.6,2.5,2.2c0.1,1.4-1,2.6-2.3,2.6c-0.1,0-0.3,0-0.4,0c-1.5,0-2-0.9-2.1-2.4
		C132.9,94.4,133.5,93.5,135.2,93.7z"/>
</g>
</svg>
