<svg width="62" height="70" viewBox="0 0 62 70" fill="none" xmlns="http://www.w3.org/2000/svg">
<path d="M14.916 31.9514C14.916 41.1544 22.3811 48.603 31.5723 48.603C40.7635 48.603 48.2286 41.14 48.2286 31.9514C48.2286 22.7628 40.7635 15.2998 31.5723 15.2998C22.3811 15.2998 14.9304 22.7484 14.916 31.9514ZM31.5723 17.5862C39.5121 17.5862 45.9416 24.0139 45.9416 31.9514C45.9416 39.889 39.5121 46.3023 31.5723 46.3023C23.6325 46.3023 17.203 39.8746 17.203 31.937C17.2174 24.0139 23.6469 17.6005 31.5723 17.5862Z" fill="#3AAA35"/>
<path fill-rule="evenodd" clip-rule="evenodd" d="M34.6225 39.8436H37.8186V36.3526H39.1686V33.8897H37.8186V31.8337H39.1686V29.3707H37.8186V24.332H34.6331V29.3707H31.4712L28.4008 24.332H25.2047V29.3707H24.332V31.8337H25.2047V33.8897H24.332V36.3526H25.2047V39.8436H28.4008V36.3526H32.4944L34.6225 39.8436ZM34.6331 33.8897H34.225L32.9721 31.8337H34.6331V33.8897ZM29.7396 31.8337L30.9929 33.8897H28.4008V31.8337H29.7396Z" fill="#F49800"/>
<path d="M53.8959 51.4358L44.8917 55.6922C43.6547 53.3771 41.267 51.9103 38.6348 51.8384L30.321 51.6084C29.0121 51.5652 27.7176 51.2345 26.5381 50.6306L25.6895 50.1992C21.36 47.9416 16.1963 47.9559 11.8812 50.2136L11.9387 48.3011C11.9531 47.6684 11.4497 47.1363 10.8168 47.1219L1.72634 46.8631C1.09346 46.8487 0.561263 47.352 0.54688 47.9847L0.000300708 67.958C-0.0140829 68.5907 0.489345 69.1228 1.12223 69.1371L10.2271 69.3816H10.2558C10.8743 69.3816 11.3922 68.8927 11.4065 68.26L11.4353 67.2966L13.8086 66.0311C14.7435 65.5279 15.8223 65.4128 16.8436 65.7004L30.9827 69.6692C31.0115 69.6836 31.0258 69.6836 31.0546 69.6836C32.0759 69.8993 33.1115 69.9999 34.1615 69.9999C36.3766 69.9999 38.5629 69.5254 40.5622 68.6051C40.6054 68.5763 40.6629 68.562 40.706 68.5332L61.2028 55.2752C61.7062 54.9444 61.8788 54.2686 61.5767 53.7509C60.0377 51.0763 56.6719 50.041 53.8959 51.4358ZM2.33045 66.8795L2.8195 49.1926L9.63735 49.3795L9.14831 67.0665L2.33045 66.8795ZM39.5122 66.5776C37.0095 67.6992 34.2334 68.0155 31.5437 67.4691L17.4477 63.5147C15.8655 63.0689 14.1682 63.2559 12.7155 64.0324L11.5072 64.6795L11.838 52.9169C15.6641 50.3717 20.5833 50.1129 24.6683 52.2267L25.5169 52.6581C26.9984 53.4202 28.6238 53.8372 30.2923 53.8947L38.606 54.1248C40.9362 54.1967 42.9211 55.8504 43.3958 58.1367L31.0258 57.7916C30.393 57.7772 29.8608 58.2805 29.8464 58.9132C29.832 59.5459 30.3354 60.078 30.9683 60.0924L44.6328 60.4662H44.6616C45.2801 60.4662 45.7979 59.9773 45.8122 59.3446C45.8266 58.8413 45.7835 58.3524 45.6972 57.8491L54.9315 53.4921C54.9459 53.4921 54.9459 53.4777 54.9603 53.4777C56.2692 52.8163 57.8514 53.032 58.9301 54.0385L39.5122 66.5776Z" fill="#3AAA35"/>
<path d="M32.7233 12.0645V1.15037C32.7233 0.517666 32.2054 0 31.5726 0C30.9397 0 30.4219 0.517666 30.4219 1.15037V12.0645C30.4219 12.6972 30.9397 13.2149 31.5726 13.2149C32.2054 13.2149 32.7233 12.6972 32.7233 12.0645Z" fill="#3AAA35"/>
<path d="M41.3385 12.0646V6.88792C41.3385 6.25522 40.8207 5.73755 40.1878 5.73755C39.5549 5.73755 39.0371 6.25522 39.0371 6.88792V12.0502C39.0371 12.6829 39.5549 13.2006 40.1878 13.2006C40.8207 13.215 41.3385 12.6973 41.3385 12.0646Z" fill="#3AAA35"/>
<path d="M24.107 12.0646V6.88792C24.107 6.25522 23.5892 5.73755 22.9564 5.73755C22.3235 5.73755 21.8057 6.25522 21.8057 6.88792V12.0502C21.8057 12.6829 22.3235 13.2006 22.9564 13.2006C23.5892 13.215 24.107 12.6973 24.107 12.0646Z" fill="#3AAA35"/>
</svg>
