<svg width="258" height="121" viewBox="0 0 258 121" fill="none" xmlns="http://www.w3.org/2000/svg">
<path d="M28.4656 119.787L28.0244 119.687C32.9434 97.8296 45.3052 77.9809 62.8327 63.7973C76.084 53.0907 91.8445 45.9301 108.63 42.9897C125.416 40.0493 142.674 41.4258 158.78 46.9896C174.886 52.5535 189.31 62.1216 200.694 74.793C212.078 87.4645 220.047 102.822 223.85 119.421L223.41 119.521C212.997 73.8382 172.927 41.933 125.968 41.933C79.6233 41.933 38.6177 74.675 28.4656 119.787Z" fill="#3F3D56"/>
<path d="M237.744 109.382L238.422 114.352L233.674 114.804L234.352 108.704L237.744 109.382Z" fill="#A0616A"/>
<path d="M215.36 41.1548C215.36 41.1548 215.812 47.2545 215.812 47.4805C215.812 47.7064 212.646 63.2947 212.646 63.2947C212.646 63.2947 208.125 71.8795 212.646 71.6536C217.168 71.4277 215.812 63.5206 215.812 63.5206L220.56 50.4174L218.525 41.1548H215.36Z" fill="#A0616A"/>
<path d="M222.821 109.382L222.143 114.352L226.891 114.804L226.212 108.704L222.821 109.382Z" fill="#A0616A"/>
<path d="M217.62 62.843L216.49 64.4244C216.49 64.4244 215.812 71.2019 216.49 73.4611C217.168 75.7202 218.525 86.1124 218.525 86.7902C218.525 87.4679 218.751 87.9197 218.525 88.1457C218.299 88.3716 217.62 88.3716 218.073 88.8234C218.525 89.2753 218.525 90.6308 218.525 90.6308V91.7603L221.464 108.478C221.464 108.478 219.655 110.511 221.012 110.511C222.369 110.511 227.343 110.511 227.117 108.252L226.664 108.026C226.664 108.026 225.986 93.1158 226.212 92.4381C226.438 91.7603 226.212 90.4048 226.212 90.4048C226.212 90.4048 225.76 89.7271 226.212 89.5012C226.664 89.2753 226.664 87.4679 226.664 87.4679L228.699 73.687C228.699 73.687 230.508 82.9496 231.639 83.8532C232.769 84.7569 232.543 87.0161 232.543 87.0161L233.447 106.897C233.447 106.897 232.543 109.156 233.447 109.608C234.352 110.06 238.195 111.641 238.422 109.382C238.648 107.123 239.778 87.4679 239.778 86.5642C239.778 85.6606 239.552 85.2087 239.778 84.531C240.004 83.8532 239.552 83.8532 239.778 83.8532C240.004 83.8532 239.326 83.1755 239.326 82.7237V71.6537C239.326 71.6537 239.552 69.3946 239.778 68.9427C240.004 68.4909 239.552 68.0391 239.778 67.3613C240.004 66.6836 239.326 64.4244 239.326 64.4244L229.152 61.7134L217.62 62.843Z" fill="#2F2E41"/>
<path d="M225.535 113.448C225.535 113.448 226.665 112.319 225.082 112.319C224.066 112.34 223.065 112.57 222.143 112.997L221.013 117.063C221.013 117.063 216.378 120.791 221.578 120.339C226.778 119.887 225.987 120.226 225.987 120.226C225.987 120.226 227.569 119.774 227.796 119.322C228.022 118.87 227.343 112.319 227.343 112.319C227.343 112.319 226.665 114.126 225.535 113.448Z" fill="#2F2E41"/>
<path d="M235.257 113.448C235.257 113.448 234.126 112.319 235.709 112.319C236.725 112.34 237.726 112.57 238.648 112.997L239.779 117.063C239.779 117.063 244.414 120.791 239.213 120.339C234.013 119.887 234.126 120.226 234.126 120.226C234.126 120.226 232.544 119.774 232.317 119.322C232.091 118.87 233.448 112.319 233.448 112.319C233.448 112.319 234.126 114.126 235.257 113.448Z" fill="#2F2E41"/>
<path d="M66.7092 40.4614H64.6963V119.906H66.7092V40.4614Z" fill="#3F3D56"/>
<path d="M85.286 50.5859C85.4142 78.3656 65.8538 100.976 65.8538 100.976C65.8538 100.976 46.0858 78.5468 45.9577 50.767C45.8295 22.9872 65.3898 0.376709 65.3898 0.376709C65.3898 0.376709 85.1579 22.8061 85.286 50.5859Z" fill="#3AAA35"/>
<path d="M206.768 87.0159H50.9854V120H206.768V87.0159Z" fill="#F2F2F2"/>
<path d="M46.0107 90.6306L62.9682 55.1616H198.402L211.063 90.6306H46.0107Z" fill="#3F3D56"/>
<path d="M151.148 57.4209H88.292V78.2053H151.148V57.4209Z" fill="#F2F2F2"/>
<path d="M92.3615 40.4771L82.4131 61.2614H157.026L151.147 40.4771H92.3615Z" fill="#3F3D56"/>
<path d="M143.46 93.5674H93.8311V120H143.46V93.5674Z" fill="#CCCCCC"/>
<path d="M83.5435 94.4712H57.0898V120H83.5435V94.4712Z" fill="#CCCCCC"/>
<path d="M165.731 96.0527H152.052V120H165.731V96.0527Z" fill="#3F3D56"/>
<path d="M257.075 119.887H0V120.339H257.075V119.887Z" fill="#3F3D56"/>
<path d="M42.005 67.4873H40.6768V119.912H42.005V67.4873Z" fill="#3F3D56"/>
<path d="M54.2635 74.1683C54.348 92.5 41.4403 107.42 41.4403 107.42C41.4403 107.42 28.3955 92.6195 28.311 74.2878C28.2264 55.9562 41.1341 41.0356 41.1341 41.0356C41.1341 41.0356 54.1789 55.8366 54.2635 74.1683Z" fill="#3AAA35"/>
<path opacity="0.1" d="M54.2635 74.1683C54.348 92.5 41.4403 107.42 41.4403 107.42C41.4403 107.42 28.3955 92.6195 28.311 74.2878C28.2264 55.9562 41.1341 41.0356 41.1341 41.0356C41.1341 41.0356 54.1789 55.8366 54.2635 74.1683Z" fill="black"/>
<path d="M24.7365 67.4873H23.4082V119.912H24.7365V67.4873Z" fill="#3F3D56"/>
<path d="M36.9949 74.1683C37.0795 92.5 24.1718 107.42 24.1718 107.42C24.1718 107.42 11.127 92.6195 11.0424 74.2878C10.9579 55.9562 23.8656 41.0356 23.8656 41.0356C23.8656 41.0356 36.9104 55.8366 36.9949 74.1683Z" fill="#3AAA35"/>
<path d="M187.21 97.4082H180.54V103.621H187.21V97.4082Z" fill="#3F3D56"/>
<path d="M196.142 97.4082H189.472V103.621H196.142V97.4082Z" fill="#3F3D56"/>
<path d="M187.21 105.88H180.54V112.319H187.21V105.88Z" fill="#3F3D56"/>
<path d="M196.142 105.88H189.472V112.319H196.142V105.88Z" fill="#3F3D56"/>
<path d="M99.2766 63.1082H94.0566V67.9703H99.2766V63.1082Z" fill="#3F3D56"/>
<path d="M106.267 63.1082H101.047V67.9703H106.267V63.1082Z" fill="#3F3D56"/>
<path d="M99.2766 69.7383H94.0566V74.7772H99.2766V69.7383Z" fill="#3F3D56"/>
<path d="M106.267 69.7383H101.047V74.7772H106.267V69.7383Z" fill="#3F3D56"/>
<path d="M138.393 63.1082H133.173V67.9703H138.393V63.1082Z" fill="#3F3D56"/>
<path d="M145.382 63.1082H140.162V67.9703H145.382V63.1082Z" fill="#3F3D56"/>
<path d="M138.393 69.7383H133.173V74.7772H138.393V69.7383Z" fill="#3F3D56"/>
<path d="M145.382 69.7383H140.162V74.7772H145.382V69.7383Z" fill="#3F3D56"/>
<path d="M118.947 63.1082H113.728V67.9703H118.947V63.1082Z" fill="#3F3D56"/>
<path d="M125.937 63.1082H120.717V67.9703H125.937V63.1082Z" fill="#3F3D56"/>
<path d="M118.947 69.7383H113.728V74.7772H118.947V69.7383Z" fill="#3F3D56"/>
<path d="M125.937 69.7383H120.717V74.7772H125.937V69.7383Z" fill="#3F3D56"/>
<path d="M158.39 98.4788H155.104V101.54H158.39V98.4788Z" fill="#F2F2F2"/>
<path d="M162.792 98.4788H159.505V101.54H162.792V98.4788Z" fill="#F2F2F2"/>
<path d="M158.39 102.653H155.104V105.826H158.39V102.653Z" fill="#F2F2F2"/>
<path d="M162.792 102.653H159.505V105.826H162.792V102.653Z" fill="#F2F2F2"/>
<path d="M163.922 110.624C164.421 110.624 164.826 110.22 164.826 109.721C164.826 109.221 164.421 108.817 163.922 108.817C163.422 108.817 163.018 109.221 163.018 109.721C163.018 110.22 163.422 110.624 163.922 110.624Z" fill="#F2F2F2"/>
<path d="M143.573 96.3916H93.8311V96.8434H143.573V96.3916Z" fill="#F2F2F2"/>
<path d="M143.573 98.4246H93.8311V98.8764H143.573V98.4246Z" fill="#F2F2F2"/>
<path d="M143.573 100.458H93.8311V100.91H143.573V100.458Z" fill="#F2F2F2"/>
<path d="M143.573 102.491H93.8311V102.943H143.573V102.491Z" fill="#F2F2F2"/>
<path d="M143.573 104.524H93.8311V104.976H143.573V104.524Z" fill="#F2F2F2"/>
<path d="M143.573 106.558H93.8311V107.01H143.573V106.558Z" fill="#F2F2F2"/>
<path d="M143.573 108.591H93.8311V109.043H143.573V108.591Z" fill="#F2F2F2"/>
<path d="M143.573 110.624H93.8311V111.076H143.573V110.624Z" fill="#F2F2F2"/>
<path d="M143.573 112.657H93.8311V113.109H143.573V112.657Z" fill="#F2F2F2"/>
<path d="M143.573 114.691H93.8311V115.143H143.573V114.691Z" fill="#F2F2F2"/>
<path d="M143.573 116.724H93.8311V117.176H143.573V116.724Z" fill="#F2F2F2"/>
<path d="M83.5435 96.3916H57.0898V96.8434H83.5435V96.3916Z" fill="#F2F2F2"/>
<path d="M83.5435 98.4246H57.0898V98.8764H83.5435V98.4246Z" fill="#F2F2F2"/>
<path d="M83.5435 100.458H57.0898V100.91H83.5435V100.458Z" fill="#F2F2F2"/>
<path d="M83.5435 102.491H57.0898V102.943H83.5435V102.491Z" fill="#F2F2F2"/>
<path d="M83.5435 104.524H57.0898V104.976H83.5435V104.524Z" fill="#F2F2F2"/>
<path d="M83.5435 106.558H57.0898V107.01H83.5435V106.558Z" fill="#F2F2F2"/>
<path d="M83.5435 108.591H57.0898V109.043H83.5435V108.591Z" fill="#F2F2F2"/>
<path d="M83.5435 110.624H57.0898V111.076H83.5435V110.624Z" fill="#F2F2F2"/>
<path d="M83.5435 112.657H57.0898V113.109H83.5435V112.657Z" fill="#F2F2F2"/>
<path d="M83.5435 114.691H57.0898V115.143H83.5435V114.691Z" fill="#F2F2F2"/>
<path d="M83.5435 116.724H57.0898V117.176H83.5435V116.724Z" fill="#F2F2F2"/>
<path d="M198.289 73.3481C208.403 73.3481 216.603 65.1552 216.603 55.0488C216.603 44.9424 208.403 36.7495 198.289 36.7495C188.174 36.7495 179.975 44.9424 179.975 55.0488C179.975 65.1552 188.174 73.3481 198.289 73.3481Z" fill="#3AAA35"/>
<path d="M209.82 53.2413H200.098V43.5269H196.48V53.2413H186.758V56.856H196.48V66.5704H200.098V56.856H209.82V53.2413Z" fill="white"/>
<path d="M220.56 23.3073C223.807 23.3073 226.439 20.6774 226.439 17.4334C226.439 14.1894 223.807 11.5596 220.56 11.5596C217.314 11.5596 214.682 14.1894 214.682 17.4334C214.682 20.6774 217.314 23.3073 220.56 23.3073Z" fill="#A0616A"/>
<path d="M218.524 21.726C218.524 21.726 219.429 26.2443 219.429 26.9221C219.429 27.5998 223.273 29.6331 223.273 29.6331L227.568 24.2111C227.568 24.2111 224.855 20.3705 224.855 19.4668L218.524 21.726Z" fill="#A0616A"/>
<path d="M221.917 27.5997C221.917 27.5997 219.946 27.0756 219.348 26.208C219.348 26.208 213.099 32.3439 213.099 33.4735L218.073 42.2843C218.073 42.2843 218.073 45.4471 218.525 45.673C218.977 45.8989 218.525 45.673 218.525 46.5767C218.525 47.4804 217.168 53.3542 217.621 54.2579C218.073 55.1615 218.525 54.4838 218.073 55.8393C217.621 57.1948 216.49 64.4241 216.49 64.4241C216.49 64.4241 220.56 63.0686 226.439 65.3278C232.317 67.587 239.326 64.4241 239.326 64.4241C239.326 64.4241 237.517 60.3576 237.97 59.0021C238.422 57.6466 236.839 55.1615 236.839 55.1615L235.709 34.3772C235.709 34.3772 237.291 25.1146 236.161 24.6627L233.9 23.7591L226.659 22.8699C226.659 22.8699 224.856 27.3737 221.917 27.5997Z" fill="#D0CDE1"/>
<path d="M215.36 31.8921L213.099 33.4735C213.099 33.4735 211.969 36.8623 213.099 38.4437C214.23 40.0251 214.682 42.2843 214.682 42.2843L219.204 41.8324L215.36 31.8921Z" fill="#D0CDE1"/>
<path d="M232.091 33.9255C232.091 33.9255 230.781 37.2896 231.055 40.618C231.105 41.214 231.306 41.7874 231.638 42.2845L215.598 49.8936C215.598 49.8936 208.35 50.6434 210.159 53.8062C211.968 56.9691 218.525 52.2248 218.525 52.2248C218.525 52.2248 235.708 49.7397 237.065 47.2546C238.421 44.7696 239.326 34.3774 239.326 34.3774L232.091 33.9255Z" fill="#A0616A"/>
<path d="M216.072 11.2259L215.052 10.818C215.052 10.818 217.184 8.47259 220.151 8.67655L219.317 7.75875C219.317 7.75875 221.356 6.94295 223.21 9.08443C224.185 10.2102 225.312 11.5334 226.015 13.024H227.107L226.652 14.0268L228.247 15.0296L226.609 14.8494C226.765 15.7151 226.711 16.6053 226.455 17.4465L226.498 18.2391C226.498 18.2391 224.601 15.305 224.601 14.8971V15.9168C224.601 15.9168 223.581 14.999 223.581 14.3872L223.025 15.101L222.747 13.9793L219.317 15.101L219.873 14.1832L217.741 14.4892L218.575 13.3674C218.575 13.3674 216.165 14.6931 216.072 15.8149C215.979 16.9366 214.774 18.3643 214.774 18.3643L214.218 17.3445C214.218 17.3445 213.384 12.7556 216.072 11.2259Z" fill="#2F2E41"/>
<path d="M232.769 24.6628H236.161C236.161 24.6628 238.648 25.1147 239.326 29.633C240.004 34.1514 240.683 35.2809 240.004 35.2809C239.326 35.2809 231.187 35.055 231.187 34.8291C231.187 34.6032 232.769 24.6628 232.769 24.6628Z" fill="#D0CDE1"/>
</svg>
