<svg width="258" height="121" viewBox="0 0 258 121" fill="none" xmlns="http://www.w3.org/2000/svg">
<path d="M234.646 120.146H130.926C128.104 120.146 125.809 117.611 125.809 114.496V37.5007C125.797 36.9134 125.949 36.3343 126.247 35.8279C126.546 35.3215 126.979 34.9078 127.499 34.6329L166.694 10.9477C168.842 9.8832 171.208 9.32812 173.606 9.32569C176.005 9.32327 178.371 9.87357 180.522 10.9337L238.062 34.6305C238.585 34.9044 239.021 35.3183 239.321 35.8257C239.622 36.333 239.774 36.9139 239.763 37.5031V114.496C239.763 117.611 237.467 120.146 234.646 120.146Z" fill="#F2F2F2"/>
<path d="M219.331 120.062H130.263C127.831 120.062 125.852 118.273 125.852 116.074V62.254C125.863 61.8055 126.009 61.3707 126.272 61.0063C126.534 60.6418 126.9 60.3645 127.322 60.2104L168.793 43.6505C172.604 42.1456 176.845 42.1434 180.658 43.6446L222.27 60.2111C222.693 60.3649 223.059 60.6422 223.322 61.0068C223.585 61.3715 223.731 61.8066 223.743 62.2556V116.074C223.743 118.273 221.763 120.062 219.331 120.062Z" fill="#3AAA35"/>
<path d="M77.1415 63.5432C84.3493 63.5432 90.1923 57.7105 90.1923 50.5156C90.1923 43.3207 84.3493 37.488 77.1415 37.488C69.9338 37.488 64.0908 43.3207 64.0908 50.5156C64.0908 57.7105 69.9338 63.5432 77.1415 63.5432Z" fill="#FF6584"/>
<path d="M82.5967 97.9465C91.7256 97.9465 99.1261 88.6998 99.1261 77.2935C99.1261 65.8871 91.7256 56.6404 82.5967 56.6404C73.4678 56.6404 66.0674 65.8871 66.0674 77.2935C66.0674 88.6998 73.4678 97.9465 82.5967 97.9465Z" fill="#F2F2F2"/>
<path d="M82.6429 73.1406H82.6883L83.5058 119.921H81.7803L82.6429 73.1406Z" fill="#CCCCCC"/>
<path d="M85.4618 104.11C85.5123 104.206 85.5226 104.318 85.4905 104.421C85.4584 104.525 85.3865 104.611 85.2906 104.662L82.9199 105.907L82.5391 105.185L84.9098 103.94C85.0057 103.889 85.1177 103.879 85.2213 103.911C85.3248 103.943 85.4113 104.015 85.4618 104.11Z" fill="#CCCCCC"/>
<path d="M35.0752 97.9465C44.2042 97.9465 51.6046 88.6998 51.6046 77.2935C51.6046 65.8871 44.2042 56.6404 35.0752 56.6404C25.9463 56.6404 18.5459 65.8871 18.5459 77.2935C18.5459 88.6998 25.9463 97.9465 35.0752 97.9465Z" fill="#F2F2F2"/>
<path d="M37.9409 104.884C37.8904 104.788 37.8038 104.716 37.7003 104.684C37.5967 104.652 37.4847 104.662 37.3888 104.713L35.7337 105.583L35.1669 73.1404H35.1215L34.2588 119.921H35.9843L35.7498 106.496L37.7696 105.435C37.8655 105.384 37.9374 105.298 37.9695 105.195C38.0016 105.091 37.9913 104.98 37.9409 104.884Z" fill="#CCCCCC"/>
<path d="M58.7791 29.6975C70.3464 29.6975 79.7483 51.4544 79.7483 65.9075C79.7483 80.3606 70.3711 92.0772 58.8038 92.0772C47.2365 92.0772 37.8594 80.3606 37.8594 65.9075C37.8594 51.4544 47.2118 29.6975 58.7791 29.6975Z" fill="#3AAA35"/>
<path d="M62.4331 100.867C62.4014 100.807 62.3582 100.754 62.3059 100.711C62.2536 100.667 62.1932 100.635 62.1283 100.614C62.0634 100.594 61.9951 100.587 61.9274 100.593C61.8597 100.6 61.7938 100.619 61.7337 100.651L59.6365 101.753L58.9183 60.645H58.8608L57.7676 119.921H59.954L59.6568 102.911L62.2161 101.566C62.2763 101.534 62.3297 101.491 62.3731 101.439C62.4166 101.386 62.4494 101.326 62.4695 101.261C62.4896 101.196 62.4968 101.128 62.4905 101.061C62.4843 100.993 62.4648 100.927 62.4331 100.867Z" fill="#3F3D56"/>
<path d="M154 83.0764V77.5101C154 76.7841 153.711 76.0878 153.197 75.5745C152.683 75.0611 151.985 74.7727 151.258 74.7727H137.187C136.459 74.7727 135.762 75.0611 135.248 75.5745C134.733 76.0878 134.444 76.7841 134.444 77.5101V83.0764H154Z" fill="white"/>
<path d="M134.444 83.9507V92.5763C134.444 93.3023 134.733 93.9986 135.248 94.5119C135.762 95.0253 136.459 95.3137 137.187 95.3137H151.258C151.985 95.3137 152.683 95.0253 153.197 94.5119C153.711 93.9986 154 93.3023 154 92.5763V83.9507H134.444Z" fill="white"/>
<path d="M220.355 67.7979L178.108 52.3388C175.541 51.3992 172.722 51.3992 170.155 52.3388L127.908 67.7979C127.018 68.1237 126.062 68.2302 125.121 68.1082C124.181 67.9863 123.284 67.6395 122.506 67.0975C121.729 66.5554 121.094 65.834 120.656 64.9945C120.217 64.1551 119.988 63.2224 119.988 62.2757C119.988 61.0711 120.359 59.8954 121.05 58.9078C121.741 57.9202 122.719 57.1682 123.852 56.7536L170.155 39.8104C172.722 38.8708 175.541 38.8708 178.108 39.8104L224.41 56.7536C225.544 57.1682 226.522 57.9202 227.213 58.9078C227.904 59.8954 228.275 61.0711 228.275 62.2757C228.275 63.2224 228.046 64.1551 227.607 64.9945C227.169 65.834 226.534 66.5554 225.757 67.0975C224.979 67.6395 224.082 67.9863 223.142 68.1082C222.201 68.2302 221.245 68.1237 220.355 67.7979Z" fill="#3F3D56"/>
<path d="M180.953 120.32H169.662C168.464 120.319 167.315 119.843 166.468 118.997C165.621 118.151 165.144 117.004 165.143 115.808V88.5124C165.144 87.3163 165.621 86.1695 166.468 85.3237C167.315 84.4779 168.464 84.0021 169.662 84.0007H180.953C182.152 84.0021 183.301 84.4779 184.148 85.3237C184.995 86.1695 185.472 87.3163 185.473 88.5124V115.808C185.472 117.004 184.995 118.151 184.148 118.997C183.301 119.843 182.152 120.319 180.953 120.32ZM169.662 84.7742C168.669 84.7753 167.718 85.1695 167.015 85.8703C166.313 86.5711 165.919 87.5213 165.917 88.5124V115.808C165.919 116.799 166.313 117.75 167.015 118.45C167.718 119.151 168.669 119.545 169.662 119.547H180.953C181.946 119.545 182.898 119.151 183.6 118.45C184.302 117.75 184.697 116.799 184.698 115.808V88.5124C184.697 87.5213 184.302 86.5711 183.6 85.8703C182.898 85.1695 181.946 84.7753 180.953 84.7742H169.662Z" fill="#3F3D56"/>
<path d="M182.048 25.9467C181.866 23.9174 180.93 22.0296 179.424 20.6546C177.918 19.2796 175.951 18.5171 173.91 18.5171C171.869 18.5171 169.902 19.2796 168.396 20.6546C166.889 22.0296 165.953 23.9174 165.771 25.9467H182.048Z" fill="white"/>
<path d="M165.74 26.8208C165.778 28.9587 166.655 30.9962 168.183 32.4948C169.711 33.9934 171.767 34.8331 173.909 34.8331C176.051 34.8331 178.107 33.9934 179.635 32.4948C181.163 30.9962 182.04 28.9587 182.078 26.8208H165.74Z" fill="white"/>
<path d="M180.769 35.8363H167.051C166.398 35.8363 165.771 35.5771 165.309 35.1158C164.847 34.6545 164.587 34.0289 164.587 33.3765C164.587 32.7241 164.847 32.0985 165.309 31.6372C165.771 31.1759 166.398 30.9167 167.051 30.9167H180.769C181.423 30.9167 182.05 31.1759 182.512 31.6372C182.974 32.0985 183.233 32.7241 183.233 33.3765C183.233 34.0289 182.974 34.6545 182.512 35.1158C182.05 35.5771 181.423 35.8363 180.769 35.8363Z" fill="#CCCCCC"/>
<path d="M134.591 92.5288C134.006 92.5288 133.445 92.7608 133.031 93.1737C132.617 93.5867 132.385 94.1468 132.385 94.7308C132.385 95.3148 132.617 95.8748 133.031 96.2878C133.445 96.7007 134.006 96.9327 134.591 96.9327H153.854C154.44 96.9327 155.001 96.7007 155.414 96.2878C155.828 95.8748 156.06 95.3148 156.06 94.7308C156.06 94.1468 155.828 93.5867 155.414 93.1737C155.001 92.7608 154.44 92.5288 153.854 92.5288H134.591Z" fill="#CCCCCC"/>
<path d="M194.425 83.9507V92.5763C194.425 93.3023 194.714 93.9986 195.228 94.5119C195.742 95.0253 196.44 95.3137 197.167 95.3137H211.238C211.966 95.3137 212.663 95.0253 213.177 94.5119C213.692 93.9986 213.981 93.3023 213.981 92.5763V83.9507H194.425Z" fill="white"/>
<path d="M213.981 83.0764V77.5101C213.981 76.7841 213.692 76.0878 213.177 75.5745C212.663 75.0611 211.966 74.7727 211.238 74.7727H197.167C196.44 74.7727 195.742 75.0611 195.228 75.5745C194.714 76.0878 194.425 76.7841 194.425 77.5101V83.0764H213.981Z" fill="white"/>
<path d="M182.02 103.035C182.907 103.035 183.626 102.317 183.626 101.432C183.626 100.547 182.907 99.8296 182.02 99.8296C181.134 99.8296 180.415 100.547 180.415 101.432C180.415 102.317 181.134 103.035 182.02 103.035Z" fill="#3F3D56"/>
<path d="M128.098 102.463L121.774 92.645L122.067 92.457L128.067 101.774L132.956 92.4704L133.264 92.6316L128.098 102.463Z" fill="#3F3D56"/>
<path d="M133.246 89.4266H118.204V89.1662C118.204 88.7445 118.12 88.3269 117.959 87.9373C117.797 87.5477 117.56 87.1936 117.261 86.8954C116.963 86.5972 116.608 86.3607 116.218 86.1993C115.827 86.0379 115.409 85.9548 114.987 85.9548C114.564 85.9548 114.146 86.0379 113.755 86.1993C113.365 86.3607 113.01 86.5972 112.712 86.8954C112.413 87.1936 112.176 87.5477 112.014 87.9373C111.853 88.3269 111.769 88.7445 111.769 89.1662V89.4266H110.291C109.438 89.4266 108.62 89.765 108.016 90.3672C107.413 90.9695 107.074 91.7863 107.074 92.638C107.074 93.4897 107.413 94.3066 108.016 94.9088C108.62 95.5111 109.438 95.8494 110.291 95.8494H111.769V120.118C118.18 119.99 111.723 120.248 118.204 120.118V95.8494H133.246C134.099 95.8494 134.917 95.5111 135.521 94.9088C136.124 94.3066 136.463 93.4897 136.463 92.638C136.463 91.7863 136.124 90.9695 135.521 90.3672C134.917 89.765 134.099 89.4266 133.246 89.4266Z" fill="#3F3D56"/>
<path d="M114.901 93.7662C115.573 93.7662 116.118 93.2222 116.118 92.5511C116.118 91.88 115.573 91.3359 114.901 91.3359C114.229 91.3359 113.684 91.88 113.684 92.5511C113.684 93.2222 114.229 93.7662 114.901 93.7662Z" fill="white"/>
<path d="M135.158 108.65H121.248C120.591 108.649 119.962 108.389 119.497 107.925C119.033 107.461 118.771 106.832 118.771 106.177V101.666C118.771 101.01 119.033 100.381 119.497 99.9174C119.962 99.4537 120.592 99.1929 121.248 99.1921H135.158C135.815 99.1929 136.445 99.4537 136.909 99.9174C137.374 100.381 137.635 101.01 137.636 101.666V106.177C137.635 106.832 137.374 107.461 136.909 107.925C136.445 108.389 135.815 108.649 135.158 108.65Z" fill="#CCCCCC"/>
<path d="M132.551 102.793H123.682C123.154 102.793 122.726 103.22 122.726 103.748C122.726 104.275 123.154 104.702 123.682 104.702H132.551C133.079 104.702 133.507 104.275 133.507 103.748C133.507 103.22 133.079 102.793 132.551 102.793Z" fill="#3AAA35"/>
<path d="M257.339 120.377H0.199656C0.146703 120.377 0.0959213 120.356 0.0584784 120.319C0.0210355 120.281 0 120.23 0 120.178C0 120.125 0.0210355 120.074 0.0584784 120.037C0.0959213 119.999 0.146703 119.978 0.199656 119.978H257.339C257.392 119.978 257.443 119.999 257.48 120.037C257.518 120.074 257.539 120.125 257.539 120.178C257.539 120.23 257.518 120.281 257.48 120.319C257.443 120.356 257.392 120.377 257.339 120.377Z" fill="#CCCCCC"/>
<path d="M213.689 97.1908H194.425C193.772 97.1908 193.145 96.9316 192.683 96.4703C192.221 96.009 191.961 95.3834 191.961 94.731C191.961 94.0786 192.221 93.453 192.683 92.9917C193.145 92.5304 193.772 92.2712 194.425 92.2712H213.689C214.342 92.2712 214.969 92.5304 215.431 92.9917C215.893 93.453 216.153 94.0786 216.153 94.731C216.153 95.3834 215.893 96.009 215.431 96.4703C214.969 96.9316 214.342 97.1908 213.689 97.1908Z" fill="#CCCCCC"/>
<path d="M239.566 40.069C239.566 40.069 234.895 39.7382 225.361 39.2956C213.998 19.4442 177.064 14.6592 177.064 0.376744V0.376709H222.459C227.001 0.376709 231.357 2.17776 234.568 5.38365C237.78 8.58954 239.584 12.9377 239.584 17.4715L239.566 40.069Z" fill="#CCCCCC"/>
<path d="M200.195 5.5957C200.092 5.59582 199.994 5.63659 199.921 5.70909C199.849 5.78159 199.808 5.87989 199.808 5.98242V18.8936C199.808 18.9961 199.849 19.0944 199.921 19.1669C199.994 19.2394 200.092 19.2802 200.195 19.2803H208.252C208.354 19.2802 208.453 19.2394 208.526 19.1669C208.598 19.0944 208.639 18.9961 208.639 18.8936V5.98242C208.639 5.87989 208.598 5.78159 208.526 5.70909C208.453 5.63659 208.354 5.59582 208.252 5.5957H200.195Z" fill="#F2F2F2"/>
<path d="M222.571 39.0278L180.325 13.6098C177.757 12.6702 174.939 12.6702 172.371 13.6098L130.125 39.0278C129.235 39.3536 128.278 39.4601 127.338 39.3381C126.398 39.2162 125.501 38.8694 124.723 38.3273C123.946 37.7853 123.311 37.0638 122.872 36.2244C122.434 35.385 122.205 34.4523 122.205 33.5056C122.205 32.3009 122.576 31.1253 123.267 30.1377C123.958 29.1501 124.936 28.3981 126.069 27.9835L172.371 1.0814C174.939 0.141811 177.757 0.141811 180.325 1.0814L226.627 27.9835C227.76 28.3981 228.739 29.1501 229.43 30.1377C230.121 31.1253 230.491 32.3009 230.491 33.5056C230.491 34.4523 230.262 35.3849 229.824 36.2244C229.386 37.0638 228.751 37.7852 227.973 38.3273C227.196 38.8694 226.299 39.2162 225.358 39.3381C224.418 39.4601 223.462 39.3536 222.571 39.0278Z" fill="#CCCCCC"/>
</svg>
