<svg width="71" height="70" viewBox="0 0 71 70" fill="none" xmlns="http://www.w3.org/2000/svg">
<path fill-rule="evenodd" clip-rule="evenodd" d="M39.1958 9.87869V29.0104H60.7393C64.8208 29.0104 68.1606 25.799 68.1606 21.8241V9.87869C68.1606 5.9038 64.8208 2.69246 60.7393 2.69246H46.6171C42.5356 2.69246 39.1958 5.9038 39.1958 9.87869ZM46.6171 0H60.7393C66.3932 0 70.9706 4.44228 70.9706 9.87869V21.8241C70.9706 27.2605 66.3932 31.7028 60.7393 31.7028H37.7908C37.4143 31.7028 37.0555 31.5581 36.7929 31.3042C36.5307 31.0508 36.3857 30.7096 36.3857 30.3566V9.87869C36.3857 4.44228 40.9632 0 46.6171 0Z" fill="#3AAA35"/>
<path d="M59.083 13.1854L53.3188 8.28589L47.5547 13.1854V14.4103H48.7075V20.5347H51.5896V18.0849C51.5896 17.5977 51.7718 17.1303 52.0961 16.7858C52.4204 16.4412 52.8602 16.2476 53.3188 16.2476C53.7775 16.2476 54.2173 16.4412 54.5416 16.7858C54.8659 17.1303 55.0481 17.5977 55.0481 18.0849V20.5347H57.9302V14.4103H59.083V13.1854Z" fill="#FFAC33"/>
<path fill-rule="evenodd" clip-rule="evenodd" d="M1.71786 14.0314L11.5952 4.14446C12.0239 3.74599 12.5874 3.52441 13.1726 3.52441C13.7578 3.52441 14.3213 3.74601 14.75 4.14453L29.3327 18.736C29.5378 18.9409 29.7007 19.1844 29.8118 19.4525C29.9229 19.7206 29.9801 20.008 29.9801 20.2982C29.9801 20.5885 29.9229 20.8759 29.8118 21.144C29.7007 21.4121 29.5378 21.6556 29.3327 21.8605L22.9077 28.2893L23.1525 29.1119C23.9633 31.8373 25.8687 37.1805 29.3318 40.6457C32.7949 44.1109 38.1352 46.0176 40.8592 46.829L41.6825 47.0742L48.1072 40.6457L48.1081 40.6448C48.3129 40.4395 48.5561 40.2767 48.8238 40.1656C49.0915 40.0545 49.3784 39.9973 49.6682 39.9973C49.9579 39.9973 50.2449 40.0545 50.5125 40.1656C50.7802 40.2767 51.0235 40.4395 51.2283 40.6448L51.2291 40.6457L65.8274 55.2527L65.8283 55.2536C66.0334 55.4585 66.1963 55.702 66.3074 55.9701C66.4185 56.2382 66.4757 56.5256 66.4757 56.8158C66.4757 57.1061 66.4185 57.3935 66.3074 57.6616C66.1963 57.9297 66.0334 58.1732 65.8283 58.3781L55.9298 68.2825C54.8169 69.3961 53.361 70.0001 51.8214 70.0001H51.7311C46.6537 69.9164 29.0846 68.559 15.2648 54.7309C1.43507 40.8928 0.0825198 23.2975 0.000615423 18.2308C-0.0224252 16.68 0.602429 15.1475 1.71786 14.0314ZM24.6513 20.2982L13.1762 8.81623L4.40805 17.5897L4.41803 18.2001C4.49319 22.7994 5.70644 38.913 18.3868 51.6009C31.0262 64.2517 47.0746 65.4995 51.7643 65.5785L52.3754 65.5887L61.1472 56.8161L49.6718 45.3338L43.9337 51.0755L43.9312 51.078C43.6732 51.3374 43.3544 51.5278 43.0041 51.632C42.6537 51.7362 42.2828 51.7508 41.9254 51.6744L41.9191 51.6731C41.7586 51.6396 39.2507 51.1021 36.0539 49.8375C32.8393 48.5658 29.0433 46.6034 26.2135 43.7719C23.3837 40.9404 21.4224 37.1419 20.1514 33.9252C18.8875 30.7263 18.3503 28.2168 18.3168 28.0561L18.3158 28.0514C18.2397 27.6928 18.2546 27.3209 18.3589 26.9696C18.4632 26.6183 18.6537 26.2987 18.913 26.04L24.6513 20.2982Z" fill="#3AAA35"/>
</svg>
