<svg width="70" height="70" viewBox="0 0 70 70" fill="none" xmlns="http://www.w3.org/2000/svg">
<path d="M60.2645 49.2423L50.1964 54.0016C48.8132 51.4129 46.1434 49.7729 43.2001 49.6925L33.904 49.4353C32.4404 49.387 30.9929 49.0172 29.6741 48.3419L28.7251 47.8595C23.8841 45.3352 18.1102 45.3512 13.2852 47.8756L13.3495 45.7371C13.3656 45.0297 12.8027 44.4347 12.095 44.4187L1.93033 44.1292C1.22267 44.1132 0.627586 44.6759 0.611502 45.3834L0.000336242 67.7169C-0.0157471 68.4243 0.547169 69.0193 1.25484 69.0353L11.4356 69.3087H11.4677C12.1593 69.3087 12.7383 68.762 12.7544 68.0545L12.7866 66.9772L15.4403 65.5623C16.4857 64.9996 17.692 64.8709 18.8339 65.1925L34.6438 69.6303C34.676 69.6463 34.6921 69.6463 34.7242 69.6463C35.8661 69.8875 37.0241 70.0001 38.1982 70.0001C40.6751 70.0001 43.1197 69.4695 45.3553 68.4404C45.4036 68.4083 45.4679 68.3922 45.5161 68.36L68.4349 53.5354C68.9978 53.1655 69.1908 52.4098 68.853 51.831C67.1321 48.8403 63.3686 47.6827 60.2645 49.2423ZM2.60583 66.511L3.15267 46.734L10.7762 46.943L10.2293 66.72L2.60583 66.511ZM44.1812 66.1733C41.3827 67.4275 38.2786 67.7812 35.2711 67.1702L19.5094 62.7485C17.7402 62.2501 15.8424 62.4591 14.218 63.3274L12.867 64.0509L13.2369 50.8984C17.5151 48.0525 23.0156 47.7631 27.5832 50.1266L28.5321 50.609C30.1887 51.4612 32.0061 51.9275 33.8718 51.9918L43.168 52.249C45.7735 52.3294 47.993 54.1785 48.5237 56.735L34.6921 56.3491C33.9844 56.3331 33.3893 56.8958 33.3732 57.6033C33.3571 58.3108 33.9201 58.9057 34.6277 58.9218L49.9069 59.3398H49.939C50.6306 59.3398 51.2096 58.7931 51.2257 58.0857C51.2418 57.5229 51.1936 56.9762 51.097 56.4135L61.4225 51.5416C61.4386 51.5416 61.4386 51.5255 61.4547 51.5255C62.9183 50.7859 64.6875 51.0271 65.8937 52.1526L44.1812 66.1733Z" fill="#3AAA35"/>
<path fill-rule="evenodd" clip-rule="evenodd" d="M40.2738 1.4587C41.2648 0.521944 42.5767 0 43.9403 0C45.3041 0 46.6161 0.522023 47.6071 1.45892L61.1668 14.2739C61.1669 14.2739 61.1668 14.2738 61.1668 14.2739C62.0588 15.1166 62.7695 16.1327 63.2551 17.2597C63.7407 18.3867 63.9911 19.6009 63.991 20.8281C63.991 20.8281 63.991 20.828 63.991 20.8281V35.2214C63.991 36.6369 63.4287 37.9945 62.4277 38.9955C61.4268 39.9964 60.0692 40.5587 58.6537 40.5587H29.227C27.8114 40.5587 26.4539 39.9964 25.4529 38.9955C24.452 37.9945 23.8896 36.6369 23.8896 35.2214V20.8282C23.8896 20.8282 23.8896 20.8283 23.8896 20.8282C23.8895 19.6011 24.14 18.3867 24.6255 17.2597C25.1111 16.1327 25.8217 15.1168 26.7136 14.274M26.7136 14.274L40.2738 1.4587C40.2739 1.45863 40.2737 1.45877 40.2738 1.4587M43.9403 3.31796C43.4244 3.31796 42.928 3.51546 42.553 3.86994L28.9926 16.6855C28.4288 17.2181 27.9796 17.8604 27.6727 18.5726C27.3658 19.2849 27.2075 20.0523 27.2076 20.8279V35.2214C27.2076 35.757 27.4204 36.2706 27.7991 36.6493C28.1778 37.028 28.6914 37.2408 29.227 37.2408H58.6537C59.1892 37.2408 59.7029 37.028 60.0816 36.6493C60.4603 36.2706 60.673 35.757 60.673 35.2214V20.8281C60.6731 20.0525 60.5149 19.2849 60.208 18.5726C59.9011 17.8604 59.452 17.2183 58.8882 16.6857L45.3278 3.87015C44.9529 3.51568 44.4563 3.31796 43.9403 3.31796Z" fill="#3AAA35"/>
<path d="M38.4883 20.773C38.4883 19.9835 38.7203 19.3655 39.1844 18.9188C39.659 18.4721 40.2655 18.2488 41.0038 18.2488C41.7421 18.2488 42.3433 18.4721 42.8073 18.9188C43.282 19.3655 43.5193 19.9835 43.5193 20.773C43.5193 21.5728 43.282 22.1961 42.8073 22.6428C42.3433 23.0895 41.7421 23.3128 41.0038 23.3128C40.2655 23.3128 39.659 23.0895 39.1844 22.6428C38.7203 22.1961 38.4883 21.5728 38.4883 20.773ZM48.6452 18.4358L42.4276 29.3429H40.276L46.4777 18.4358H48.6452ZM40.988 19.5576C40.4079 19.5576 40.1178 19.9628 40.1178 20.773C40.1178 21.5936 40.4079 22.0039 40.988 22.0039C41.2727 22.0039 41.4942 21.9053 41.6524 21.7079C41.8106 21.5001 41.8897 21.1885 41.8897 20.773C41.8897 19.9628 41.5891 19.5576 40.988 19.5576ZM45.4336 26.99C45.4336 26.1902 45.6656 25.5721 46.1297 25.1358C46.6043 24.6892 47.2108 24.4658 47.9491 24.4658C48.6874 24.4658 49.2833 24.6892 49.7368 25.1358C50.2009 25.5721 50.4329 26.1902 50.4329 26.99C50.4329 27.7899 50.2009 28.4132 49.7368 28.8598C49.2833 29.3065 48.6874 29.5298 47.9491 29.5298C47.2002 29.5298 46.5938 29.3065 46.1297 28.8598C45.6656 28.4132 45.4336 27.7899 45.4336 26.99ZM47.9333 25.7747C47.3321 25.7747 47.0315 26.1798 47.0315 26.99C47.0315 27.8107 47.3321 28.221 47.9333 28.221C48.5239 28.221 48.8192 27.8107 48.8192 26.99C48.8192 26.1798 48.5239 25.7747 47.9333 25.7747Z" fill="#F49800"/>
</svg>
