<svg width="197" height="121" viewBox="0 0 197 121" fill="none" xmlns="http://www.w3.org/2000/svg">
<path d="M23.7417 120.152L23.4043 120.076C27.1668 103.328 36.6224 88.119 50.0291 77.2509C60.165 69.0471 72.2202 63.5604 85.0594 61.3073C97.8987 59.0542 111.1 60.109 123.419 64.3722C135.739 68.6354 146.772 75.9669 155.479 85.6763C164.186 95.3857 170.282 107.154 173.191 119.872L172.854 119.949C164.89 84.9447 134.24 60.4976 98.321 60.4976C62.8722 60.4976 31.5071 85.5859 23.7417 120.152Z" fill="#3F3D56"/>
<path d="M72.1282 21.4289C77.416 21.4289 81.7026 17.2376 81.7026 12.0673C81.7026 6.89694 77.416 2.70557 72.1282 2.70557C66.8403 2.70557 62.5537 6.89694 62.5537 12.0673C62.5537 17.2376 66.8403 21.4289 72.1282 21.4289Z" fill="#FF6584"/>
<path d="M31.5774 118.014C31.8692 119.072 32.8687 119.727 32.8687 119.727C32.8687 119.727 33.3951 118.667 33.1033 117.61C32.8115 116.552 31.812 115.897 31.812 115.897C31.812 115.897 31.2856 116.957 31.5774 118.014Z" fill="#3F3D56"/>
<path d="M32.2686 117.64C33.0911 118.462 33.1916 119.727 33.1916 119.727C33.1916 119.727 31.9585 119.657 31.1359 118.835C30.3134 118.012 30.2129 116.748 30.2129 116.748C30.2129 116.748 31.446 116.817 32.2686 117.64Z" fill="#3AAA35"/>
<path d="M54.1311 118.014C54.4229 119.072 55.4224 119.727 55.4224 119.727C55.4224 119.727 55.9488 118.667 55.657 117.61C55.3652 116.552 54.3657 115.897 54.3657 115.897C54.3657 115.897 53.8393 116.957 54.1311 118.014Z" fill="#3F3D56"/>
<path d="M54.3965 117.64C55.2191 118.462 55.3195 119.727 55.3195 119.727C55.3195 119.727 54.0864 119.657 53.2638 118.835C52.4413 118.012 52.3408 116.748 52.3408 116.748C52.3408 116.748 53.574 116.817 54.3965 117.64Z" fill="#3AAA35"/>
<path d="M58.4182 31.7059L54.8936 28.8796L74.6314 11.2161H124.681V26.76L92.2543 48.6628L58.4182 31.7059Z" fill="#3F3D56"/>
<path d="M133.901 21.0972V11.568H127.249V13.9017L124.767 11.2161L108.537 28.8313L102.187 33.0591L92.3398 104.898L107.19 119.727H141.701V29.536L133.901 21.0972Z" fill="#CCCCCC"/>
<path d="M108.511 28.6628H54.8936V119.727H108.511V28.6628Z" fill="#F2F2F2"/>
<path d="M85.5314 97.5991H75.7441V119.727H85.5314V97.5991Z" fill="#CCCCCC"/>
<path d="M65.1059 103.982V100.578H60.8506V103.982H64.7513H65.1059Z" fill="#3F3D56"/>
<path d="M64.7513 106.961H60.8506V110.365H65.1059V106.961H64.7513Z" fill="#3F3D56"/>
<path d="M72.3403 100.578H68.085V103.982H72.3403V100.578Z" fill="#3F3D56"/>
<path d="M72.3403 106.961H68.085V110.365H72.3403V106.961Z" fill="#3F3D56"/>
<path d="M94.0424 103.982V100.578H89.7871V103.982H93.6879H94.0424Z" fill="#3F3D56"/>
<path d="M93.6879 106.961H89.7871V110.365H94.0424V106.961H93.6879Z" fill="#3F3D56"/>
<path d="M101.277 100.578H97.0215V103.982H101.277V100.578Z" fill="#3F3D56"/>
<path d="M101.277 106.961H97.0215V110.365H101.277V106.961Z" fill="#3F3D56"/>
<path d="M123.83 33.3439V29.9397H119.574V33.3439H123.475H123.83Z" fill="#3F3D56"/>
<path d="M123.475 36.3225H119.574V39.7268H123.83V36.3225H123.475Z" fill="#3F3D56"/>
<path d="M130.638 29.9397H126.383V33.3439H130.638V29.9397Z" fill="#3F3D56"/>
<path d="M130.638 36.3225H126.383V39.7268H130.638V36.3225Z" fill="#3F3D56"/>
<path d="M123.83 53.3439V49.5142H119.574V53.3439H123.475H123.83Z" fill="#3F3D56"/>
<path d="M123.475 55.897H119.574V59.7268H123.83V55.897H123.475Z" fill="#3F3D56"/>
<path d="M130.638 49.5142H126.383V53.3439H130.638V49.5142Z" fill="#3F3D56"/>
<path d="M130.638 55.897H126.383V59.7268H130.638V55.897Z" fill="#3F3D56"/>
<path d="M123.83 72.9184V69.5142H119.574V72.9184H123.475H123.83Z" fill="#3F3D56"/>
<path d="M123.475 75.897H119.574V79.3012H123.83V75.897H123.475Z" fill="#3F3D56"/>
<path d="M130.638 69.5142H126.383V72.9184H130.638V69.5142Z" fill="#3F3D56"/>
<path d="M130.638 75.897H126.383V79.3012H130.638V75.897Z" fill="#3F3D56"/>
<path d="M123.83 92.9182V89.0884H119.574V92.9182H123.475H123.83Z" fill="#3F3D56"/>
<path d="M123.475 95.4714H119.574V98.8757H123.83V95.4714H123.475Z" fill="#3F3D56"/>
<path d="M130.638 89.0884H126.383V92.9182H130.638V89.0884Z" fill="#3F3D56"/>
<path d="M130.638 95.4714H126.383V98.8757H130.638V95.4714Z" fill="#3F3D56"/>
<path d="M101.702 33.3438H60.8506V41.8544H101.702V33.3438Z" fill="#3F3D56"/>
<path d="M101.702 50.365H60.8506V58.8756H101.702V50.365Z" fill="#3F3D56"/>
<path d="M101.702 67.3865H60.8506V75.8971H101.702V67.3865Z" fill="#3F3D56"/>
<path d="M101.702 84.4075H60.8506V92.9181H101.702V84.4075Z" fill="#3F3D56"/>
<path d="M34.0422 79.7268H32.7656V119.727H34.0422V79.7268Z" fill="#3F3D56"/>
<path d="M43.404 84.7872C43.4691 98.8881 33.5223 110.365 33.5223 110.365C33.5223 110.365 23.4698 98.98 23.4046 84.8791C23.3395 70.7783 33.2863 59.3013 33.2863 59.3013C33.2863 59.3013 43.3388 70.6863 43.404 84.7872Z" fill="#3AAA35"/>
<path opacity="0.1" d="M43.404 84.7872C43.4691 98.8881 33.5223 110.365 33.5223 110.365C33.5223 110.365 23.4698 98.98 23.4046 84.8791C23.3395 70.7783 33.2863 59.3013 33.2863 59.3013C33.2863 59.3013 43.3388 70.6863 43.404 84.7872Z" fill="black"/>
<path d="M20.8508 79.7268H19.5742V119.727H20.8508V79.7268Z" fill="#3F3D56"/>
<path d="M30.2125 84.7872C30.2777 98.8881 20.3309 110.365 20.3309 110.365C20.3309 110.365 10.2784 98.98 10.2132 84.8791C10.1481 70.7783 20.0949 59.3013 20.0949 59.3013C20.0949 59.3013 30.1474 70.6863 30.2125 84.7872Z" fill="#3AAA35"/>
<path d="M163.431 28.9258C155.44 28.9645 148.937 29.0885 148.937 29.0885C148.937 29.0885 156.667 18.3283 163.402 22.3149C170.136 26.3015 177.873 28.9484 177.873 28.9484C177.873 28.9484 171.421 28.8871 163.431 28.9258Z" fill="#F2F2F2"/>
<path d="M30.2386 48.5093C22.2481 48.5458 15.7441 48.663 15.7441 48.663C15.7441 48.663 23.4751 38.5006 30.2096 42.2657C36.9441 46.0308 44.6803 48.5306 44.6803 48.5306C44.6803 48.5306 38.2291 48.4727 30.2386 48.5093Z" fill="#F2F2F2"/>
<path d="M59.1751 7.23267C51.1846 7.26922 44.6807 7.38638 44.6807 7.38638C44.6807 7.38638 52.4116 -2.77606 59.1461 0.989051C65.8806 4.75416 73.6168 7.25403 73.6168 7.25403C73.6168 7.25403 67.1656 7.19613 59.1751 7.23267Z" fill="#F2F2F2"/>
<path d="M180 79.7268H179.148V119.727H180V79.7268Z" fill="#3F3D56"/>
<path d="M189.361 84.7872C189.426 98.8881 179.479 110.365 179.479 110.365C179.479 110.365 169.427 98.98 169.362 84.8791C169.296 70.7783 179.243 59.3013 179.243 59.3013C179.243 59.3013 189.296 70.6863 189.361 84.7872Z" fill="#3AAA35"/>
<path d="M142.696 94.9685H152.842V92.4927H158.44V94.9685H168.937V105.933H158.44V119.727H152.842V105.933H142.696L137.447 99.9201L142.696 94.9685Z" fill="#3F3D56"/>
</svg>
