<svg width="20" height="20" viewBox="0 0 20 20" fill="none" xmlns="http://www.w3.org/2000/svg">
<path d="M19.6746 8.0415H18.8875V8H10.0934V12H15.6156C14.81 14.3285 12.6452 16 10.0934 16C6.85576 16 4.23073 13.3135 4.23073 10C4.23073 6.6865 6.85576 4 10.0934 4C11.5879 4 12.9476 4.577 13.9828 5.5195L16.7466 2.691C15.0015 1.0265 12.6672 0 10.0934 0C4.69731 0 0.322266 4.4775 0.322266 10C0.322266 15.5225 4.69731 20 10.0934 20C15.4896 20 19.8646 15.5225 19.8646 10C19.8646 9.3295 19.7972 8.675 19.6746 8.0415Z" fill="#FFC107"/>
<path d="M1.44922 5.3455L4.65954 7.755C5.52819 5.554 7.63192 4 10.0938 4C11.5883 4 12.9479 4.577 13.9832 5.5195L16.747 2.691C15.0018 1.0265 12.6675 0 10.0938 0C6.34066 0 3.08589 2.1685 1.44922 5.3455Z" fill="#FF3D00"/>
<path d="M10.0933 20.0001C12.6172 20.0001 14.9105 19.0116 16.6444 17.4041L13.6202 14.7851C12.6062 15.5743 11.3672 16.0011 10.0933 16.0001C7.55183 16.0001 5.39387 14.3416 4.58091 12.0271L1.39453 14.5396C3.01166 17.7781 6.29575 20.0001 10.0933 20.0001Z" fill="#4CAF50"/>
<path d="M19.6749 8.0415H18.8878V8H10.0938V12H15.6159C15.2306 13.1082 14.5364 14.0766 13.6192 14.7855L13.6207 14.7845L16.6448 17.4035C16.4308 17.6025 19.8649 15 19.8649 10C19.8649 9.3295 19.7975 8.675 19.6749 8.0415Z" fill="#1976D2"/>
</svg>
